<mxfile host="Electron" modified="2023-07-24T00:12:52.882Z" agent="Mozilla/5.0 (Windows NT 10.0; Win64; x64) AppleWebKit/537.36 (KHTML, like Gecko) draw.io/21.6.1 Chrome/112.0.5615.204 Electron/24.6.1 Safari/537.36" etag="3ezEnFbZI5QQwNLrMCbm" version="21.6.1" type="device" pages="5">
  <diagram id="c3QIZCCPkaVtrIflZ8X7" name="Deployment">
    <mxGraphModel dx="2058" dy="1180" grid="1" gridSize="10" guides="1" tooltips="1" connect="1" arrows="1" fold="1" page="1" pageScale="1" pageWidth="827" pageHeight="1169" math="0" shadow="0">
      <root>
        <mxCell id="0" />
        <mxCell id="1" parent="0" />
        <mxCell id="OQ9xSgSoWo0YC8U43kMK-15" value="MQTT" style="endArrow=none;html=1;rounded=0;dashed=1;entryX=0.496;entryY=0.997;entryDx=0;entryDy=0;entryPerimeter=0;" parent="1" target="OQ9xSgSoWo0YC8U43kMK-16" edge="1">
          <mxGeometry x="-0.006" width="50" height="50" relative="1" as="geometry">
            <mxPoint x="910" y="225" as="sourcePoint" />
            <mxPoint x="997" y="224.5" as="targetPoint" />
            <mxPoint as="offset" />
          </mxGeometry>
        </mxCell>
        <mxCell id="OQ9xSgSoWo0YC8U43kMK-16" value="MEC Server (K8s Node)" style="verticalAlign=top;align=left;shape=cube;size=10;direction=south;fontStyle=0;html=1;boundedLbl=1;spacingLeft=5;whiteSpace=wrap;container=0;" parent="1" vertex="1">
          <mxGeometry x="972" y="80" width="438" height="290" as="geometry" />
        </mxCell>
        <mxCell id="OQ9xSgSoWo0YC8U43kMK-25" value="" style="group" parent="1" vertex="1" connectable="0">
          <mxGeometry x="1341" y="30" width="140" height="30" as="geometry" />
        </mxCell>
        <mxCell id="OQ9xSgSoWo0YC8U43kMK-26" value="" style="endArrow=none;html=1;rounded=0;" parent="OQ9xSgSoWo0YC8U43kMK-25" edge="1">
          <mxGeometry width="50" height="50" relative="1" as="geometry">
            <mxPoint x="39" y="11" as="sourcePoint" />
            <mxPoint x="80" y="11" as="targetPoint" />
          </mxGeometry>
        </mxCell>
        <mxCell id="OQ9xSgSoWo0YC8U43kMK-27" value="" style="endArrow=none;dashed=1;html=1;rounded=0;" parent="OQ9xSgSoWo0YC8U43kMK-25" edge="1">
          <mxGeometry width="50" height="50" relative="1" as="geometry">
            <mxPoint x="79" y="21" as="sourcePoint" />
            <mxPoint x="38" y="21" as="targetPoint" />
          </mxGeometry>
        </mxCell>
        <mxCell id="OQ9xSgSoWo0YC8U43kMK-28" value="유선&lt;br&gt;무선" style="text;html=1;strokeColor=none;fillColor=none;align=center;verticalAlign=middle;whiteSpace=wrap;rounded=0;" parent="OQ9xSgSoWo0YC8U43kMK-25" vertex="1">
          <mxGeometry x="80" width="60" height="30" as="geometry" />
        </mxCell>
        <mxCell id="OQ9xSgSoWo0YC8U43kMK-29" value="DB" style="shape=datastore;whiteSpace=wrap;html=1;" parent="1" vertex="1">
          <mxGeometry x="1330" y="195" width="60" height="60" as="geometry" />
        </mxCell>
        <mxCell id="OQ9xSgSoWo0YC8U43kMK-30" value="" style="endArrow=none;html=1;rounded=0;dashed=1;" parent="1" edge="1">
          <mxGeometry x="-0.006" width="50" height="50" relative="1" as="geometry">
            <mxPoint x="1150" y="226" as="sourcePoint" />
            <mxPoint x="1330" y="226" as="targetPoint" />
            <mxPoint as="offset" />
          </mxGeometry>
        </mxCell>
        <mxCell id="OQ9xSgSoWo0YC8U43kMK-31" value="Pod" style="verticalAlign=top;align=left;shape=cube;size=10;direction=south;fontStyle=0;html=1;boundedLbl=1;spacingLeft=5;whiteSpace=wrap;container=0;" parent="1" vertex="1">
          <mxGeometry x="1158" y="130" width="160" height="210" as="geometry" />
        </mxCell>
        <mxCell id="OQ9xSgSoWo0YC8U43kMK-32" value="Web server app" style="shape=module;align=left;spacingLeft=20;align=center;verticalAlign=top;whiteSpace=wrap;html=1;" parent="1" vertex="1">
          <mxGeometry x="1178" y="245" width="110" height="50" as="geometry" />
        </mxCell>
        <mxCell id="OQ9xSgSoWo0YC8U43kMK-33" value="Actuator control&amp;nbsp; decision-maker" style="shape=module;align=left;spacingLeft=20;align=center;verticalAlign=top;whiteSpace=wrap;html=1;" parent="1" vertex="1">
          <mxGeometry x="1178" y="185" width="110" height="50" as="geometry" />
        </mxCell>
        <mxCell id="OQ9xSgSoWo0YC8U43kMK-34" value="&lt;h1&gt;IoT Device&lt;/h1&gt;" style="text;html=1;strokeColor=none;fillColor=none;spacing=5;spacingTop=-20;whiteSpace=wrap;overflow=hidden;rounded=0;" parent="1" vertex="1">
          <mxGeometry x="110" y="190" width="160" height="40" as="geometry" />
        </mxCell>
        <mxCell id="OQ9xSgSoWo0YC8U43kMK-35" value="Raspberry Pi" style="verticalAlign=top;align=left;shape=cube;size=10;direction=south;fontStyle=0;html=1;boundedLbl=1;spacingLeft=5;whiteSpace=wrap;container=0;" parent="1" vertex="1">
          <mxGeometry x="753" y="135.5" width="156" height="180" as="geometry" />
        </mxCell>
        <mxCell id="OQ9xSgSoWo0YC8U43kMK-17" value="Pod" style="verticalAlign=top;align=left;shape=cube;size=10;direction=south;fontStyle=0;html=1;boundedLbl=1;spacingLeft=5;whiteSpace=wrap;container=0;" parent="1" vertex="1">
          <mxGeometry x="990" y="130" width="160" height="210" as="geometry" />
        </mxCell>
        <mxCell id="OQ9xSgSoWo0YC8U43kMK-18" value="MQTT broker" style="shape=module;align=left;spacingLeft=20;align=center;verticalAlign=top;whiteSpace=wrap;html=1;" parent="1" vertex="1">
          <mxGeometry x="769" y="215.5" width="110" height="50" as="geometry" />
        </mxCell>
        <mxCell id="OQ9xSgSoWo0YC8U43kMK-19" value="MQTT client" style="shape=module;align=left;spacingLeft=20;align=center;verticalAlign=top;whiteSpace=wrap;html=1;" parent="1" vertex="1">
          <mxGeometry x="1010" y="210" width="110" height="50" as="geometry" />
        </mxCell>
        <mxCell id="OQ9xSgSoWo0YC8U43kMK-36" value="MQTT" style="endArrow=none;html=1;rounded=0;dashed=1;entryX=0.496;entryY=0.997;entryDx=0;entryDy=0;entryPerimeter=0;" parent="1" edge="1">
          <mxGeometry x="-0.006" width="50" height="50" relative="1" as="geometry">
            <mxPoint x="690" y="225" as="sourcePoint" />
            <mxPoint x="753" y="224" as="targetPoint" />
            <mxPoint as="offset" />
          </mxGeometry>
        </mxCell>
        <mxCell id="OQ9xSgSoWo0YC8U43kMK-37" value="MQTT" style="endArrow=none;html=1;rounded=0;dashed=1;entryX=0.496;entryY=0.997;entryDx=0;entryDy=0;entryPerimeter=0;" parent="1" target="OQ9xSgSoWo0YC8U43kMK-38" edge="1">
          <mxGeometry x="-0.006" width="50" height="50" relative="1" as="geometry">
            <mxPoint x="910" y="595" as="sourcePoint" />
            <mxPoint x="997" y="594.5" as="targetPoint" />
            <mxPoint as="offset" />
          </mxGeometry>
        </mxCell>
        <mxCell id="OQ9xSgSoWo0YC8U43kMK-38" value="MEC Server (K8s Node)" style="verticalAlign=top;align=left;shape=cube;size=10;direction=south;fontStyle=0;html=1;boundedLbl=1;spacingLeft=5;whiteSpace=wrap;container=0;" parent="1" vertex="1">
          <mxGeometry x="972" y="450" width="438" height="290" as="geometry" />
        </mxCell>
        <mxCell id="OQ9xSgSoWo0YC8U43kMK-39" value="" style="group" parent="1" vertex="1" connectable="0">
          <mxGeometry x="1341" y="400" width="140" height="30" as="geometry" />
        </mxCell>
        <mxCell id="OQ9xSgSoWo0YC8U43kMK-40" value="" style="endArrow=none;html=1;rounded=0;" parent="OQ9xSgSoWo0YC8U43kMK-39" edge="1">
          <mxGeometry width="50" height="50" relative="1" as="geometry">
            <mxPoint x="39" y="11" as="sourcePoint" />
            <mxPoint x="80" y="11" as="targetPoint" />
          </mxGeometry>
        </mxCell>
        <mxCell id="OQ9xSgSoWo0YC8U43kMK-41" value="" style="endArrow=none;dashed=1;html=1;rounded=0;" parent="OQ9xSgSoWo0YC8U43kMK-39" edge="1">
          <mxGeometry width="50" height="50" relative="1" as="geometry">
            <mxPoint x="79" y="21" as="sourcePoint" />
            <mxPoint x="38" y="21" as="targetPoint" />
          </mxGeometry>
        </mxCell>
        <mxCell id="OQ9xSgSoWo0YC8U43kMK-42" value="유선&lt;br&gt;무선" style="text;html=1;strokeColor=none;fillColor=none;align=center;verticalAlign=middle;whiteSpace=wrap;rounded=0;" parent="OQ9xSgSoWo0YC8U43kMK-39" vertex="1">
          <mxGeometry x="80" width="60" height="30" as="geometry" />
        </mxCell>
        <mxCell id="OQ9xSgSoWo0YC8U43kMK-43" value="DB" style="shape=datastore;whiteSpace=wrap;html=1;" parent="1" vertex="1">
          <mxGeometry x="1330" y="565" width="60" height="60" as="geometry" />
        </mxCell>
        <mxCell id="OQ9xSgSoWo0YC8U43kMK-44" value="" style="endArrow=none;html=1;rounded=0;dashed=1;" parent="1" edge="1">
          <mxGeometry x="-0.006" width="50" height="50" relative="1" as="geometry">
            <mxPoint x="1150" y="596" as="sourcePoint" />
            <mxPoint x="1330" y="596" as="targetPoint" />
            <mxPoint as="offset" />
          </mxGeometry>
        </mxCell>
        <mxCell id="OQ9xSgSoWo0YC8U43kMK-45" value="Pod" style="verticalAlign=top;align=left;shape=cube;size=10;direction=south;fontStyle=0;html=1;boundedLbl=1;spacingLeft=5;whiteSpace=wrap;container=0;" parent="1" vertex="1">
          <mxGeometry x="1158" y="500" width="160" height="210" as="geometry" />
        </mxCell>
        <mxCell id="OQ9xSgSoWo0YC8U43kMK-46" value="Web server app" style="shape=module;align=left;spacingLeft=20;align=center;verticalAlign=top;whiteSpace=wrap;html=1;" parent="1" vertex="1">
          <mxGeometry x="1178" y="615" width="110" height="50" as="geometry" />
        </mxCell>
        <mxCell id="OQ9xSgSoWo0YC8U43kMK-47" value="Actuator control&amp;nbsp; decision-maker" style="shape=module;align=left;spacingLeft=20;align=center;verticalAlign=top;whiteSpace=wrap;html=1;" parent="1" vertex="1">
          <mxGeometry x="1178" y="555" width="110" height="50" as="geometry" />
        </mxCell>
        <mxCell id="OQ9xSgSoWo0YC8U43kMK-48" value="Raspberry Pi" style="verticalAlign=top;align=left;shape=cube;size=10;direction=south;fontStyle=0;html=1;boundedLbl=1;spacingLeft=5;whiteSpace=wrap;container=0;" parent="1" vertex="1">
          <mxGeometry x="753" y="505.5" width="156" height="180" as="geometry" />
        </mxCell>
        <mxCell id="OQ9xSgSoWo0YC8U43kMK-49" value="Pod" style="verticalAlign=top;align=left;shape=cube;size=10;direction=south;fontStyle=0;html=1;boundedLbl=1;spacingLeft=5;whiteSpace=wrap;container=0;" parent="1" vertex="1">
          <mxGeometry x="990" y="500" width="160" height="210" as="geometry" />
        </mxCell>
        <mxCell id="OQ9xSgSoWo0YC8U43kMK-50" value="MQTT broker" style="shape=module;align=left;spacingLeft=20;align=center;verticalAlign=top;whiteSpace=wrap;html=1;" parent="1" vertex="1">
          <mxGeometry x="769" y="585.5" width="110" height="50" as="geometry" />
        </mxCell>
        <mxCell id="OQ9xSgSoWo0YC8U43kMK-51" value="MQTT client" style="shape=module;align=left;spacingLeft=20;align=center;verticalAlign=top;whiteSpace=wrap;html=1;" parent="1" vertex="1">
          <mxGeometry x="1010" y="580" width="110" height="50" as="geometry" />
        </mxCell>
        <mxCell id="OQ9xSgSoWo0YC8U43kMK-52" value="MQTT" style="endArrow=none;html=1;rounded=0;dashed=1;entryX=0.496;entryY=0.997;entryDx=0;entryDy=0;entryPerimeter=0;" parent="1" edge="1">
          <mxGeometry x="-0.006" width="50" height="50" relative="1" as="geometry">
            <mxPoint x="690" y="595" as="sourcePoint" />
            <mxPoint x="753" y="594" as="targetPoint" />
            <mxPoint as="offset" />
          </mxGeometry>
        </mxCell>
        <mxCell id="OQ9xSgSoWo0YC8U43kMK-53" value="MQTT" style="endArrow=none;html=1;rounded=0;dashed=1;entryX=0.496;entryY=0.997;entryDx=0;entryDy=0;entryPerimeter=0;exitX=0.521;exitY=0.038;exitDx=0;exitDy=0;exitPerimeter=0;" parent="1" source="OQ9xSgSoWo0YC8U43kMK-64" target="OQ9xSgSoWo0YC8U43kMK-54" edge="1">
          <mxGeometry x="-0.006" width="50" height="50" relative="1" as="geometry">
            <mxPoint x="912" y="965" as="sourcePoint" />
            <mxPoint x="999" y="964.5" as="targetPoint" />
            <mxPoint as="offset" />
          </mxGeometry>
        </mxCell>
        <mxCell id="OQ9xSgSoWo0YC8U43kMK-54" value="MEC Server (K8s Node)" style="verticalAlign=top;align=left;shape=cube;size=10;direction=south;fontStyle=0;html=1;boundedLbl=1;spacingLeft=5;whiteSpace=wrap;container=0;" parent="1" vertex="1">
          <mxGeometry x="974" y="840" width="438" height="290" as="geometry" />
        </mxCell>
        <mxCell id="OQ9xSgSoWo0YC8U43kMK-55" value="" style="group" parent="1" vertex="1" connectable="0">
          <mxGeometry x="1343" y="783" width="140" height="30" as="geometry" />
        </mxCell>
        <mxCell id="OQ9xSgSoWo0YC8U43kMK-56" value="" style="endArrow=none;html=1;rounded=0;" parent="OQ9xSgSoWo0YC8U43kMK-55" edge="1">
          <mxGeometry width="50" height="50" relative="1" as="geometry">
            <mxPoint x="39" y="11" as="sourcePoint" />
            <mxPoint x="80" y="11" as="targetPoint" />
          </mxGeometry>
        </mxCell>
        <mxCell id="OQ9xSgSoWo0YC8U43kMK-57" value="" style="endArrow=none;dashed=1;html=1;rounded=0;" parent="OQ9xSgSoWo0YC8U43kMK-55" edge="1">
          <mxGeometry width="50" height="50" relative="1" as="geometry">
            <mxPoint x="79" y="21" as="sourcePoint" />
            <mxPoint x="38" y="21" as="targetPoint" />
          </mxGeometry>
        </mxCell>
        <mxCell id="OQ9xSgSoWo0YC8U43kMK-58" value="유선&lt;br&gt;무선" style="text;html=1;strokeColor=none;fillColor=none;align=center;verticalAlign=middle;whiteSpace=wrap;rounded=0;" parent="OQ9xSgSoWo0YC8U43kMK-55" vertex="1">
          <mxGeometry x="80" width="60" height="30" as="geometry" />
        </mxCell>
        <mxCell id="OQ9xSgSoWo0YC8U43kMK-59" value="DB" style="shape=datastore;whiteSpace=wrap;html=1;" parent="1" vertex="1">
          <mxGeometry x="1332" y="955" width="60" height="60" as="geometry" />
        </mxCell>
        <mxCell id="OQ9xSgSoWo0YC8U43kMK-60" value="" style="endArrow=none;html=1;rounded=0;dashed=1;" parent="1" edge="1">
          <mxGeometry x="-0.006" width="50" height="50" relative="1" as="geometry">
            <mxPoint x="1152" y="986" as="sourcePoint" />
            <mxPoint x="1332" y="986" as="targetPoint" />
            <mxPoint as="offset" />
          </mxGeometry>
        </mxCell>
        <mxCell id="OQ9xSgSoWo0YC8U43kMK-61" value="Pod" style="verticalAlign=top;align=left;shape=cube;size=10;direction=south;fontStyle=0;html=1;boundedLbl=1;spacingLeft=5;whiteSpace=wrap;container=0;" parent="1" vertex="1">
          <mxGeometry x="1160" y="890" width="160" height="210" as="geometry" />
        </mxCell>
        <mxCell id="OQ9xSgSoWo0YC8U43kMK-62" value="Web server app" style="shape=module;align=left;spacingLeft=20;align=center;verticalAlign=top;whiteSpace=wrap;html=1;" parent="1" vertex="1">
          <mxGeometry x="1180" y="1005" width="110" height="50" as="geometry" />
        </mxCell>
        <mxCell id="OQ9xSgSoWo0YC8U43kMK-63" value="Actuator control&amp;nbsp; decision-maker" style="shape=module;align=left;spacingLeft=20;align=center;verticalAlign=top;whiteSpace=wrap;html=1;" parent="1" vertex="1">
          <mxGeometry x="1180" y="945" width="110" height="50" as="geometry" />
        </mxCell>
        <mxCell id="OQ9xSgSoWo0YC8U43kMK-64" value="Raspberry Pi" style="verticalAlign=top;align=left;shape=cube;size=10;direction=south;fontStyle=0;html=1;boundedLbl=1;spacingLeft=5;whiteSpace=wrap;container=0;" parent="1" vertex="1">
          <mxGeometry x="760" y="890" width="156" height="180" as="geometry" />
        </mxCell>
        <mxCell id="OQ9xSgSoWo0YC8U43kMK-65" value="Pod" style="verticalAlign=top;align=left;shape=cube;size=10;direction=south;fontStyle=0;html=1;boundedLbl=1;spacingLeft=5;whiteSpace=wrap;container=0;" parent="1" vertex="1">
          <mxGeometry x="992" y="890" width="160" height="210" as="geometry" />
        </mxCell>
        <mxCell id="OQ9xSgSoWo0YC8U43kMK-66" value="MQTT broker" style="shape=module;align=left;spacingLeft=20;align=center;verticalAlign=top;whiteSpace=wrap;html=1;" parent="1" vertex="1">
          <mxGeometry x="776" y="970" width="110" height="50" as="geometry" />
        </mxCell>
        <mxCell id="OQ9xSgSoWo0YC8U43kMK-67" value="MQTT client" style="shape=module;align=left;spacingLeft=20;align=center;verticalAlign=top;whiteSpace=wrap;html=1;" parent="1" vertex="1">
          <mxGeometry x="1012" y="970" width="110" height="50" as="geometry" />
        </mxCell>
        <mxCell id="y6LDl0N5eA6EM-gvvTVL-1" value="&lt;h1&gt;Smart Farm&lt;/h1&gt;" style="text;html=1;strokeColor=none;fillColor=none;spacing=5;spacingTop=-20;whiteSpace=wrap;overflow=hidden;rounded=0;" parent="1" vertex="1">
          <mxGeometry x="110" y="570" width="160" height="40" as="geometry" />
        </mxCell>
        <mxCell id="y6LDl0N5eA6EM-gvvTVL-2" value="&lt;h1&gt;Smart Home&lt;/h1&gt;" style="text;html=1;strokeColor=none;fillColor=none;spacing=5;spacingTop=-20;whiteSpace=wrap;overflow=hidden;rounded=0;" parent="1" vertex="1">
          <mxGeometry x="100" y="920" width="160" height="40" as="geometry" />
        </mxCell>
        <mxCell id="3T3BVyZIxlUa1cmqbgY3-1" value="Smart Home Kit" style="verticalAlign=top;align=left;shape=cube;size=10;direction=south;fontStyle=0;html=1;boundedLbl=1;spacingLeft=5;whiteSpace=wrap;container=0;" parent="1" vertex="1">
          <mxGeometry x="278" y="840" width="412" height="290" as="geometry" />
        </mxCell>
        <mxCell id="OQ9xSgSoWo0YC8U43kMK-68" value="MQTT" style="endArrow=none;html=1;rounded=0;dashed=1;entryX=0;entryY=0;entryDx=95;entryDy=156;entryPerimeter=0;exitX=0.498;exitY=-0.001;exitDx=0;exitDy=0;exitPerimeter=0;" parent="1" source="3T3BVyZIxlUa1cmqbgY3-1" target="OQ9xSgSoWo0YC8U43kMK-64" edge="1">
          <mxGeometry x="-0.006" width="50" height="50" relative="1" as="geometry">
            <mxPoint x="692" y="965" as="sourcePoint" />
            <mxPoint x="755" y="964" as="targetPoint" />
            <mxPoint as="offset" />
          </mxGeometry>
        </mxCell>
        <mxCell id="MjwYPodW61McA0ugbgeD-33" value="" style="endArrow=none;html=1;rounded=0;exitX=0;exitY=0;exitDx=30;exitDy=0;exitPerimeter=0;" parent="1" source="3T3BVyZIxlUa1cmqbgY3-3" edge="1">
          <mxGeometry width="50" height="50" relative="1" as="geometry">
            <mxPoint x="452.24" y="948.56" as="sourcePoint" />
            <mxPoint x="491" y="956" as="targetPoint" />
          </mxGeometry>
        </mxCell>
        <mxCell id="MjwYPodW61McA0ugbgeD-34" value="" style="group" parent="1" vertex="1" connectable="0">
          <mxGeometry x="479" y="866" width="200" height="250" as="geometry" />
        </mxCell>
        <mxCell id="MjwYPodW61McA0ugbgeD-35" value="Megaboard&lt;br&gt;" style="verticalAlign=top;align=left;shape=cube;size=10;direction=south;fontStyle=0;html=1;boundedLbl=1;spacingLeft=5;whiteSpace=wrap;container=0;" parent="MjwYPodW61McA0ugbgeD-34" vertex="1">
          <mxGeometry x="8" width="170" height="250" as="geometry" />
        </mxCell>
        <mxCell id="MjwYPodW61McA0ugbgeD-36" value="Sensor data collector" style="shape=module;align=left;spacingLeft=20;align=center;verticalAlign=top;whiteSpace=wrap;html=1;" parent="MjwYPodW61McA0ugbgeD-34" vertex="1">
          <mxGeometry x="36" y="50" width="110" height="50" as="geometry" />
        </mxCell>
        <mxCell id="MjwYPodW61McA0ugbgeD-37" value="Actuator controller" style="shape=module;align=left;spacingLeft=20;align=center;verticalAlign=top;whiteSpace=wrap;html=1;" parent="MjwYPodW61McA0ugbgeD-34" vertex="1">
          <mxGeometry x="36" y="115" width="110" height="50" as="geometry" />
        </mxCell>
        <mxCell id="MjwYPodW61McA0ugbgeD-38" value="MQTT client" style="shape=module;align=left;spacingLeft=20;align=center;verticalAlign=top;whiteSpace=wrap;html=1;" parent="MjwYPodW61McA0ugbgeD-34" vertex="1">
          <mxGeometry x="36" y="180" width="110" height="50" as="geometry" />
        </mxCell>
        <mxCell id="3T3BVyZIxlUa1cmqbgY3-2" value="" style="endArrow=none;html=1;rounded=0;exitX=0.469;exitY=-0.005;exitDx=0;exitDy=0;entryX=0.691;entryY=0.998;entryDx=0;entryDy=0;entryPerimeter=0;exitPerimeter=0;" parent="1" source="3T3BVyZIxlUa1cmqbgY3-4" target="MjwYPodW61McA0ugbgeD-35" edge="1">
          <mxGeometry width="50" height="50" relative="1" as="geometry">
            <mxPoint x="412" y="1031.5" as="sourcePoint" />
            <mxPoint x="457" y="946" as="targetPoint" />
          </mxGeometry>
        </mxCell>
        <mxCell id="3T3BVyZIxlUa1cmqbgY3-3" value="Sensors&lt;br style=&quot;border-color: var(--border-color); text-align: center;&quot;&gt;&lt;span style=&quot;text-align: center;&quot;&gt;(조도, 온도, 습도, 공기질, 인체모션, LED)&lt;/span&gt;" style="verticalAlign=top;align=left;shape=cube;size=10;direction=south;fontStyle=0;html=1;boundedLbl=1;spacingLeft=5;whiteSpace=wrap;container=0;" parent="1" vertex="1">
          <mxGeometry x="301" y="926" width="156" height="70" as="geometry" />
        </mxCell>
        <mxCell id="3T3BVyZIxlUa1cmqbgY3-4" value="Actuators&lt;br style=&quot;border-color: var(--border-color); text-align: center;&quot;&gt;&lt;span style=&quot;text-align: center;&quot;&gt;(도어락, 실링팬, 창문, 팬, 스위치)&lt;/span&gt;" style="verticalAlign=top;align=left;shape=cube;size=10;direction=south;fontStyle=0;html=1;boundedLbl=1;spacingLeft=5;whiteSpace=wrap;container=0;" parent="1" vertex="1">
          <mxGeometry x="301" y="1006" width="156" height="70" as="geometry" />
        </mxCell>
        <mxCell id="3T3BVyZIxlUa1cmqbgY3-5" value="Smart Farm Kit" style="verticalAlign=top;align=left;shape=cube;size=10;direction=south;fontStyle=0;html=1;boundedLbl=1;spacingLeft=5;whiteSpace=wrap;container=0;" parent="1" vertex="1">
          <mxGeometry x="278" y="450" width="412" height="290" as="geometry" />
        </mxCell>
        <mxCell id="3T3BVyZIxlUa1cmqbgY3-6" value="" style="endArrow=none;html=1;rounded=0;exitX=0;exitY=0;exitDx=30;exitDy=0;exitPerimeter=0;" parent="1" source="3T3BVyZIxlUa1cmqbgY3-13" edge="1">
          <mxGeometry width="50" height="50" relative="1" as="geometry">
            <mxPoint x="452.24" y="558.56" as="sourcePoint" />
            <mxPoint x="491" y="566" as="targetPoint" />
          </mxGeometry>
        </mxCell>
        <mxCell id="3T3BVyZIxlUa1cmqbgY3-7" value="" style="group" parent="1" vertex="1" connectable="0">
          <mxGeometry x="479" y="476" width="200" height="250" as="geometry" />
        </mxCell>
        <mxCell id="3T3BVyZIxlUa1cmqbgY3-8" value="Megaboard&lt;br&gt;" style="verticalAlign=top;align=left;shape=cube;size=10;direction=south;fontStyle=0;html=1;boundedLbl=1;spacingLeft=5;whiteSpace=wrap;container=0;" parent="3T3BVyZIxlUa1cmqbgY3-7" vertex="1">
          <mxGeometry x="8" width="170" height="250" as="geometry" />
        </mxCell>
        <mxCell id="3T3BVyZIxlUa1cmqbgY3-9" value="Sensor data collector" style="shape=module;align=left;spacingLeft=20;align=center;verticalAlign=top;whiteSpace=wrap;html=1;" parent="3T3BVyZIxlUa1cmqbgY3-7" vertex="1">
          <mxGeometry x="36" y="50" width="110" height="50" as="geometry" />
        </mxCell>
        <mxCell id="3T3BVyZIxlUa1cmqbgY3-10" value="Actuator controller" style="shape=module;align=left;spacingLeft=20;align=center;verticalAlign=top;whiteSpace=wrap;html=1;" parent="3T3BVyZIxlUa1cmqbgY3-7" vertex="1">
          <mxGeometry x="36" y="115" width="110" height="50" as="geometry" />
        </mxCell>
        <mxCell id="3T3BVyZIxlUa1cmqbgY3-11" value="MQTT client" style="shape=module;align=left;spacingLeft=20;align=center;verticalAlign=top;whiteSpace=wrap;html=1;" parent="3T3BVyZIxlUa1cmqbgY3-7" vertex="1">
          <mxGeometry x="36" y="180" width="110" height="50" as="geometry" />
        </mxCell>
        <mxCell id="3T3BVyZIxlUa1cmqbgY3-12" value="" style="endArrow=none;html=1;rounded=0;exitX=0.469;exitY=-0.005;exitDx=0;exitDy=0;entryX=0.691;entryY=0.998;entryDx=0;entryDy=0;entryPerimeter=0;exitPerimeter=0;" parent="1" source="3T3BVyZIxlUa1cmqbgY3-14" target="3T3BVyZIxlUa1cmqbgY3-8" edge="1">
          <mxGeometry width="50" height="50" relative="1" as="geometry">
            <mxPoint x="412" y="641.5" as="sourcePoint" />
            <mxPoint x="457" y="556" as="targetPoint" />
          </mxGeometry>
        </mxCell>
        <mxCell id="3T3BVyZIxlUa1cmqbgY3-13" value="Sensors&lt;br style=&quot;border-color: var(--border-color); text-align: center;&quot;&gt;(온도, 습도, 조도, 토양 습도, 이산화탄소)" style="verticalAlign=top;align=left;shape=cube;size=10;direction=south;fontStyle=0;html=1;boundedLbl=1;spacingLeft=5;whiteSpace=wrap;container=0;" parent="1" vertex="1">
          <mxGeometry x="301" y="536" width="156" height="70" as="geometry" />
        </mxCell>
        <mxCell id="3T3BVyZIxlUa1cmqbgY3-14" value="Actuators&lt;br style=&quot;border-color: var(--border-color); text-align: center;&quot;&gt;&lt;span style=&quot;text-align: center;&quot;&gt;(창문, 물, 조명, 팬)&lt;/span&gt;" style="verticalAlign=top;align=left;shape=cube;size=10;direction=south;fontStyle=0;html=1;boundedLbl=1;spacingLeft=5;whiteSpace=wrap;container=0;" parent="1" vertex="1">
          <mxGeometry x="301" y="616" width="156" height="70" as="geometry" />
        </mxCell>
        <mxCell id="AkvK57G8VBitrOLv-pn_-1" value="IoT Device" style="verticalAlign=top;align=left;shape=cube;size=10;direction=south;fontStyle=0;html=1;boundedLbl=1;spacingLeft=5;whiteSpace=wrap;container=0;" parent="1" vertex="1">
          <mxGeometry x="278" y="80" width="412" height="290" as="geometry" />
        </mxCell>
        <mxCell id="AkvK57G8VBitrOLv-pn_-2" value="" style="endArrow=none;html=1;rounded=0;exitX=0;exitY=0;exitDx=30;exitDy=0;exitPerimeter=0;" parent="1" source="AkvK57G8VBitrOLv-pn_-9" edge="1">
          <mxGeometry width="50" height="50" relative="1" as="geometry">
            <mxPoint x="452.24" y="188.55999999999995" as="sourcePoint" />
            <mxPoint x="491" y="196" as="targetPoint" />
          </mxGeometry>
        </mxCell>
        <mxCell id="AkvK57G8VBitrOLv-pn_-3" value="" style="group" parent="1" vertex="1" connectable="0">
          <mxGeometry x="479" y="106" width="200" height="250" as="geometry" />
        </mxCell>
        <mxCell id="AkvK57G8VBitrOLv-pn_-4" value="Megaboard&lt;br&gt;" style="verticalAlign=top;align=left;shape=cube;size=10;direction=south;fontStyle=0;html=1;boundedLbl=1;spacingLeft=5;whiteSpace=wrap;container=0;" parent="AkvK57G8VBitrOLv-pn_-3" vertex="1">
          <mxGeometry x="8" width="170" height="250" as="geometry" />
        </mxCell>
        <mxCell id="AkvK57G8VBitrOLv-pn_-5" value="Sensor data collector" style="shape=module;align=left;spacingLeft=20;align=center;verticalAlign=top;whiteSpace=wrap;html=1;" parent="AkvK57G8VBitrOLv-pn_-3" vertex="1">
          <mxGeometry x="36" y="50" width="110" height="50" as="geometry" />
        </mxCell>
        <mxCell id="AkvK57G8VBitrOLv-pn_-6" value="Actuator controller" style="shape=module;align=left;spacingLeft=20;align=center;verticalAlign=top;whiteSpace=wrap;html=1;" parent="AkvK57G8VBitrOLv-pn_-3" vertex="1">
          <mxGeometry x="36" y="115" width="110" height="50" as="geometry" />
        </mxCell>
        <mxCell id="AkvK57G8VBitrOLv-pn_-7" value="MQTT client" style="shape=module;align=left;spacingLeft=20;align=center;verticalAlign=top;whiteSpace=wrap;html=1;" parent="AkvK57G8VBitrOLv-pn_-3" vertex="1">
          <mxGeometry x="36" y="180" width="110" height="50" as="geometry" />
        </mxCell>
        <mxCell id="AkvK57G8VBitrOLv-pn_-8" value="" style="endArrow=none;html=1;rounded=0;exitX=0.469;exitY=-0.005;exitDx=0;exitDy=0;entryX=0.691;entryY=0.998;entryDx=0;entryDy=0;entryPerimeter=0;exitPerimeter=0;" parent="1" source="AkvK57G8VBitrOLv-pn_-10" target="AkvK57G8VBitrOLv-pn_-4" edge="1">
          <mxGeometry width="50" height="50" relative="1" as="geometry">
            <mxPoint x="412" y="271.5" as="sourcePoint" />
            <mxPoint x="457" y="186" as="targetPoint" />
          </mxGeometry>
        </mxCell>
        <mxCell id="AkvK57G8VBitrOLv-pn_-9" value="Sensors" style="verticalAlign=top;align=left;shape=cube;size=10;direction=south;fontStyle=0;html=1;boundedLbl=1;spacingLeft=5;whiteSpace=wrap;container=0;" parent="1" vertex="1">
          <mxGeometry x="301" y="166" width="156" height="70" as="geometry" />
        </mxCell>
        <mxCell id="AkvK57G8VBitrOLv-pn_-10" value="Actuators" style="verticalAlign=top;align=left;shape=cube;size=10;direction=south;fontStyle=0;html=1;boundedLbl=1;spacingLeft=5;whiteSpace=wrap;container=0;" parent="1" vertex="1">
          <mxGeometry x="301" y="246" width="156" height="70" as="geometry" />
        </mxCell>
      </root>
    </mxGraphModel>
  </diagram>
  <diagram id="qaA7HMEKMtoNtVDVnV8h" name="Use case">
    <mxGraphModel dx="2058" dy="2349" grid="1" gridSize="10" guides="1" tooltips="1" connect="1" arrows="1" fold="1" page="1" pageScale="1" pageWidth="827" pageHeight="1169" math="0" shadow="0">
      <root>
        <mxCell id="0" />
        <mxCell id="1" parent="0" />
        <mxCell id="r74K7A7NvZocYuBU26rw-1" value="User" style="shape=umlActor;verticalLabelPosition=bottom;verticalAlign=top;html=1;outlineConnect=0;" parent="1" vertex="1">
          <mxGeometry x="10" y="-855" width="30" height="60" as="geometry" />
        </mxCell>
        <mxCell id="r74K7A7NvZocYuBU26rw-3" value="" style="rounded=0;whiteSpace=wrap;html=1;" parent="1" vertex="1">
          <mxGeometry x="50" y="-986" width="760" height="536" as="geometry" />
        </mxCell>
        <mxCell id="r74K7A7NvZocYuBU26rw-4" value="디바이스 상태&lt;br&gt;확인" style="ellipse;whiteSpace=wrap;html=1;" parent="1" vertex="1">
          <mxGeometry x="150" y="-720" width="92" height="50" as="geometry" />
        </mxCell>
        <mxCell id="r74K7A7NvZocYuBU26rw-6" value="" style="endArrow=classic;html=1;rounded=0;exitX=0.5;exitY=0.5;exitDx=0;exitDy=0;exitPerimeter=0;entryX=0.04;entryY=0.69;entryDx=0;entryDy=0;entryPerimeter=0;" parent="1" source="r74K7A7NvZocYuBU26rw-1" target="qeavwySb_M-KQbj4tZ1g-1" edge="1">
          <mxGeometry width="50" height="50" relative="1" as="geometry">
            <mxPoint x="395" y="-610" as="sourcePoint" />
            <mxPoint x="215" y="-770" as="targetPoint" />
          </mxGeometry>
        </mxCell>
        <mxCell id="kSAAy9aSDYO6O5obT3eE-3" value="히스토리 데이터 조회" style="ellipse;whiteSpace=wrap;html=1;" parent="1" vertex="1">
          <mxGeometry x="370.5" y="-880" width="146" height="40" as="geometry" />
        </mxCell>
        <mxCell id="qeavwySb_M-KQbj4tZ1g-1" value="데이터 조회" style="ellipse;whiteSpace=wrap;html=1;" parent="1" vertex="1">
          <mxGeometry x="516.5" y="-970" width="90" height="40" as="geometry" />
        </mxCell>
        <mxCell id="qeavwySb_M-KQbj4tZ1g-2" value="include" style="endArrow=classic;html=1;rounded=0;exitX=0.627;exitY=0.975;exitDx=0;exitDy=0;entryX=0.5;entryY=0;entryDx=0;entryDy=0;exitPerimeter=0;" parent="1" source="qeavwySb_M-KQbj4tZ1g-1" target="r74K7A7NvZocYuBU26rw-10" edge="1">
          <mxGeometry width="50" height="50" relative="1" as="geometry">
            <mxPoint x="485" y="-770" as="sourcePoint" />
            <mxPoint x="535" y="-820" as="targetPoint" />
          </mxGeometry>
        </mxCell>
        <mxCell id="r74K7A7NvZocYuBU26rw-10" value="실시간 센서 데이터 조회" style="ellipse;whiteSpace=wrap;html=1;" parent="1" vertex="1">
          <mxGeometry x="650" y="-875" width="146" height="40" as="geometry" />
        </mxCell>
        <mxCell id="qeavwySb_M-KQbj4tZ1g-3" value="include" style="endArrow=classic;html=1;rounded=0;exitX=0.5;exitY=1;exitDx=0;exitDy=0;entryX=0.542;entryY=0.035;entryDx=0;entryDy=0;entryPerimeter=0;" parent="1" source="qeavwySb_M-KQbj4tZ1g-1" target="kSAAy9aSDYO6O5obT3eE-3" edge="1">
          <mxGeometry x="0.0003" width="50" height="50" relative="1" as="geometry">
            <mxPoint x="346" y="-890" as="sourcePoint" />
            <mxPoint x="354" y="-868" as="targetPoint" />
            <mxPoint as="offset" />
          </mxGeometry>
        </mxCell>
        <mxCell id="qeavwySb_M-KQbj4tZ1g-9" value="창문, 조명, 물, 환기 팬, 도어락, 실링팬, 스위치 제어" style="ellipse;whiteSpace=wrap;html=1;" parent="1" vertex="1">
          <mxGeometry x="450" y="-700" width="110" height="100" as="geometry" />
        </mxCell>
        <mxCell id="qeavwySb_M-KQbj4tZ1g-11" value="원격 제어" style="ellipse;whiteSpace=wrap;html=1;" parent="1" vertex="1">
          <mxGeometry x="235" y="-765" width="90" height="40" as="geometry" />
        </mxCell>
        <mxCell id="qeavwySb_M-KQbj4tZ1g-14" value="include" style="endArrow=classic;html=1;rounded=0;" parent="1" source="qeavwySb_M-KQbj4tZ1g-11" target="qeavwySb_M-KQbj4tZ1g-9" edge="1">
          <mxGeometry width="50" height="50" relative="1" as="geometry">
            <mxPoint x="541.5" y="-893" as="sourcePoint" />
            <mxPoint x="570.5" y="-872" as="targetPoint" />
          </mxGeometry>
        </mxCell>
        <mxCell id="qeavwySb_M-KQbj4tZ1g-16" value="&lt;h1&gt;Smart_FH&lt;/h1&gt;&lt;p&gt;Smart Farm + Smart Home&lt;/p&gt;" style="text;html=1;strokeColor=none;fillColor=none;spacing=5;spacingTop=-20;whiteSpace=wrap;overflow=hidden;rounded=0;align=center;" parent="1" vertex="1">
          <mxGeometry x="340" y="-1070" width="190" height="70" as="geometry" />
        </mxCell>
        <mxCell id="qeavwySb_M-KQbj4tZ1g-28" value="" style="endArrow=classic;html=1;rounded=0;exitX=0.5;exitY=0.5;exitDx=0;exitDy=0;exitPerimeter=0;entryX=0.027;entryY=0.585;entryDx=0;entryDy=0;entryPerimeter=0;" parent="1" source="r74K7A7NvZocYuBU26rw-1" target="qeavwySb_M-KQbj4tZ1g-11" edge="1">
          <mxGeometry width="50" height="50" relative="1" as="geometry">
            <mxPoint x="485" y="-850" as="sourcePoint" />
            <mxPoint x="535" y="-900" as="targetPoint" />
          </mxGeometry>
        </mxCell>
        <mxCell id="nv9zul16BTAUYCDnlic4-1" value="include" style="endArrow=classic;html=1;rounded=0;entryX=0.447;entryY=0.02;entryDx=0;entryDy=0;entryPerimeter=0;" parent="1" source="r74K7A7NvZocYuBU26rw-10" target="nv9zul16BTAUYCDnlic4-2" edge="1">
          <mxGeometry width="50" height="50" relative="1" as="geometry">
            <mxPoint x="485" y="-880" as="sourcePoint" />
            <mxPoint x="535" y="-930" as="targetPoint" />
          </mxGeometry>
        </mxCell>
        <mxCell id="nv9zul16BTAUYCDnlic4-2" value="온도, 습도, 조도, 토양 습도, 이산화탄소, 공기질, 인체모션, RGB LED)" style="ellipse;whiteSpace=wrap;html=1;" parent="1" vertex="1">
          <mxGeometry x="575" y="-760" width="221" height="70" as="geometry" />
        </mxCell>
        <mxCell id="1b3lr2p0bf5PKC3blCCm-1" value="include" style="endArrow=classic;html=1;rounded=0;entryX=0.464;entryY=-0.003;entryDx=0;entryDy=0;exitX=0.5;exitY=1;exitDx=0;exitDy=0;entryPerimeter=0;" parent="1" source="kSAAy9aSDYO6O5obT3eE-3" target="nv9zul16BTAUYCDnlic4-2" edge="1">
          <mxGeometry width="50" height="50" relative="1" as="geometry">
            <mxPoint x="485" y="-780" as="sourcePoint" />
            <mxPoint x="535" y="-830" as="targetPoint" />
          </mxGeometry>
        </mxCell>
        <mxCell id="1b3lr2p0bf5PKC3blCCm-2" value="식물 상태 모니터링" style="ellipse;whiteSpace=wrap;html=1;" parent="1" vertex="1">
          <mxGeometry x="60" y="-610" width="120" height="40" as="geometry" />
        </mxCell>
        <mxCell id="1b3lr2p0bf5PKC3blCCm-3" value="작동장치 상태 모니터링" style="ellipse;whiteSpace=wrap;html=1;" parent="1" vertex="1">
          <mxGeometry x="210" y="-610" width="140" height="40" as="geometry" />
        </mxCell>
        <mxCell id="1b3lr2p0bf5PKC3blCCm-4" value="include" style="endArrow=classic;html=1;rounded=0;exitX=0;exitY=1;exitDx=0;exitDy=0;" parent="1" source="r74K7A7NvZocYuBU26rw-4" target="1b3lr2p0bf5PKC3blCCm-2" edge="1">
          <mxGeometry width="50" height="50" relative="1" as="geometry">
            <mxPoint x="283" y="-830" as="sourcePoint" />
            <mxPoint x="333" y="-880" as="targetPoint" />
          </mxGeometry>
        </mxCell>
        <mxCell id="1b3lr2p0bf5PKC3blCCm-5" value="" style="endArrow=classic;html=1;rounded=0;exitX=0.5;exitY=0.5;exitDx=0;exitDy=0;exitPerimeter=0;" parent="1" source="r74K7A7NvZocYuBU26rw-1" target="r74K7A7NvZocYuBU26rw-4" edge="1">
          <mxGeometry width="50" height="50" relative="1" as="geometry">
            <mxPoint x="283" y="-830" as="sourcePoint" />
            <mxPoint x="333" y="-880" as="targetPoint" />
          </mxGeometry>
        </mxCell>
        <mxCell id="1b3lr2p0bf5PKC3blCCm-6" value="incldue" style="endArrow=classic;html=1;rounded=0;entryX=0.5;entryY=0;entryDx=0;entryDy=0;exitX=1;exitY=1;exitDx=0;exitDy=0;" parent="1" source="r74K7A7NvZocYuBU26rw-4" target="1b3lr2p0bf5PKC3blCCm-3" edge="1">
          <mxGeometry width="50" height="50" relative="1" as="geometry">
            <mxPoint x="283" y="-830" as="sourcePoint" />
            <mxPoint x="333" y="-880" as="targetPoint" />
          </mxGeometry>
        </mxCell>
        <mxCell id="1b3lr2p0bf5PKC3blCCm-7" value="incldue" style="endArrow=classic;html=1;rounded=0;exitX=1;exitY=1;exitDx=0;exitDy=0;entryX=0;entryY=1;entryDx=0;entryDy=0;" parent="1" source="1b3lr2p0bf5PKC3blCCm-3" target="qeavwySb_M-KQbj4tZ1g-9" edge="1">
          <mxGeometry width="50" height="50" relative="1" as="geometry">
            <mxPoint x="283" y="-830" as="sourcePoint" />
            <mxPoint x="333" y="-880" as="targetPoint" />
          </mxGeometry>
        </mxCell>
        <mxCell id="CdJkKb6rp06fR2jCNlTe-2" value="자동 제어" style="ellipse;whiteSpace=wrap;html=1;" parent="1" vertex="1">
          <mxGeometry x="250" y="-835" width="90" height="40" as="geometry" />
        </mxCell>
        <mxCell id="CdJkKb6rp06fR2jCNlTe-3" value="" style="endArrow=classic;html=1;rounded=0;exitX=0.5;exitY=0.5;exitDx=0;exitDy=0;exitPerimeter=0;entryX=0;entryY=0.5;entryDx=0;entryDy=0;" parent="1" source="r74K7A7NvZocYuBU26rw-1" target="CdJkKb6rp06fR2jCNlTe-2" edge="1">
          <mxGeometry width="50" height="50" relative="1" as="geometry">
            <mxPoint x="440" y="-800" as="sourcePoint" />
            <mxPoint x="490" y="-850" as="targetPoint" />
          </mxGeometry>
        </mxCell>
        <mxCell id="CdJkKb6rp06fR2jCNlTe-4" value="include" style="endArrow=classic;html=1;rounded=0;exitX=0.937;exitY=0.781;exitDx=0;exitDy=0;entryX=0;entryY=0;entryDx=0;entryDy=0;exitPerimeter=0;" parent="1" source="CdJkKb6rp06fR2jCNlTe-2" target="qeavwySb_M-KQbj4tZ1g-9" edge="1">
          <mxGeometry width="50" height="50" relative="1" as="geometry">
            <mxPoint x="440" y="-800" as="sourcePoint" />
            <mxPoint x="490" y="-850" as="targetPoint" />
          </mxGeometry>
        </mxCell>
        <mxCell id="CdJkKb6rp06fR2jCNlTe-5" value="센서 희망&lt;br&gt;수치 값 설정" style="ellipse;whiteSpace=wrap;html=1;" parent="1" vertex="1">
          <mxGeometry x="410" y="-810" width="120" height="45" as="geometry" />
        </mxCell>
        <mxCell id="CdJkKb6rp06fR2jCNlTe-6" value="include" style="endArrow=classic;html=1;rounded=0;exitX=1;exitY=0.5;exitDx=0;exitDy=0;entryX=0;entryY=0.5;entryDx=0;entryDy=0;" parent="1" source="CdJkKb6rp06fR2jCNlTe-2" target="CdJkKb6rp06fR2jCNlTe-5" edge="1">
          <mxGeometry width="50" height="50" relative="1" as="geometry">
            <mxPoint x="440" y="-800" as="sourcePoint" />
            <mxPoint x="490" y="-850" as="targetPoint" />
          </mxGeometry>
        </mxCell>
        <mxCell id="CdJkKb6rp06fR2jCNlTe-7" value="include" style="endArrow=classic;html=1;rounded=0;exitX=1;exitY=1;exitDx=0;exitDy=0;entryX=0.045;entryY=0.286;entryDx=0;entryDy=0;entryPerimeter=0;" parent="1" source="CdJkKb6rp06fR2jCNlTe-5" target="nv9zul16BTAUYCDnlic4-2" edge="1">
          <mxGeometry width="50" height="50" relative="1" as="geometry">
            <mxPoint x="440" y="-800" as="sourcePoint" />
            <mxPoint x="490" y="-850" as="targetPoint" />
          </mxGeometry>
        </mxCell>
        <mxCell id="CdJkKb6rp06fR2jCNlTe-8" value="include" style="endArrow=classic;html=1;rounded=0;exitX=0.5;exitY=1;exitDx=0;exitDy=0;" parent="1" source="1b3lr2p0bf5PKC3blCCm-3" target="CdJkKb6rp06fR2jCNlTe-9" edge="1">
          <mxGeometry width="50" height="50" relative="1" as="geometry">
            <mxPoint x="440" y="-520" as="sourcePoint" />
            <mxPoint x="490" y="-570" as="targetPoint" />
          </mxGeometry>
        </mxCell>
        <mxCell id="CdJkKb6rp06fR2jCNlTe-9" value="작동장치 제어&lt;br&gt;로그 확인" style="ellipse;whiteSpace=wrap;html=1;" parent="1" vertex="1">
          <mxGeometry x="220" y="-510" width="120" height="50" as="geometry" />
        </mxCell>
      </root>
    </mxGraphModel>
  </diagram>
  <diagram id="KIhBVms3eQtV7mbZ_KxF" name="System Require">
    <mxGraphModel dx="2058" dy="1180" grid="1" gridSize="10" guides="1" tooltips="1" connect="1" arrows="1" fold="1" page="1" pageScale="1" pageWidth="1169" pageHeight="827" math="0" shadow="0">
      <root>
        <mxCell id="0" />
        <mxCell id="1" parent="0" />
        <mxCell id="MGH8NbuDzJt6-v8gTB6v-6" value="&amp;lt;&amp;lt;requirement&amp;gt;&amp;gt;&lt;br&gt;NFR03.1&lt;br&gt;데이터 조회" style="shape=rect;html=1;whiteSpace=wrap;align=center;" parent="1" vertex="1">
          <mxGeometry x="195" y="69" width="120" height="60" as="geometry" />
        </mxCell>
        <mxCell id="MGH8NbuDzJt6-v8gTB6v-7" value="&amp;lt;&amp;lt;requirement&amp;gt;&amp;gt;&lt;br&gt;FR01&lt;br&gt;센서 데이터 추출" style="shape=rect;html=1;whiteSpace=wrap;align=center;" parent="1" vertex="1">
          <mxGeometry x="120" y="189" width="120" height="60" as="geometry" />
        </mxCell>
        <mxCell id="MGH8NbuDzJt6-v8gTB6v-8" value="&amp;lt;&amp;lt;requirement&amp;gt;&amp;gt;&lt;br&gt;FR02&lt;br&gt;주기적인 데이터 수집" style="shape=rect;html=1;whiteSpace=wrap;align=center;" parent="1" vertex="1">
          <mxGeometry x="270" y="189" width="120" height="60" as="geometry" />
        </mxCell>
        <mxCell id="MGH8NbuDzJt6-v8gTB6v-9" value="" style="rounded=0;html=1;labelBackgroundColor=none;endArrow=none;edgeStyle=elbowEdgeStyle;elbow=vertical;startArrow=sysMLPackCont;startSize=12;" parent="1" source="MGH8NbuDzJt6-v8gTB6v-6" target="MGH8NbuDzJt6-v8gTB6v-7" edge="1">
          <mxGeometry relative="1" as="geometry" />
        </mxCell>
        <mxCell id="MGH8NbuDzJt6-v8gTB6v-10" value="" style="rounded=0;html=1;labelBackgroundColor=none;endArrow=none;edgeStyle=elbowEdgeStyle;elbow=vertical;startArrow=sysMLPackCont;startSize=12;" parent="1" source="MGH8NbuDzJt6-v8gTB6v-6" target="MGH8NbuDzJt6-v8gTB6v-8" edge="1">
          <mxGeometry relative="1" as="geometry" />
        </mxCell>
        <mxCell id="MGH8NbuDzJt6-v8gTB6v-11" value="&amp;lt;&amp;lt;requirement&amp;gt;&amp;gt;&lt;br&gt;NFR03&lt;br&gt;디바이스 상태 확인" style="shape=rect;html=1;whiteSpace=wrap;align=center;" parent="1" vertex="1">
          <mxGeometry x="510" y="309" width="120" height="60" as="geometry" />
        </mxCell>
        <mxCell id="MGH8NbuDzJt6-v8gTB6v-12" value="&amp;lt;&amp;lt;requirement&amp;gt;&amp;gt;&lt;br&gt;NFR02&lt;br&gt;식물 영상 송출" style="shape=rect;html=1;whiteSpace=wrap;align=center;" parent="1" vertex="1">
          <mxGeometry x="200" y="439" width="120" height="60" as="geometry" />
        </mxCell>
        <mxCell id="MGH8NbuDzJt6-v8gTB6v-13" value="&amp;lt;&amp;lt;requirement&amp;gt;&amp;gt;&lt;br&gt;NFR03.1&lt;br&gt;센서 데이터&amp;nbsp;가시화 그래프 형태 제공" style="shape=rect;html=1;whiteSpace=wrap;align=center;" parent="1" vertex="1">
          <mxGeometry x="660" y="439" width="120" height="60" as="geometry" />
        </mxCell>
        <mxCell id="MGH8NbuDzJt6-v8gTB6v-14" value="" style="rounded=0;html=1;labelBackgroundColor=none;endArrow=none;edgeStyle=elbowEdgeStyle;elbow=vertical;startArrow=sysMLPackCont;startSize=12;" parent="1" source="MGH8NbuDzJt6-v8gTB6v-11" target="MGH8NbuDzJt6-v8gTB6v-12" edge="1">
          <mxGeometry relative="1" as="geometry" />
        </mxCell>
        <mxCell id="MGH8NbuDzJt6-v8gTB6v-15" value="" style="rounded=0;html=1;labelBackgroundColor=none;endArrow=none;edgeStyle=elbowEdgeStyle;elbow=vertical;startArrow=sysMLPackCont;startSize=12;" parent="1" source="MGH8NbuDzJt6-v8gTB6v-11" target="MGH8NbuDzJt6-v8gTB6v-13" edge="1">
          <mxGeometry relative="1" as="geometry" />
        </mxCell>
        <mxCell id="MGH8NbuDzJt6-v8gTB6v-22" value="&amp;lt;&amp;lt;requirement&amp;gt;&amp;gt;&lt;br&gt;FR03&lt;br&gt;MQTT 통신" style="shape=rect;html=1;whiteSpace=wrap;align=center;" parent="1" vertex="1">
          <mxGeometry x="300" y="579" width="120" height="60" as="geometry" />
        </mxCell>
        <mxCell id="MGH8NbuDzJt6-v8gTB6v-23" value="&amp;lt;&amp;lt;requirement&amp;gt;&amp;gt;&lt;br&gt;FR03.1&lt;br&gt;센서 데이터&lt;br&gt;토픽 발행" style="shape=rect;html=1;whiteSpace=wrap;align=center;" parent="1" vertex="1">
          <mxGeometry x="170" y="699" width="120" height="60" as="geometry" />
        </mxCell>
        <mxCell id="MGH8NbuDzJt6-v8gTB6v-24" value="&amp;lt;&amp;lt;requirement&amp;gt;&amp;gt;&lt;br&gt;FR03.2&lt;br&gt;작동장치 상태&lt;br&gt;토픽 발행" style="shape=rect;html=1;whiteSpace=wrap;align=center;" parent="1" vertex="1">
          <mxGeometry x="430" y="699" width="120" height="60" as="geometry" />
        </mxCell>
        <mxCell id="MGH8NbuDzJt6-v8gTB6v-25" value="" style="rounded=0;html=1;labelBackgroundColor=none;endArrow=none;edgeStyle=elbowEdgeStyle;elbow=vertical;startArrow=sysMLPackCont;startSize=12;" parent="1" source="MGH8NbuDzJt6-v8gTB6v-22" target="MGH8NbuDzJt6-v8gTB6v-23" edge="1">
          <mxGeometry relative="1" as="geometry" />
        </mxCell>
        <mxCell id="MGH8NbuDzJt6-v8gTB6v-26" value="" style="rounded=0;html=1;labelBackgroundColor=none;endArrow=none;edgeStyle=elbowEdgeStyle;elbow=vertical;startArrow=sysMLPackCont;startSize=12;" parent="1" source="MGH8NbuDzJt6-v8gTB6v-22" target="MGH8NbuDzJt6-v8gTB6v-24" edge="1">
          <mxGeometry relative="1" as="geometry" />
        </mxCell>
        <mxCell id="MGH8NbuDzJt6-v8gTB6v-27" value="&amp;lt;&amp;lt;requirement&amp;gt;&amp;gt;&lt;br&gt;FR07&lt;br&gt;원격 제어" style="shape=rect;html=1;whiteSpace=wrap;align=center;" parent="1" vertex="1">
          <mxGeometry x="540" y="69" width="120" height="60" as="geometry" />
        </mxCell>
        <mxCell id="MGH8NbuDzJt6-v8gTB6v-28" value="&amp;lt;&amp;lt;requirement&amp;gt;&amp;gt;&lt;br&gt;FR04&lt;br&gt;구독 받은 토픽으로&lt;br&gt;작동 장치 제어" style="shape=rect;html=1;whiteSpace=wrap;align=center;" parent="1" vertex="1">
          <mxGeometry x="410" y="189" width="120" height="60" as="geometry" />
        </mxCell>
        <mxCell id="MGH8NbuDzJt6-v8gTB6v-29" value="&amp;lt;&amp;lt;requirement&amp;gt;&amp;gt;&lt;br&gt;FR06&lt;br&gt;작동장치 조작 API" style="shape=rect;html=1;whiteSpace=wrap;align=center;" parent="1" vertex="1">
          <mxGeometry x="670" y="189" width="120" height="60" as="geometry" />
        </mxCell>
        <mxCell id="MGH8NbuDzJt6-v8gTB6v-30" value="" style="rounded=0;html=1;labelBackgroundColor=none;endArrow=none;edgeStyle=elbowEdgeStyle;elbow=vertical;startArrow=sysMLPackCont;startSize=12;" parent="1" source="MGH8NbuDzJt6-v8gTB6v-27" target="MGH8NbuDzJt6-v8gTB6v-28" edge="1">
          <mxGeometry relative="1" as="geometry" />
        </mxCell>
        <mxCell id="MGH8NbuDzJt6-v8gTB6v-31" value="" style="rounded=0;html=1;labelBackgroundColor=none;endArrow=none;edgeStyle=elbowEdgeStyle;elbow=vertical;startArrow=sysMLPackCont;startSize=12;" parent="1" source="MGH8NbuDzJt6-v8gTB6v-27" target="MGH8NbuDzJt6-v8gTB6v-29" edge="1">
          <mxGeometry relative="1" as="geometry" />
        </mxCell>
        <mxCell id="MGH8NbuDzJt6-v8gTB6v-42" value="&amp;lt;&amp;lt;requirement&amp;gt;&amp;gt;&lt;br&gt;FR04&lt;br&gt;구독 받은 토픽으로&lt;br&gt;작동 장치 제어" style="shape=rect;html=1;whiteSpace=wrap;align=center;" parent="1" vertex="1">
          <mxGeometry x="300" y="699" width="120" height="60" as="geometry" />
        </mxCell>
        <mxCell id="MGH8NbuDzJt6-v8gTB6v-45" value="" style="edgeStyle=elbowEdgeStyle;elbow=vertical;endArrow=none;html=1;curved=0;rounded=0;endSize=8;startSize=8;endFill=0;entryX=0.5;entryY=0;entryDx=0;entryDy=0;exitX=0.5;exitY=1;exitDx=0;exitDy=0;" parent="1" source="MGH8NbuDzJt6-v8gTB6v-22" target="MGH8NbuDzJt6-v8gTB6v-42" edge="1">
          <mxGeometry width="50" height="50" relative="1" as="geometry">
            <mxPoint x="380" y="639" as="sourcePoint" />
            <mxPoint x="380" y="699" as="targetPoint" />
          </mxGeometry>
        </mxCell>
        <mxCell id="MGH8NbuDzJt6-v8gTB6v-46" value="&amp;lt;&amp;lt;requirement&amp;gt;&amp;gt;&lt;br&gt;FR07.1&lt;br&gt;자동 제어" style="shape=rect;html=1;whiteSpace=wrap;align=center;" parent="1" vertex="1">
          <mxGeometry x="880" y="69" width="120" height="60" as="geometry" />
        </mxCell>
        <mxCell id="MGH8NbuDzJt6-v8gTB6v-47" value="&amp;lt;&amp;lt;requirement&amp;gt;&amp;gt;&lt;br&gt;FR07&lt;br&gt;사용자가 원하는&lt;br&gt;환경의 수치 설정" style="shape=rect;html=1;whiteSpace=wrap;align=center;" parent="1" vertex="1">
          <mxGeometry x="800" y="189" width="120" height="60" as="geometry" />
        </mxCell>
        <mxCell id="MGH8NbuDzJt6-v8gTB6v-49" value="" style="rounded=0;html=1;labelBackgroundColor=none;endArrow=none;edgeStyle=elbowEdgeStyle;elbow=vertical;startArrow=sysMLPackCont;startSize=12;" parent="1" source="MGH8NbuDzJt6-v8gTB6v-46" target="MGH8NbuDzJt6-v8gTB6v-47" edge="1">
          <mxGeometry relative="1" as="geometry" />
        </mxCell>
        <mxCell id="0z9T9HivQutAXbYvD3oK-1" value="&amp;lt;&amp;lt;requirement&amp;gt;&amp;gt;&lt;br&gt;FR06.1&lt;br&gt;작동 장치는 한 번에&amp;nbsp;&lt;br&gt;하나씩 제어" style="shape=rect;html=1;whiteSpace=wrap;align=center;" parent="1" vertex="1">
          <mxGeometry x="540" y="189" width="120" height="60" as="geometry" />
        </mxCell>
        <mxCell id="0z9T9HivQutAXbYvD3oK-2" value="" style="edgeStyle=elbowEdgeStyle;elbow=vertical;endArrow=none;html=1;curved=0;rounded=0;endSize=8;startSize=8;endFill=0;entryX=0.5;entryY=0;entryDx=0;entryDy=0;" parent="1" target="0z9T9HivQutAXbYvD3oK-1" edge="1">
          <mxGeometry width="50" height="50" relative="1" as="geometry">
            <mxPoint x="600" y="159" as="sourcePoint" />
            <mxPoint x="600" y="219" as="targetPoint" />
          </mxGeometry>
        </mxCell>
        <mxCell id="0z9T9HivQutAXbYvD3oK-3" value="&amp;lt;&amp;lt;requirement&amp;gt;&amp;gt;&lt;br&gt;FR04&lt;br&gt;구독 받은 토픽으로&lt;br&gt;작동 장치 제어" style="shape=rect;html=1;whiteSpace=wrap;align=center;" parent="1" vertex="1">
          <mxGeometry x="950" y="189" width="120" height="60" as="geometry" />
        </mxCell>
        <mxCell id="0z9T9HivQutAXbYvD3oK-4" value="" style="edgeStyle=elbowEdgeStyle;elbow=vertical;endArrow=none;html=1;curved=0;rounded=0;endSize=8;startSize=8;endFill=0;entryX=0.5;entryY=0;entryDx=0;entryDy=0;" parent="1" source="MGH8NbuDzJt6-v8gTB6v-46" target="0z9T9HivQutAXbYvD3oK-3" edge="1">
          <mxGeometry width="50" height="50" relative="1" as="geometry">
            <mxPoint x="910" y="189" as="sourcePoint" />
            <mxPoint x="900" y="319" as="targetPoint" />
          </mxGeometry>
        </mxCell>
        <mxCell id="0z9T9HivQutAXbYvD3oK-5" value="&amp;lt;&amp;lt;requirement&amp;gt;&amp;gt;&lt;br&gt;FR05&lt;br&gt;데이터베이스 적재" style="shape=rect;html=1;whiteSpace=wrap;align=center;" parent="1" vertex="1">
          <mxGeometry x="350" y="439" width="120" height="60" as="geometry" />
        </mxCell>
        <mxCell id="0z9T9HivQutAXbYvD3oK-6" value="" style="edgeStyle=elbowEdgeStyle;elbow=vertical;endArrow=none;html=1;curved=0;rounded=0;endSize=8;startSize=8;endFill=0;exitX=0.5;exitY=1;exitDx=0;exitDy=0;entryX=0.5;entryY=0;entryDx=0;entryDy=0;" parent="1" source="MGH8NbuDzJt6-v8gTB6v-11" target="0z9T9HivQutAXbYvD3oK-5" edge="1">
          <mxGeometry width="50" height="50" relative="1" as="geometry">
            <mxPoint x="320" y="339" as="sourcePoint" />
            <mxPoint x="360" y="429" as="targetPoint" />
          </mxGeometry>
        </mxCell>
        <mxCell id="0z9T9HivQutAXbYvD3oK-7" value="&amp;lt;&amp;lt;requirement&amp;gt;&amp;gt;&lt;br&gt;NFR06&lt;br&gt;작동장치 제어 로그" style="shape=rect;html=1;whiteSpace=wrap;align=center;" parent="1" vertex="1">
          <mxGeometry x="510" y="439" width="120" height="60" as="geometry" />
        </mxCell>
        <mxCell id="0z9T9HivQutAXbYvD3oK-8" value="" style="edgeStyle=elbowEdgeStyle;elbow=vertical;endArrow=none;html=1;curved=0;rounded=0;endSize=8;startSize=8;endFill=0;exitX=0.5;exitY=1;exitDx=0;exitDy=0;entryX=0.5;entryY=0;entryDx=0;entryDy=0;" parent="1" source="MGH8NbuDzJt6-v8gTB6v-11" target="0z9T9HivQutAXbYvD3oK-7" edge="1">
          <mxGeometry width="50" height="50" relative="1" as="geometry">
            <mxPoint x="580" y="379" as="sourcePoint" />
            <mxPoint x="580" y="439" as="targetPoint" />
          </mxGeometry>
        </mxCell>
        <mxCell id="0z9T9HivQutAXbYvD3oK-9" value="&amp;lt;&amp;lt;requirement&amp;gt;&amp;gt;&lt;br&gt;NFR01&lt;br&gt;쿠버네티스 배포" style="shape=rect;html=1;whiteSpace=wrap;align=center;" parent="1" vertex="1">
          <mxGeometry x="740" y="579" width="120" height="60" as="geometry" />
        </mxCell>
        <mxCell id="0z9T9HivQutAXbYvD3oK-10" value="&amp;lt;&amp;lt;requirement&amp;gt;&amp;gt;&lt;br&gt;NFR07&lt;br&gt;간단한 대시보드 제공" style="shape=rect;html=1;whiteSpace=wrap;align=center;" parent="1" vertex="1">
          <mxGeometry x="600" y="699" width="120" height="60" as="geometry" />
        </mxCell>
        <mxCell id="0z9T9HivQutAXbYvD3oK-11" value="&amp;lt;&amp;lt;requirement&amp;gt;&amp;gt;&lt;br&gt;NFR04&lt;br&gt;단순한 UI로&lt;br&gt;작동 장치 제어" style="shape=rect;html=1;whiteSpace=wrap;align=center;" parent="1" vertex="1">
          <mxGeometry x="880" y="699" width="120" height="60" as="geometry" />
        </mxCell>
        <mxCell id="0z9T9HivQutAXbYvD3oK-12" value="" style="rounded=0;html=1;labelBackgroundColor=none;endArrow=none;edgeStyle=elbowEdgeStyle;elbow=vertical;startArrow=sysMLPackCont;startSize=12;" parent="1" source="0z9T9HivQutAXbYvD3oK-9" target="0z9T9HivQutAXbYvD3oK-10" edge="1">
          <mxGeometry relative="1" as="geometry" />
        </mxCell>
        <mxCell id="0z9T9HivQutAXbYvD3oK-13" value="" style="rounded=0;html=1;labelBackgroundColor=none;endArrow=none;edgeStyle=elbowEdgeStyle;elbow=vertical;startArrow=sysMLPackCont;startSize=12;" parent="1" source="0z9T9HivQutAXbYvD3oK-9" target="0z9T9HivQutAXbYvD3oK-11" edge="1">
          <mxGeometry relative="1" as="geometry" />
        </mxCell>
        <mxCell id="0z9T9HivQutAXbYvD3oK-14" value="&amp;lt;&amp;lt;requirement&amp;gt;&amp;gt;&lt;br&gt;FR08&lt;br&gt;원하는 데이터&lt;br&gt;그래프만 가시화" style="shape=rect;html=1;whiteSpace=wrap;align=center;" parent="1" vertex="1">
          <mxGeometry x="840" y="439" width="120" height="60" as="geometry" />
        </mxCell>
        <mxCell id="0z9T9HivQutAXbYvD3oK-15" value="" style="edgeStyle=elbowEdgeStyle;elbow=vertical;endArrow=none;html=1;curved=0;rounded=0;endSize=8;startSize=8;endFill=0;entryX=0.5;entryY=0;entryDx=0;entryDy=0;" parent="1" source="MGH8NbuDzJt6-v8gTB6v-11" target="0z9T9HivQutAXbYvD3oK-14" edge="1">
          <mxGeometry width="50" height="50" relative="1" as="geometry">
            <mxPoint x="900" y="859" as="sourcePoint" />
            <mxPoint x="900" y="919" as="targetPoint" />
          </mxGeometry>
        </mxCell>
        <mxCell id="0z9T9HivQutAXbYvD3oK-16" value="&amp;lt;&amp;lt;requirement&amp;gt;&amp;gt;&lt;br&gt;NFR09&lt;br&gt;대시보드 색상 제한" style="shape=rect;html=1;whiteSpace=wrap;align=center;" parent="1" vertex="1">
          <mxGeometry x="740" y="699" width="120" height="60" as="geometry" />
        </mxCell>
        <mxCell id="0z9T9HivQutAXbYvD3oK-17" value="" style="edgeStyle=elbowEdgeStyle;elbow=vertical;endArrow=none;html=1;curved=0;rounded=0;endSize=8;startSize=8;endFill=0;entryX=0.5;entryY=0;entryDx=0;entryDy=0;" parent="1" source="0z9T9HivQutAXbYvD3oK-9" target="0z9T9HivQutAXbYvD3oK-16" edge="1">
          <mxGeometry width="50" height="50" relative="1" as="geometry">
            <mxPoint x="930" y="639" as="sourcePoint" />
            <mxPoint x="930" y="699" as="targetPoint" />
          </mxGeometry>
        </mxCell>
      </root>
    </mxGraphModel>
  </diagram>
  <diagram id="siuMzEJaHXCVHY1VekIx" name="Component">
    <mxGraphModel dx="2058" dy="1180" grid="1" gridSize="10" guides="1" tooltips="1" connect="1" arrows="1" fold="1" page="1" pageScale="1" pageWidth="1169" pageHeight="827" math="0" shadow="0">
      <root>
        <mxCell id="0" />
        <mxCell id="1" parent="0" />
        <mxCell id="7cRbhmp89BHnN9N3VSou-7" value="" style="rounded=0;whiteSpace=wrap;html=1;" parent="1" vertex="1">
          <mxGeometry x="597" y="640" width="250" height="130" as="geometry" />
        </mxCell>
        <mxCell id="7cRbhmp89BHnN9N3VSou-3" value="" style="rounded=0;whiteSpace=wrap;html=1;" parent="1" vertex="1">
          <mxGeometry x="329" y="640" width="250" height="130" as="geometry" />
        </mxCell>
        <mxCell id="WdK_SFn7svs-GRjPZrlo-1" value="Web server app" style="shape=module;align=left;spacingLeft=20;align=center;verticalAlign=top;whiteSpace=wrap;html=1;" parent="1" vertex="1">
          <mxGeometry x="703" y="90" width="110" height="50" as="geometry" />
        </mxCell>
        <mxCell id="WdK_SFn7svs-GRjPZrlo-2" value="Actuator control&amp;nbsp; decision-maker" style="shape=module;align=left;spacingLeft=20;align=center;verticalAlign=top;whiteSpace=wrap;html=1;" parent="1" vertex="1">
          <mxGeometry x="1023" y="90" width="110" height="50" as="geometry" />
        </mxCell>
        <mxCell id="WdK_SFn7svs-GRjPZrlo-3" value="MQTT broker" style="shape=module;align=left;spacingLeft=20;align=center;verticalAlign=top;whiteSpace=wrap;html=1;" parent="1" vertex="1">
          <mxGeometry x="533" y="379" width="110" height="50" as="geometry" />
        </mxCell>
        <mxCell id="WdK_SFn7svs-GRjPZrlo-4" value="MQTT client" style="shape=module;align=left;spacingLeft=20;align=center;verticalAlign=top;whiteSpace=wrap;html=1;" parent="1" vertex="1">
          <mxGeometry x="903" y="380" width="110" height="50" as="geometry" />
        </mxCell>
        <mxCell id="WdK_SFn7svs-GRjPZrlo-5" value="Sensor data collector" style="shape=module;align=left;spacingLeft=20;align=center;verticalAlign=top;whiteSpace=wrap;html=1;" parent="1" vertex="1">
          <mxGeometry x="113" y="90" width="110" height="50" as="geometry" />
        </mxCell>
        <mxCell id="WdK_SFn7svs-GRjPZrlo-6" value="Actuator controller" style="shape=module;align=left;spacingLeft=20;align=center;verticalAlign=top;whiteSpace=wrap;html=1;" parent="1" vertex="1">
          <mxGeometry x="393" y="90" width="110" height="50" as="geometry" />
        </mxCell>
        <mxCell id="WdK_SFn7svs-GRjPZrlo-7" value="MQTT client" style="shape=module;align=left;spacingLeft=20;align=center;verticalAlign=top;whiteSpace=wrap;html=1;" parent="1" vertex="1">
          <mxGeometry x="153" y="380" width="110" height="50" as="geometry" />
        </mxCell>
        <mxCell id="AxAOXHXbwmsmabOcH6BD-1" value="" style="endArrow=none;html=1;rounded=0;entryX=0.5;entryY=1;entryDx=0;entryDy=0;exitX=0.5;exitY=0;exitDx=0;exitDy=0;" parent="1" source="AxAOXHXbwmsmabOcH6BD-2" target="WdK_SFn7svs-GRjPZrlo-5" edge="1">
          <mxGeometry width="50" height="50" relative="1" as="geometry">
            <mxPoint x="183" y="230" as="sourcePoint" />
            <mxPoint x="663" y="290" as="targetPoint" />
          </mxGeometry>
        </mxCell>
        <mxCell id="AxAOXHXbwmsmabOcH6BD-2" value="" style="ellipse;whiteSpace=wrap;html=1;" parent="1" vertex="1">
          <mxGeometry x="180" y="240" width="10" height="10" as="geometry" />
        </mxCell>
        <mxCell id="AxAOXHXbwmsmabOcH6BD-4" value="" style="endArrow=halfCircle;html=1;rounded=0;exitX=0.5;exitY=0;exitDx=0;exitDy=0;entryX=0.5;entryY=1;entryDx=0;entryDy=0;endFill=0;" parent="1" source="WdK_SFn7svs-GRjPZrlo-7" target="AxAOXHXbwmsmabOcH6BD-2" edge="1">
          <mxGeometry width="50" height="50" relative="1" as="geometry">
            <mxPoint x="613" y="340" as="sourcePoint" />
            <mxPoint x="663" y="290" as="targetPoint" />
          </mxGeometry>
        </mxCell>
        <mxCell id="AxAOXHXbwmsmabOcH6BD-5" value="" style="ellipse;whiteSpace=wrap;html=1;" parent="1" vertex="1">
          <mxGeometry x="280" y="230" width="10" height="10" as="geometry" />
        </mxCell>
        <mxCell id="AxAOXHXbwmsmabOcH6BD-7" value="" style="endArrow=none;html=1;rounded=0;exitX=1;exitY=0;exitDx=0;exitDy=0;entryX=0.5;entryY=1;entryDx=0;entryDy=0;" parent="1" source="AxAOXHXbwmsmabOcH6BD-5" target="WdK_SFn7svs-GRjPZrlo-6" edge="1">
          <mxGeometry width="50" height="50" relative="1" as="geometry">
            <mxPoint x="393" y="270" as="sourcePoint" />
            <mxPoint x="443" y="220" as="targetPoint" />
          </mxGeometry>
        </mxCell>
        <mxCell id="AxAOXHXbwmsmabOcH6BD-8" value="" style="endArrow=halfCircle;html=1;rounded=0;exitX=0.5;exitY=0;exitDx=0;exitDy=0;entryX=0;entryY=1;entryDx=0;entryDy=0;endFill=0;" parent="1" source="WdK_SFn7svs-GRjPZrlo-7" target="AxAOXHXbwmsmabOcH6BD-5" edge="1">
          <mxGeometry width="50" height="50" relative="1" as="geometry">
            <mxPoint x="393" y="270" as="sourcePoint" />
            <mxPoint x="443" y="220" as="targetPoint" />
          </mxGeometry>
        </mxCell>
        <mxCell id="AxAOXHXbwmsmabOcH6BD-9" value="" style="ellipse;whiteSpace=wrap;html=1;" parent="1" vertex="1">
          <mxGeometry x="320" y="260" width="10" height="10" as="geometry" />
        </mxCell>
        <mxCell id="AxAOXHXbwmsmabOcH6BD-10" value="" style="endArrow=none;html=1;rounded=0;exitX=0.5;exitY=0;exitDx=0;exitDy=0;entryX=0;entryY=1;entryDx=0;entryDy=0;" parent="1" source="WdK_SFn7svs-GRjPZrlo-7" target="AxAOXHXbwmsmabOcH6BD-9" edge="1">
          <mxGeometry width="50" height="50" relative="1" as="geometry">
            <mxPoint x="393" y="270" as="sourcePoint" />
            <mxPoint x="443" y="220" as="targetPoint" />
          </mxGeometry>
        </mxCell>
        <mxCell id="AxAOXHXbwmsmabOcH6BD-11" value="" style="endArrow=halfCircle;html=1;rounded=0;exitX=0.5;exitY=1;exitDx=0;exitDy=0;entryX=1;entryY=0;entryDx=0;entryDy=0;endFill=0;" parent="1" source="WdK_SFn7svs-GRjPZrlo-6" target="AxAOXHXbwmsmabOcH6BD-9" edge="1">
          <mxGeometry width="50" height="50" relative="1" as="geometry">
            <mxPoint x="393" y="270" as="sourcePoint" />
            <mxPoint x="443" y="220" as="targetPoint" />
          </mxGeometry>
        </mxCell>
        <mxCell id="AxAOXHXbwmsmabOcH6BD-15" value="" style="ellipse;whiteSpace=wrap;html=1;" parent="1" vertex="1">
          <mxGeometry x="403" y="355" width="10" height="10" as="geometry" />
        </mxCell>
        <mxCell id="AxAOXHXbwmsmabOcH6BD-16" value="" style="endArrow=none;html=1;rounded=0;exitX=1;exitY=1;exitDx=0;exitDy=0;entryX=0;entryY=0;entryDx=0;entryDy=15;entryPerimeter=0;" parent="1" source="AxAOXHXbwmsmabOcH6BD-15" target="WdK_SFn7svs-GRjPZrlo-3" edge="1">
          <mxGeometry width="50" height="50" relative="1" as="geometry">
            <mxPoint x="412.9999999999998" y="355" as="sourcePoint" />
            <mxPoint x="453" y="360" as="targetPoint" />
          </mxGeometry>
        </mxCell>
        <mxCell id="AxAOXHXbwmsmabOcH6BD-17" value="" style="endArrow=halfCircle;html=1;rounded=0;exitX=1;exitY=0.5;exitDx=0;exitDy=0;entryX=0;entryY=0.5;entryDx=0;entryDy=0;endFill=0;" parent="1" source="WdK_SFn7svs-GRjPZrlo-7" target="AxAOXHXbwmsmabOcH6BD-15" edge="1">
          <mxGeometry width="50" height="50" relative="1" as="geometry">
            <mxPoint x="333" y="520" as="sourcePoint" />
            <mxPoint x="402.9999999999998" y="355" as="targetPoint" />
          </mxGeometry>
        </mxCell>
        <mxCell id="AxAOXHXbwmsmabOcH6BD-18" value="" style="ellipse;whiteSpace=wrap;html=1;" parent="1" vertex="1">
          <mxGeometry x="403" y="460" width="10" height="10" as="geometry" />
        </mxCell>
        <mxCell id="AxAOXHXbwmsmabOcH6BD-19" value="" style="endArrow=none;html=1;rounded=0;exitX=1;exitY=0.5;exitDx=0;exitDy=0;entryX=0;entryY=0.5;entryDx=0;entryDy=0;" parent="1" source="WdK_SFn7svs-GRjPZrlo-7" target="AxAOXHXbwmsmabOcH6BD-18" edge="1">
          <mxGeometry width="50" height="50" relative="1" as="geometry">
            <mxPoint x="333" y="520" as="sourcePoint" />
            <mxPoint x="568" y="430" as="targetPoint" />
          </mxGeometry>
        </mxCell>
        <mxCell id="AxAOXHXbwmsmabOcH6BD-20" value="" style="endArrow=halfCircle;html=1;rounded=0;entryX=1;entryY=0.5;entryDx=0;entryDy=0;exitX=0;exitY=0;exitDx=0;exitDy=35;exitPerimeter=0;endFill=0;" parent="1" source="WdK_SFn7svs-GRjPZrlo-3" target="AxAOXHXbwmsmabOcH6BD-18" edge="1">
          <mxGeometry width="50" height="50" relative="1" as="geometry">
            <mxPoint x="453" y="360" as="sourcePoint" />
            <mxPoint x="568" y="430" as="targetPoint" />
          </mxGeometry>
        </mxCell>
        <mxCell id="AxAOXHXbwmsmabOcH6BD-22" value="" style="ellipse;whiteSpace=wrap;html=1;" parent="1" vertex="1">
          <mxGeometry x="773" y="355" width="10" height="10" as="geometry" />
        </mxCell>
        <mxCell id="AxAOXHXbwmsmabOcH6BD-23" value="" style="endArrow=none;html=1;rounded=0;exitX=1;exitY=1;exitDx=0;exitDy=0;entryX=0;entryY=0;entryDx=0;entryDy=15;entryPerimeter=0;" parent="1" source="AxAOXHXbwmsmabOcH6BD-22" target="WdK_SFn7svs-GRjPZrlo-4" edge="1">
          <mxGeometry width="50" height="50" relative="1" as="geometry">
            <mxPoint x="782.9999999999345" y="355" as="sourcePoint" />
            <mxPoint x="893" y="325" as="targetPoint" />
          </mxGeometry>
        </mxCell>
        <mxCell id="AxAOXHXbwmsmabOcH6BD-24" value="" style="endArrow=halfCircle;html=1;rounded=0;exitX=1;exitY=0.5;exitDx=0;exitDy=0;entryX=0;entryY=1;entryDx=0;entryDy=0;endFill=0;" parent="1" source="WdK_SFn7svs-GRjPZrlo-3" target="AxAOXHXbwmsmabOcH6BD-22" edge="1">
          <mxGeometry width="50" height="50" relative="1" as="geometry">
            <mxPoint x="623" y="336" as="sourcePoint" />
            <mxPoint x="773.0000000000659" y="355" as="targetPoint" />
          </mxGeometry>
        </mxCell>
        <mxCell id="AxAOXHXbwmsmabOcH6BD-25" value="" style="ellipse;whiteSpace=wrap;html=1;" parent="1" vertex="1">
          <mxGeometry x="773" y="460" width="10" height="10" as="geometry" />
        </mxCell>
        <mxCell id="AxAOXHXbwmsmabOcH6BD-26" value="" style="endArrow=none;html=1;rounded=0;exitX=1;exitY=0.5;exitDx=0;exitDy=0;entryX=0;entryY=0.5;entryDx=0;entryDy=0;" parent="1" source="WdK_SFn7svs-GRjPZrlo-3" target="AxAOXHXbwmsmabOcH6BD-25" edge="1">
          <mxGeometry width="50" height="50" relative="1" as="geometry">
            <mxPoint x="623" y="336" as="sourcePoint" />
            <mxPoint x="928" y="361" as="targetPoint" />
          </mxGeometry>
        </mxCell>
        <mxCell id="AxAOXHXbwmsmabOcH6BD-27" value="" style="endArrow=halfCircle;html=1;rounded=0;entryX=1;entryY=0.5;entryDx=0;entryDy=0;exitX=0;exitY=0;exitDx=0;exitDy=35;exitPerimeter=0;endFill=0;" parent="1" source="WdK_SFn7svs-GRjPZrlo-4" target="AxAOXHXbwmsmabOcH6BD-25" edge="1">
          <mxGeometry width="50" height="50" relative="1" as="geometry">
            <mxPoint x="893" y="345" as="sourcePoint" />
            <mxPoint x="928" y="361" as="targetPoint" />
          </mxGeometry>
        </mxCell>
        <mxCell id="AxAOXHXbwmsmabOcH6BD-29" value="" style="ellipse;whiteSpace=wrap;html=1;" parent="1" vertex="1">
          <mxGeometry x="923" y="110" width="10" height="10" as="geometry" />
        </mxCell>
        <mxCell id="AxAOXHXbwmsmabOcH6BD-30" value="" style="endArrow=none;html=1;rounded=0;entryX=0;entryY=0.5;entryDx=0;entryDy=0;exitX=1;exitY=0.5;exitDx=0;exitDy=0;" parent="1" source="WdK_SFn7svs-GRjPZrlo-1" target="AxAOXHXbwmsmabOcH6BD-29" edge="1">
          <mxGeometry width="50" height="50" relative="1" as="geometry">
            <mxPoint x="643" y="180" as="sourcePoint" />
            <mxPoint x="693" y="130" as="targetPoint" />
          </mxGeometry>
        </mxCell>
        <mxCell id="AxAOXHXbwmsmabOcH6BD-31" value="" style="endArrow=halfCircle;html=1;rounded=0;exitX=0.092;exitY=0.498;exitDx=0;exitDy=0;exitPerimeter=0;entryX=1;entryY=0.5;entryDx=0;entryDy=0;endFill=0;" parent="1" source="WdK_SFn7svs-GRjPZrlo-2" target="AxAOXHXbwmsmabOcH6BD-29" edge="1">
          <mxGeometry width="50" height="50" relative="1" as="geometry">
            <mxPoint x="643" y="180" as="sourcePoint" />
            <mxPoint x="693" y="130" as="targetPoint" />
          </mxGeometry>
        </mxCell>
        <mxCell id="AxAOXHXbwmsmabOcH6BD-32" value="" style="endArrow=none;html=1;rounded=0;entryX=0.5;entryY=1;entryDx=0;entryDy=0;exitX=1;exitY=0;exitDx=0;exitDy=0;" parent="1" source="AxAOXHXbwmsmabOcH6BD-33" target="WdK_SFn7svs-GRjPZrlo-2" edge="1">
          <mxGeometry width="50" height="50" relative="1" as="geometry">
            <mxPoint x="1008" y="254" as="sourcePoint" />
            <mxPoint x="963" y="174" as="targetPoint" />
          </mxGeometry>
        </mxCell>
        <mxCell id="AxAOXHXbwmsmabOcH6BD-33" value="" style="ellipse;whiteSpace=wrap;html=1;" parent="1" vertex="1">
          <mxGeometry x="1023" y="250" width="10" height="10" as="geometry" />
        </mxCell>
        <mxCell id="AxAOXHXbwmsmabOcH6BD-34" value="" style="endArrow=halfCircle;html=1;rounded=0;exitX=0.5;exitY=0;exitDx=0;exitDy=0;entryX=0;entryY=1;entryDx=0;entryDy=0;endFill=0;" parent="1" source="WdK_SFn7svs-GRjPZrlo-4" target="AxAOXHXbwmsmabOcH6BD-33" edge="1">
          <mxGeometry width="50" height="50" relative="1" as="geometry">
            <mxPoint x="1033" y="334" as="sourcePoint" />
            <mxPoint x="1488" y="314" as="targetPoint" />
          </mxGeometry>
        </mxCell>
        <mxCell id="AxAOXHXbwmsmabOcH6BD-35" value="" style="ellipse;whiteSpace=wrap;html=1;" parent="1" vertex="1">
          <mxGeometry x="858" y="250" width="10" height="10" as="geometry" />
        </mxCell>
        <mxCell id="AxAOXHXbwmsmabOcH6BD-36" value="" style="endArrow=none;html=1;rounded=0;exitX=0.5;exitY=0;exitDx=0;exitDy=0;entryX=1;entryY=1;entryDx=0;entryDy=0;" parent="1" source="WdK_SFn7svs-GRjPZrlo-4" target="AxAOXHXbwmsmabOcH6BD-35" edge="1">
          <mxGeometry width="50" height="50" relative="1" as="geometry">
            <mxPoint x="1033" y="334" as="sourcePoint" />
            <mxPoint x="1268" y="244" as="targetPoint" />
          </mxGeometry>
        </mxCell>
        <mxCell id="AxAOXHXbwmsmabOcH6BD-37" value="" style="endArrow=halfCircle;html=1;rounded=0;exitX=0.5;exitY=1;exitDx=0;exitDy=0;entryX=0;entryY=0;entryDx=0;entryDy=0;endFill=0;" parent="1" source="WdK_SFn7svs-GRjPZrlo-1" target="AxAOXHXbwmsmabOcH6BD-35" edge="1">
          <mxGeometry width="50" height="50" relative="1" as="geometry">
            <mxPoint x="1153" y="174" as="sourcePoint" />
            <mxPoint x="1268" y="244" as="targetPoint" />
          </mxGeometry>
        </mxCell>
        <mxCell id="AxAOXHXbwmsmabOcH6BD-47" value="&lt;p style=&quot;margin-top: 0pt; margin-bottom: 0pt; margin-left: 0in; direction: ltr; unicode-bidi: embed; font-size: 9px;&quot;&gt;&lt;/p&gt;&lt;b&gt;센서 값&lt;/b&gt;&lt;p style=&quot;margin-top: 0pt; margin-bottom: 0pt; margin-left: 0in; direction: ltr; unicode-bidi: embed; font-size: 9px;&quot;&gt;&lt;font face=&quot;맑은 고딕&quot; style=&quot;font-size: 9px;&quot;&gt;&lt;span style=&quot;font-size: 9px;&quot;&gt;(&lt;/span&gt;&lt;span style=&quot;font-size: 9px;&quot;&gt;온도&lt;/span&gt;&lt;span style=&quot;font-size: 9px;&quot;&gt;, &lt;/span&gt;&lt;span style=&quot;font-size: 9px;&quot;&gt;습도&lt;/span&gt;&lt;span style=&quot;font-size: 9px;&quot;&gt;, &lt;/span&gt;&lt;span style=&quot;font-size: 9px;&quot;&gt;조도&lt;/span&gt;&lt;span style=&quot;font-size: 9px;&quot;&gt;, &lt;/span&gt;&lt;span style=&quot;font-size: 9px;&quot;&gt;토양 습도&lt;/span&gt;&lt;span style=&quot;font-size: 9px;&quot;&gt;,&lt;/span&gt;&lt;/font&gt;&lt;/p&gt;&lt;font face=&quot;맑은 고딕&quot; style=&quot;font-size: 9px;&quot;&gt;&lt;font style=&quot;font-size: 9px;&quot;&gt;이산화탄소&lt;span style=&quot;border-color: var(--border-color); font-size: 9px;&quot;&gt;,&amp;nbsp;&lt;/span&gt;&lt;/font&gt;&lt;span style=&quot;border-color: var(--border-color); font-size: 9px;&quot;&gt;공기질&lt;/span&gt;&lt;span style=&quot;border-color: var(--border-color); font-size: 9px;&quot;&gt;,&amp;nbsp;&lt;/span&gt;&lt;span style=&quot;border-color: var(--border-color); font-size: 9px;&quot;&gt;인체 모션&lt;/span&gt;&lt;span style=&quot;border-color: var(--border-color); font-size: 9px;&quot;&gt;, RGB LED)&lt;/span&gt;&lt;/font&gt;" style="text;strokeColor=none;align=center;fillColor=none;html=1;verticalAlign=middle;whiteSpace=wrap;rounded=0;fontSize=9;" parent="1" vertex="1">
          <mxGeometry x="10" y="200" width="180" height="50" as="geometry" />
        </mxCell>
        <mxCell id="AxAOXHXbwmsmabOcH6BD-48" value="&lt;p style=&quot;margin-top: 0pt; margin-bottom: 0pt; margin-left: 0in; direction: ltr; unicode-bidi: embed; font-size: 9px;&quot;&gt;&lt;/p&gt;&lt;b&gt;센서 값&lt;/b&gt;&lt;p style=&quot;margin-top: 0pt; margin-bottom: 0pt; margin-left: 0in; direction: ltr; unicode-bidi: embed; font-size: 9px;&quot;&gt;&lt;font face=&quot;맑은 고딕&quot; style=&quot;font-size: 9px;&quot;&gt;&lt;span style=&quot;font-size: 9px;&quot;&gt;(&lt;/span&gt;&lt;span style=&quot;font-size: 9px;&quot;&gt;온도&lt;/span&gt;&lt;span style=&quot;font-size: 9px;&quot;&gt;, &lt;/span&gt;&lt;span style=&quot;font-size: 9px;&quot;&gt;습도&lt;/span&gt;&lt;span style=&quot;font-size: 9px;&quot;&gt;, &lt;/span&gt;&lt;span style=&quot;font-size: 9px;&quot;&gt;조도&lt;/span&gt;&lt;span style=&quot;font-size: 9px;&quot;&gt;, &lt;/span&gt;&lt;span style=&quot;font-size: 9px;&quot;&gt;토양 습도&lt;/span&gt;&lt;span style=&quot;font-size: 9px;&quot;&gt;,&lt;/span&gt;&lt;/font&gt;&lt;/p&gt;&lt;font face=&quot;맑은 고딕&quot; style=&quot;font-size: 9px;&quot;&gt;&lt;font style=&quot;font-size: 9px;&quot;&gt;이산화탄소&lt;span style=&quot;border-color: var(--border-color); font-size: 9px;&quot;&gt;,&amp;nbsp;&lt;/span&gt;&lt;/font&gt;&lt;span style=&quot;border-color: var(--border-color); font-size: 9px;&quot;&gt;공기질&lt;/span&gt;&lt;span style=&quot;border-color: var(--border-color); font-size: 9px;&quot;&gt;,&amp;nbsp;&lt;/span&gt;&lt;span style=&quot;border-color: var(--border-color); font-size: 9px;&quot;&gt;인체 모션&lt;/span&gt;&lt;span style=&quot;border-color: var(--border-color); font-size: 9px;&quot;&gt;, RGB LED)&lt;br&gt;&lt;b&gt;작동 장치 작동 상태&lt;/b&gt;&lt;br&gt;(0 - 끔, 1 - 켬)&lt;br&gt;&lt;/span&gt;&lt;/font&gt;" style="text;strokeColor=none;align=center;fillColor=none;html=1;verticalAlign=middle;whiteSpace=wrap;rounded=0;fontSize=9;" parent="1" vertex="1">
          <mxGeometry x="308" y="291" width="200" height="60" as="geometry" />
        </mxCell>
        <mxCell id="AxAOXHXbwmsmabOcH6BD-49" value="&lt;p style=&quot;margin-top: 0pt; margin-bottom: 0pt; margin-left: 0in; direction: ltr; unicode-bidi: embed; font-size: 9px;&quot;&gt;&lt;/p&gt;&lt;b&gt;센서 값&lt;/b&gt;&lt;p style=&quot;margin-top: 0pt; margin-bottom: 0pt; margin-left: 0in; direction: ltr; unicode-bidi: embed; font-size: 9px;&quot;&gt;&lt;font face=&quot;맑은 고딕&quot; style=&quot;font-size: 9px;&quot;&gt;&lt;span style=&quot;font-size: 9px;&quot;&gt;(&lt;/span&gt;&lt;span style=&quot;font-size: 9px;&quot;&gt;온도&lt;/span&gt;&lt;span style=&quot;font-size: 9px;&quot;&gt;, &lt;/span&gt;&lt;span style=&quot;font-size: 9px;&quot;&gt;습도&lt;/span&gt;&lt;span style=&quot;font-size: 9px;&quot;&gt;, &lt;/span&gt;&lt;span style=&quot;font-size: 9px;&quot;&gt;조도&lt;/span&gt;&lt;span style=&quot;font-size: 9px;&quot;&gt;, &lt;/span&gt;&lt;span style=&quot;font-size: 9px;&quot;&gt;토양 습도&lt;/span&gt;&lt;span style=&quot;font-size: 9px;&quot;&gt;,&lt;/span&gt;&lt;/font&gt;&lt;/p&gt;&lt;font face=&quot;맑은 고딕&quot; style=&quot;font-size: 9px;&quot;&gt;&lt;font style=&quot;font-size: 9px;&quot;&gt;이산화탄소&lt;span style=&quot;border-color: var(--border-color); font-size: 9px;&quot;&gt;,&amp;nbsp;&lt;/span&gt;&lt;/font&gt;&lt;span style=&quot;border-color: var(--border-color); font-size: 9px;&quot;&gt;공기질&lt;/span&gt;&lt;span style=&quot;border-color: var(--border-color); font-size: 9px;&quot;&gt;,&amp;nbsp;&lt;/span&gt;&lt;span style=&quot;border-color: var(--border-color); font-size: 9px;&quot;&gt;인체 모션&lt;/span&gt;&lt;span style=&quot;border-color: var(--border-color); font-size: 9px;&quot;&gt;, RGB LED)&lt;br&gt;&lt;b&gt;작동 장치 작동 상태&lt;/b&gt;&lt;br&gt;(0 - 끔, 1 - 켬)&lt;br&gt;&lt;/span&gt;&lt;/font&gt;" style="text;strokeColor=none;align=center;fillColor=none;html=1;verticalAlign=middle;whiteSpace=wrap;rounded=0;fontSize=9;" parent="1" vertex="1">
          <mxGeometry x="678" y="475" width="200" height="60" as="geometry" />
        </mxCell>
        <mxCell id="AxAOXHXbwmsmabOcH6BD-50" value="&lt;p style=&quot;margin-top: 0pt; margin-bottom: 0pt; margin-left: 0in; direction: ltr; unicode-bidi: embed; font-size: 9px;&quot;&gt;&lt;/p&gt;&lt;b&gt;센서 값&lt;/b&gt;&lt;p style=&quot;margin-top: 0pt; margin-bottom: 0pt; margin-left: 0in; direction: ltr; unicode-bidi: embed; font-size: 9px;&quot;&gt;&lt;font face=&quot;맑은 고딕&quot; style=&quot;font-size: 9px;&quot;&gt;&lt;span style=&quot;font-size: 9px;&quot;&gt;(&lt;/span&gt;&lt;span style=&quot;font-size: 9px;&quot;&gt;온도&lt;/span&gt;&lt;span style=&quot;font-size: 9px;&quot;&gt;, &lt;/span&gt;&lt;span style=&quot;font-size: 9px;&quot;&gt;습도&lt;/span&gt;&lt;span style=&quot;font-size: 9px;&quot;&gt;, &lt;/span&gt;&lt;span style=&quot;font-size: 9px;&quot;&gt;조도&lt;/span&gt;&lt;span style=&quot;font-size: 9px;&quot;&gt;, &lt;/span&gt;&lt;span style=&quot;font-size: 9px;&quot;&gt;토양 습도&lt;/span&gt;&lt;span style=&quot;font-size: 9px;&quot;&gt;,&lt;/span&gt;&lt;/font&gt;&lt;/p&gt;&lt;font face=&quot;맑은 고딕&quot; style=&quot;font-size: 9px;&quot;&gt;&lt;font style=&quot;font-size: 9px;&quot;&gt;이산화탄소&lt;span style=&quot;border-color: var(--border-color); font-size: 9px;&quot;&gt;,&amp;nbsp;&lt;/span&gt;&lt;/font&gt;&lt;span style=&quot;border-color: var(--border-color); font-size: 9px;&quot;&gt;공기질&lt;/span&gt;&lt;span style=&quot;border-color: var(--border-color); font-size: 9px;&quot;&gt;,&amp;nbsp;&lt;/span&gt;&lt;span style=&quot;border-color: var(--border-color); font-size: 9px;&quot;&gt;인체 모션&lt;/span&gt;&lt;span style=&quot;border-color: var(--border-color); font-size: 9px;&quot;&gt;, RGB LED)&lt;br&gt;&lt;b&gt;작동 장치 작동 상태&lt;/b&gt;&lt;br&gt;(0 - 끔, 1 - 켬)&lt;br&gt;&lt;/span&gt;&lt;/font&gt;" style="text;strokeColor=none;align=center;fillColor=none;html=1;verticalAlign=middle;whiteSpace=wrap;rounded=0;fontSize=9;" parent="1" vertex="1">
          <mxGeometry x="668" y="225" width="200" height="60" as="geometry" />
        </mxCell>
        <mxCell id="AxAOXHXbwmsmabOcH6BD-52" value="&lt;p style=&quot;margin-top: 0pt; margin-bottom: 0pt; margin-left: 0in; direction: ltr; unicode-bidi: embed; font-size: 9px;&quot;&gt;&lt;/p&gt;&lt;b style=&quot;border-color: var(--border-color); font-family: &amp;quot;맑은 고딕&amp;quot;;&quot;&gt;작동 장치 제어 명령&lt;/b&gt;&lt;br style=&quot;border-color: var(--border-color); font-family: &amp;quot;맑은 고딕&amp;quot;;&quot;&gt;(0 - 끔, 1 - 켬)" style="text;strokeColor=none;align=center;fillColor=none;html=1;verticalAlign=middle;whiteSpace=wrap;rounded=0;fontSize=9;" parent="1" vertex="1">
          <mxGeometry x="210" y="195" width="120" height="30" as="geometry" />
        </mxCell>
        <mxCell id="AxAOXHXbwmsmabOcH6BD-53" value="&lt;p style=&quot;margin-top: 0pt; margin-bottom: 0pt; margin-left: 0in; direction: ltr; unicode-bidi: embed; font-size: 9px;&quot;&gt;&lt;/p&gt;&lt;b style=&quot;border-color: var(--border-color); font-family: &amp;quot;맑은 고딕&amp;quot;;&quot;&gt;작동 장치 작동 상태&lt;/b&gt;&lt;br style=&quot;border-color: var(--border-color); font-family: &amp;quot;맑은 고딕&amp;quot;;&quot;&gt;(0 - 끔, 1 - 켬)" style="text;strokeColor=none;align=center;fillColor=none;html=1;verticalAlign=middle;whiteSpace=wrap;rounded=0;fontSize=9;" parent="1" vertex="1">
          <mxGeometry x="330" y="240" width="120" height="30" as="geometry" />
        </mxCell>
        <mxCell id="AxAOXHXbwmsmabOcH6BD-54" value="&lt;p style=&quot;margin-top: 0pt; margin-bottom: 0pt; margin-left: 0in; direction: ltr; unicode-bidi: embed; font-size: 9px;&quot;&gt;&lt;/p&gt;&lt;b style=&quot;border-color: var(--border-color); font-family: &amp;quot;맑은 고딕&amp;quot;;&quot;&gt;작동 장치 제어 명령&lt;/b&gt;&lt;br style=&quot;border-color: var(--border-color); font-family: &amp;quot;맑은 고딕&amp;quot;;&quot;&gt;(0 - 끔, 1 - 켬)" style="text;strokeColor=none;align=center;fillColor=none;html=1;verticalAlign=middle;whiteSpace=wrap;rounded=0;fontSize=9;" parent="1" vertex="1">
          <mxGeometry x="348" y="475" width="120" height="30" as="geometry" />
        </mxCell>
        <mxCell id="AxAOXHXbwmsmabOcH6BD-55" value="&lt;p style=&quot;margin-top: 0pt; margin-bottom: 0pt; margin-left: 0in; direction: ltr; unicode-bidi: embed; font-size: 9px;&quot;&gt;&lt;/p&gt;&lt;b style=&quot;border-color: var(--border-color); font-family: &amp;quot;맑은 고딕&amp;quot;;&quot;&gt;작동 장치 제어 명령&lt;/b&gt;&lt;br style=&quot;border-color: var(--border-color); font-family: &amp;quot;맑은 고딕&amp;quot;;&quot;&gt;(0 - 끔, 1 - 켬)" style="text;strokeColor=none;align=center;fillColor=none;html=1;verticalAlign=middle;whiteSpace=wrap;rounded=0;fontSize=9;" parent="1" vertex="1">
          <mxGeometry x="868" y="80" width="120" height="30" as="geometry" />
        </mxCell>
        <mxCell id="AxAOXHXbwmsmabOcH6BD-56" value="&lt;p style=&quot;margin-top: 0pt; margin-bottom: 0pt; margin-left: 0in; direction: ltr; unicode-bidi: embed; font-size: 9px;&quot;&gt;&lt;/p&gt;&lt;b style=&quot;border-color: var(--border-color); font-family: &amp;quot;맑은 고딕&amp;quot;;&quot;&gt;작동 장치 제어 명령&lt;/b&gt;&lt;br style=&quot;border-color: var(--border-color); font-family: &amp;quot;맑은 고딕&amp;quot;;&quot;&gt;(0 - 끔, 1 - 켬)" style="text;strokeColor=none;align=center;fillColor=none;html=1;verticalAlign=middle;whiteSpace=wrap;rounded=0;fontSize=9;" parent="1" vertex="1">
          <mxGeometry x="1023" y="250" width="120" height="30" as="geometry" />
        </mxCell>
        <mxCell id="AxAOXHXbwmsmabOcH6BD-57" value="&lt;p style=&quot;margin-top: 0pt; margin-bottom: 0pt; margin-left: 0in; direction: ltr; unicode-bidi: embed; font-size: 9px;&quot;&gt;&lt;/p&gt;&lt;b style=&quot;border-color: var(--border-color); font-family: &amp;quot;맑은 고딕&amp;quot;;&quot;&gt;작동 장치 제어 명령&lt;/b&gt;&lt;br style=&quot;border-color: var(--border-color); font-family: &amp;quot;맑은 고딕&amp;quot;;&quot;&gt;(0 - 끔, 1 - 켬)" style="text;strokeColor=none;align=center;fillColor=none;html=1;verticalAlign=middle;whiteSpace=wrap;rounded=0;fontSize=9;" parent="1" vertex="1">
          <mxGeometry x="718" y="321" width="120" height="30" as="geometry" />
        </mxCell>
        <mxCell id="7cRbhmp89BHnN9N3VSou-1" value="&lt;p style=&quot;margin-top: 0pt; margin-bottom: 0pt; margin-left: 0in; direction: ltr; unicode-bidi: embed; font-size: 9px;&quot;&gt;&lt;/p&gt;&lt;font face=&quot;맑은 고딕&quot; style=&quot;font-size: 9px;&quot;&gt;&lt;div style=&quot;text-align: left;&quot;&gt;farm/json&lt;/div&gt;&lt;div style=&quot;font-weight: bold; text-align: left;&quot;&gt;&lt;span style=&quot;background-color: initial;&quot;&gt;{&lt;/span&gt;&lt;/div&gt;&lt;span style=&quot;font-weight: bold; border-color: var(--border-color); font-size: 9px;&quot;&gt;&lt;div style=&quot;text-align: left;&quot;&gt;&lt;span style=&quot;background-color: initial;&quot;&gt;&lt;span style=&quot;white-space: pre;&quot;&gt;&#x9;&lt;/span&gt;&quot;Sensor&quot;: {&lt;/span&gt;&lt;/div&gt;&lt;div style=&quot;text-align: left;&quot;&gt;&lt;span style=&quot;background-color: initial;&quot;&gt;&lt;span style=&quot;white-space: pre;&quot;&gt;&#x9;&lt;/span&gt;&lt;span style=&quot;white-space: pre;&quot;&gt;&#x9;&lt;/span&gt;&quot;temperature&quot;:24, &quot;humidity&quot;:46,&lt;/span&gt;&lt;/div&gt;&lt;div style=&quot;text-align: left;&quot;&gt;&lt;span style=&quot;background-color: initial;&quot;&gt;&lt;span style=&quot;white-space: pre;&quot;&gt;&#x9;&lt;/span&gt;&lt;span style=&quot;white-space: pre;&quot;&gt;&#x9;&lt;/span&gt;&quot;illuminance&quot;:8, &quot;soilhumidity&quot;:93&lt;/span&gt;&lt;/div&gt;&lt;div style=&quot;text-align: left;&quot;&gt;&lt;span style=&quot;background-color: initial;&quot;&gt;&lt;span style=&quot;white-space: pre;&quot;&gt;&lt;span style=&quot;white-space: pre;&quot;&gt;&#x9;&lt;/span&gt;&lt;/span&gt;},&lt;/span&gt;&lt;/div&gt;&lt;span style=&quot;white-space: pre;&quot;&gt;&lt;div style=&quot;text-align: left;&quot;&gt;&lt;span style=&quot;background-color: initial; white-space: normal;&quot;&gt;&lt;span style=&quot;white-space: pre;&quot;&gt;&#x9;&lt;/span&gt;&quot;Actuator&quot;: {&lt;/span&gt;&lt;/div&gt;&lt;/span&gt;&lt;span style=&quot;white-space: pre;&quot;&gt;&lt;div style=&quot;text-align: left;&quot;&gt;&lt;span style=&quot;background-color: initial; white-space: normal;&quot;&gt;&lt;span style=&quot;white-space: pre;&quot;&gt;&#x9;&lt;span style=&quot;white-space: pre;&quot;&gt;&#x9;&lt;/span&gt;&lt;/span&gt;&quot;led&quot;:1, &quot;fan&quot;:1, &quot;pump&quot;:0, &quot;window&quot;:0&lt;/span&gt;&lt;/div&gt;&lt;/span&gt;&lt;span style=&quot;white-space: pre;&quot;&gt;&lt;div style=&quot;text-align: left;&quot;&gt;&lt;span style=&quot;background-color: initial; white-space: normal;&quot;&gt;&lt;span style=&quot;white-space: pre;&quot;&gt;&#x9;&lt;/span&gt;}&lt;/span&gt;&lt;/div&gt;&lt;/span&gt;&lt;div style=&quot;text-align: left;&quot;&gt;&lt;span style=&quot;background-color: initial;&quot;&gt;}&lt;/span&gt;&lt;/div&gt;&lt;/span&gt;&lt;/font&gt;" style="text;strokeColor=none;align=center;fillColor=none;html=1;verticalAlign=middle;whiteSpace=wrap;rounded=0;fontSize=9;" parent="1" vertex="1">
          <mxGeometry x="320" y="630" width="257" height="150" as="geometry" />
        </mxCell>
        <mxCell id="7cRbhmp89BHnN9N3VSou-2" value="&lt;font face=&quot;맑은 고딕&quot; style=&quot;font-size: 11px;&quot;&gt;&lt;b style=&quot;font-size: 11px;&quot;&gt;센서 및 작동 장치 작동 상태&lt;br style=&quot;font-size: 11px;&quot;&gt;&lt;/b&gt;&lt;/font&gt;토픽 메세지 예시&lt;br style=&quot;font-size: 11px;&quot;&gt;&lt;p style=&quot;margin-top: 0pt; margin-bottom: 0pt; margin-left: 0in; direction: ltr; unicode-bidi: embed; font-size: 11px;&quot;&gt;&lt;/p&gt;" style="text;strokeColor=none;align=center;fillColor=none;html=1;verticalAlign=middle;whiteSpace=wrap;rounded=0;fontSize=11;strokeWidth=1;" parent="1" vertex="1">
          <mxGeometry x="371" y="610" width="155" height="30" as="geometry" />
        </mxCell>
        <mxCell id="7cRbhmp89BHnN9N3VSou-4" value="&lt;p style=&quot;margin-top: 0pt; margin-bottom: 0pt; margin-left: 0in; direction: ltr; unicode-bidi: embed; font-size: 9px;&quot;&gt;&lt;/p&gt;&lt;font face=&quot;맑은 고딕&quot; style=&quot;font-size: 9px;&quot;&gt;&lt;div style=&quot;text-align: left;&quot;&gt;farm/actuator/window&amp;nbsp;&lt;b&gt;1&lt;/b&gt;&lt;/div&gt;&lt;div style=&quot;text-align: left;&quot;&gt;farm/actuator/led&amp;nbsp;&lt;b&gt;0&lt;/b&gt;&lt;br&gt;&lt;/div&gt;&lt;div style=&quot;text-align: left;&quot;&gt;farm/actuator/fan&amp;nbsp;&lt;b&gt;1&lt;/b&gt;&lt;br&gt;&lt;/div&gt;&lt;div style=&quot;text-align: left;&quot;&gt;farm/actuator/pump&amp;nbsp;&lt;b&gt;0&lt;/b&gt;&lt;br&gt;&lt;/div&gt;&lt;/font&gt;" style="text;strokeColor=none;align=center;fillColor=none;html=1;verticalAlign=middle;whiteSpace=wrap;rounded=0;fontSize=9;" parent="1" vertex="1">
          <mxGeometry x="592" y="630" width="257" height="150" as="geometry" />
        </mxCell>
        <mxCell id="7cRbhmp89BHnN9N3VSou-5" value="&lt;font face=&quot;맑은 고딕&quot; style=&quot;font-size: 11px;&quot;&gt;&lt;b style=&quot;font-size: 11px;&quot;&gt;작동 장치 제어 명령&lt;br style=&quot;font-size: 11px;&quot;&gt;&lt;/b&gt;&lt;/font&gt;토픽 메세지 예시&lt;br style=&quot;font-size: 11px;&quot;&gt;&lt;p style=&quot;margin-top: 0pt; margin-bottom: 0pt; margin-left: 0in; direction: ltr; unicode-bidi: embed; font-size: 11px;&quot;&gt;&lt;/p&gt;" style="text;strokeColor=none;align=center;fillColor=none;html=1;verticalAlign=middle;whiteSpace=wrap;rounded=0;fontSize=11;strokeWidth=1;" parent="1" vertex="1">
          <mxGeometry x="649" y="610" width="155" height="30" as="geometry" />
        </mxCell>
        <mxCell id="7cRbhmp89BHnN9N3VSou-13" value="*&amp;nbsp; : 발행/구독 토픽명&amp;nbsp;&lt;b style=&quot;border-color: var(--border-color); font-family: &amp;quot;맑은 고딕&amp;quot;;&quot;&gt;메세지&lt;/b&gt;&lt;br style=&quot;font-size: 11px;&quot;&gt;&lt;p style=&quot;margin-top: 0pt; margin-bottom: 0pt; margin-left: 0in; direction: ltr; unicode-bidi: embed; font-size: 11px;&quot;&gt;&lt;/p&gt;" style="text;strokeColor=none;align=right;fillColor=none;html=1;verticalAlign=middle;whiteSpace=wrap;rounded=0;fontSize=11;strokeWidth=1;" parent="1" vertex="1">
          <mxGeometry x="670" y="770" width="177" height="30" as="geometry" />
        </mxCell>
      </root>
    </mxGraphModel>
  </diagram>
  <diagram id="fA6_ftE5iaHKcqoyUSdr" name="Sequence">
    <mxGraphModel dx="5145" dy="2950" grid="1" gridSize="10" guides="1" tooltips="1" connect="1" arrows="1" fold="1" page="1" pageScale="1" pageWidth="1169" pageHeight="827" math="0" shadow="0">
      <root>
        <mxCell id="0" />
        <mxCell id="1" parent="0" />
        <mxCell id="zJpWgVrRwI8CpKpm4MUV-1" value=":User" style="shape=umlLifeline;perimeter=lifelinePerimeter;whiteSpace=wrap;html=1;container=1;dropTarget=0;collapsible=0;recursiveResize=0;outlineConnect=0;portConstraint=eastwest;newEdgeStyle={&quot;edgeStyle&quot;:&quot;elbowEdgeStyle&quot;,&quot;elbow&quot;:&quot;vertical&quot;,&quot;curved&quot;:0,&quot;rounded&quot;:0};" parent="1" vertex="1">
          <mxGeometry x="174" y="240" width="100" height="300" as="geometry" />
        </mxCell>
        <mxCell id="_YEKrhLMnrgheXRXns0b-4" value="" style="html=1;points=[];perimeter=orthogonalPerimeter;outlineConnect=0;targetShapes=umlLifeline;portConstraint=eastwest;newEdgeStyle={&quot;edgeStyle&quot;:&quot;elbowEdgeStyle&quot;,&quot;elbow&quot;:&quot;vertical&quot;,&quot;curved&quot;:0,&quot;rounded&quot;:0};" parent="zJpWgVrRwI8CpKpm4MUV-1" vertex="1">
          <mxGeometry x="45" y="210" width="10" height="10" as="geometry" />
        </mxCell>
        <mxCell id="zJpWgVrRwI8CpKpm4MUV-2" value=":DB" style="shape=umlLifeline;perimeter=lifelinePerimeter;whiteSpace=wrap;html=1;container=1;dropTarget=0;collapsible=0;recursiveResize=0;outlineConnect=0;portConstraint=eastwest;newEdgeStyle={&quot;edgeStyle&quot;:&quot;elbowEdgeStyle&quot;,&quot;elbow&quot;:&quot;vertical&quot;,&quot;curved&quot;:0,&quot;rounded&quot;:0};" parent="1" vertex="1">
          <mxGeometry x="294" y="240" width="100" height="300" as="geometry" />
        </mxCell>
        <mxCell id="_YEKrhLMnrgheXRXns0b-6" value="" style="html=1;points=[];perimeter=orthogonalPerimeter;outlineConnect=0;targetShapes=umlLifeline;portConstraint=eastwest;newEdgeStyle={&quot;edgeStyle&quot;:&quot;elbowEdgeStyle&quot;,&quot;elbow&quot;:&quot;vertical&quot;,&quot;curved&quot;:0,&quot;rounded&quot;:0};" parent="zJpWgVrRwI8CpKpm4MUV-2" vertex="1">
          <mxGeometry x="46" y="230" width="10" height="20" as="geometry" />
        </mxCell>
        <mxCell id="_YEKrhLMnrgheXRXns0b-22" value="" style="html=1;points=[];perimeter=orthogonalPerimeter;outlineConnect=0;targetShapes=umlLifeline;portConstraint=eastwest;newEdgeStyle={&quot;edgeStyle&quot;:&quot;elbowEdgeStyle&quot;,&quot;elbow&quot;:&quot;vertical&quot;,&quot;curved&quot;:0,&quot;rounded&quot;:0};" parent="zJpWgVrRwI8CpKpm4MUV-2" vertex="1">
          <mxGeometry x="45" y="147" width="10" height="20" as="geometry" />
        </mxCell>
        <mxCell id="zJpWgVrRwI8CpKpm4MUV-3" value=":Web server" style="shape=umlLifeline;perimeter=lifelinePerimeter;whiteSpace=wrap;html=1;container=1;dropTarget=0;collapsible=0;recursiveResize=0;outlineConnect=0;portConstraint=eastwest;newEdgeStyle={&quot;edgeStyle&quot;:&quot;elbowEdgeStyle&quot;,&quot;elbow&quot;:&quot;vertical&quot;,&quot;curved&quot;:0,&quot;rounded&quot;:0};" parent="1" vertex="1">
          <mxGeometry x="414" y="240" width="100" height="300" as="geometry" />
        </mxCell>
        <mxCell id="_YEKrhLMnrgheXRXns0b-5" value="" style="html=1;points=[];perimeter=orthogonalPerimeter;outlineConnect=0;targetShapes=umlLifeline;portConstraint=eastwest;newEdgeStyle={&quot;edgeStyle&quot;:&quot;elbowEdgeStyle&quot;,&quot;elbow&quot;:&quot;vertical&quot;,&quot;curved&quot;:0,&quot;rounded&quot;:0};" parent="zJpWgVrRwI8CpKpm4MUV-3" vertex="1">
          <mxGeometry x="45" y="210" width="10" height="20" as="geometry" />
        </mxCell>
        <mxCell id="_YEKrhLMnrgheXRXns0b-10" value="" style="html=1;points=[];perimeter=orthogonalPerimeter;outlineConnect=0;targetShapes=umlLifeline;portConstraint=eastwest;newEdgeStyle={&quot;edgeStyle&quot;:&quot;elbowEdgeStyle&quot;,&quot;elbow&quot;:&quot;vertical&quot;,&quot;curved&quot;:0,&quot;rounded&quot;:0};" parent="zJpWgVrRwI8CpKpm4MUV-3" vertex="1">
          <mxGeometry x="45" y="250" width="10" height="20" as="geometry" />
        </mxCell>
        <mxCell id="_YEKrhLMnrgheXRXns0b-20" value="" style="html=1;points=[];perimeter=orthogonalPerimeter;outlineConnect=0;targetShapes=umlLifeline;portConstraint=eastwest;newEdgeStyle={&quot;edgeStyle&quot;:&quot;elbowEdgeStyle&quot;,&quot;elbow&quot;:&quot;vertical&quot;,&quot;curved&quot;:0,&quot;rounded&quot;:0};" parent="zJpWgVrRwI8CpKpm4MUV-3" vertex="1">
          <mxGeometry x="45" y="127" width="10" height="20" as="geometry" />
        </mxCell>
        <mxCell id="zJpWgVrRwI8CpKpm4MUV-4" value=":MQTT&lt;br&gt;Client" style="shape=umlLifeline;perimeter=lifelinePerimeter;whiteSpace=wrap;html=1;container=1;dropTarget=0;collapsible=0;recursiveResize=0;outlineConnect=0;portConstraint=eastwest;newEdgeStyle={&quot;edgeStyle&quot;:&quot;elbowEdgeStyle&quot;,&quot;elbow&quot;:&quot;vertical&quot;,&quot;curved&quot;:0,&quot;rounded&quot;:0};" parent="1" vertex="1">
          <mxGeometry x="534" y="240" width="100" height="300" as="geometry" />
        </mxCell>
        <mxCell id="_YEKrhLMnrgheXRXns0b-16" value="" style="html=1;points=[];perimeter=orthogonalPerimeter;outlineConnect=0;targetShapes=umlLifeline;portConstraint=eastwest;newEdgeStyle={&quot;edgeStyle&quot;:&quot;elbowEdgeStyle&quot;,&quot;elbow&quot;:&quot;vertical&quot;,&quot;curved&quot;:0,&quot;rounded&quot;:0};" parent="zJpWgVrRwI8CpKpm4MUV-4" vertex="1">
          <mxGeometry x="45" y="107" width="10" height="20" as="geometry" />
        </mxCell>
        <mxCell id="_YEKrhLMnrgheXRXns0b-21" value="&lt;font style=&quot;font-size: 8px;&quot;&gt;센서 데이터&lt;/font&gt;" style="html=1;verticalAlign=bottom;endArrow=open;dashed=1;endSize=8;edgeStyle=elbowEdgeStyle;elbow=vertical;curved=0;rounded=0;" parent="zJpWgVrRwI8CpKpm4MUV-4" edge="1">
          <mxGeometry relative="1" as="geometry">
            <mxPoint x="44" y="127" as="sourcePoint" />
            <mxPoint x="-65" y="127" as="targetPoint" />
          </mxGeometry>
        </mxCell>
        <mxCell id="zJpWgVrRwI8CpKpm4MUV-5" value=":MQTT&lt;br&gt;Broker" style="shape=umlLifeline;perimeter=lifelinePerimeter;whiteSpace=wrap;html=1;container=1;dropTarget=0;collapsible=0;recursiveResize=0;outlineConnect=0;portConstraint=eastwest;newEdgeStyle={&quot;edgeStyle&quot;:&quot;elbowEdgeStyle&quot;,&quot;elbow&quot;:&quot;vertical&quot;,&quot;curved&quot;:0,&quot;rounded&quot;:0};" parent="1" vertex="1">
          <mxGeometry x="654" y="240" width="100" height="300" as="geometry" />
        </mxCell>
        <mxCell id="_YEKrhLMnrgheXRXns0b-14" value="" style="html=1;points=[];perimeter=orthogonalPerimeter;outlineConnect=0;targetShapes=umlLifeline;portConstraint=eastwest;newEdgeStyle={&quot;edgeStyle&quot;:&quot;elbowEdgeStyle&quot;,&quot;elbow&quot;:&quot;vertical&quot;,&quot;curved&quot;:0,&quot;rounded&quot;:0};" parent="zJpWgVrRwI8CpKpm4MUV-5" vertex="1">
          <mxGeometry x="45" y="87" width="10" height="20" as="geometry" />
        </mxCell>
        <mxCell id="_YEKrhLMnrgheXRXns0b-15" value="&lt;font style=&quot;font-size: 8px;&quot;&gt;센서 데이터&lt;/font&gt;" style="html=1;verticalAlign=bottom;endArrow=open;dashed=1;endSize=8;edgeStyle=elbowEdgeStyle;elbow=vertical;curved=0;rounded=0;" parent="zJpWgVrRwI8CpKpm4MUV-5" target="_YEKrhLMnrgheXRXns0b-14" edge="1">
          <mxGeometry relative="1" as="geometry">
            <mxPoint x="165" y="88" as="sourcePoint" />
            <mxPoint x="80" y="88.19999999999999" as="targetPoint" />
          </mxGeometry>
        </mxCell>
        <mxCell id="zJpWgVrRwI8CpKpm4MUV-19" value="&lt;font style=&quot;font-size: 8px;&quot;&gt;1. 데이터 조회&lt;/font&gt;" style="html=1;verticalAlign=bottom;endArrow=none;edgeStyle=elbowEdgeStyle;elbow=vertical;curved=0;rounded=0;endFill=0;startArrow=open;startFill=0;" parent="1" target="_YEKrhLMnrgheXRXns0b-4" edge="1">
          <mxGeometry x="-0.0004" width="80" relative="1" as="geometry">
            <mxPoint x="460" y="450" as="sourcePoint" />
            <mxPoint x="230" y="450.1" as="targetPoint" />
            <Array as="points" />
            <mxPoint as="offset" />
          </mxGeometry>
        </mxCell>
        <mxCell id="zJpWgVrRwI8CpKpm4MUV-27" value="&lt;b&gt;데이터 조회&lt;br&gt;Sequence&lt;/b&gt;" style="text;html=1;strokeColor=none;fillColor=none;align=center;verticalAlign=middle;whiteSpace=wrap;rounded=0;" parent="1" vertex="1">
          <mxGeometry x="50" y="190" width="90" height="30" as="geometry" />
        </mxCell>
        <mxCell id="zJpWgVrRwI8CpKpm4MUV-29" value=":User" style="shape=umlLifeline;perimeter=lifelinePerimeter;whiteSpace=wrap;html=1;container=1;dropTarget=0;collapsible=0;recursiveResize=0;outlineConnect=0;portConstraint=eastwest;newEdgeStyle={&quot;edgeStyle&quot;:&quot;elbowEdgeStyle&quot;,&quot;elbow&quot;:&quot;vertical&quot;,&quot;curved&quot;:0,&quot;rounded&quot;:0};" parent="1" vertex="1">
          <mxGeometry x="230" y="710" width="100" height="300" as="geometry" />
        </mxCell>
        <mxCell id="_YEKrhLMnrgheXRXns0b-26" value="" style="html=1;points=[];perimeter=orthogonalPerimeter;outlineConnect=0;targetShapes=umlLifeline;portConstraint=eastwest;newEdgeStyle={&quot;edgeStyle&quot;:&quot;elbowEdgeStyle&quot;,&quot;elbow&quot;:&quot;vertical&quot;,&quot;curved&quot;:0,&quot;rounded&quot;:0};" parent="zJpWgVrRwI8CpKpm4MUV-29" vertex="1">
          <mxGeometry x="45" y="60" width="10" height="10" as="geometry" />
        </mxCell>
        <mxCell id="_YEKrhLMnrgheXRXns0b-56" value="&lt;font style=&quot;font-size: 8px;&quot;&gt;10. 작동 장치 제어 완료&lt;/font&gt;" style="html=1;verticalAlign=bottom;endArrow=open;dashed=1;endSize=8;edgeStyle=elbowEdgeStyle;elbow=vertical;curved=0;rounded=0;" parent="zJpWgVrRwI8CpKpm4MUV-29" target="zJpWgVrRwI8CpKpm4MUV-29" edge="1">
          <mxGeometry relative="1" as="geometry">
            <mxPoint x="165" y="250.03276264591432" as="sourcePoint" />
            <mxPoint x="55.25" y="250.03276264591432" as="targetPoint" />
          </mxGeometry>
        </mxCell>
        <mxCell id="zJpWgVrRwI8CpKpm4MUV-31" value=":Actuator control&lt;br&gt;Decision-maker" style="shape=umlLifeline;perimeter=lifelinePerimeter;whiteSpace=wrap;html=1;container=1;dropTarget=0;collapsible=0;recursiveResize=0;outlineConnect=0;portConstraint=eastwest;newEdgeStyle={&quot;edgeStyle&quot;:&quot;elbowEdgeStyle&quot;,&quot;elbow&quot;:&quot;vertical&quot;,&quot;curved&quot;:0,&quot;rounded&quot;:0};" parent="1" vertex="1">
          <mxGeometry x="350" y="710" width="100" height="300" as="geometry" />
        </mxCell>
        <mxCell id="_YEKrhLMnrgheXRXns0b-28" value="" style="html=1;points=[];perimeter=orthogonalPerimeter;outlineConnect=0;targetShapes=umlLifeline;portConstraint=eastwest;newEdgeStyle={&quot;edgeStyle&quot;:&quot;elbowEdgeStyle&quot;,&quot;elbow&quot;:&quot;vertical&quot;,&quot;curved&quot;:0,&quot;rounded&quot;:0};" parent="zJpWgVrRwI8CpKpm4MUV-31" vertex="1">
          <mxGeometry x="45" y="70" width="10" height="20" as="geometry" />
        </mxCell>
        <mxCell id="_YEKrhLMnrgheXRXns0b-53" value="" style="html=1;points=[];perimeter=orthogonalPerimeter;outlineConnect=0;targetShapes=umlLifeline;portConstraint=eastwest;newEdgeStyle={&quot;edgeStyle&quot;:&quot;elbowEdgeStyle&quot;,&quot;elbow&quot;:&quot;vertical&quot;,&quot;curved&quot;:0,&quot;rounded&quot;:0};" parent="zJpWgVrRwI8CpKpm4MUV-31" vertex="1">
          <mxGeometry x="45" y="230.1199999999999" width="10" height="20" as="geometry" />
        </mxCell>
        <mxCell id="_YEKrhLMnrgheXRXns0b-54" value="&lt;font style=&quot;font-size: 8px;&quot;&gt;9. 작동 장치 제어 완료&lt;/font&gt;" style="html=1;verticalAlign=bottom;endArrow=open;dashed=1;endSize=8;edgeStyle=elbowEdgeStyle;elbow=vertical;curved=0;rounded=0;" parent="zJpWgVrRwI8CpKpm4MUV-31" edge="1">
          <mxGeometry x="-0.0038" relative="1" as="geometry">
            <mxPoint x="164.75" y="230.09276264591426" as="sourcePoint" />
            <mxPoint x="55" y="230.09276264591426" as="targetPoint" />
            <mxPoint as="offset" />
          </mxGeometry>
        </mxCell>
        <mxCell id="zJpWgVrRwI8CpKpm4MUV-33" value=":MQTT&lt;br&gt;Client" style="shape=umlLifeline;perimeter=lifelinePerimeter;whiteSpace=wrap;html=1;container=1;dropTarget=0;collapsible=0;recursiveResize=0;outlineConnect=0;portConstraint=eastwest;newEdgeStyle={&quot;edgeStyle&quot;:&quot;elbowEdgeStyle&quot;,&quot;elbow&quot;:&quot;vertical&quot;,&quot;curved&quot;:0,&quot;rounded&quot;:0};" parent="1" vertex="1">
          <mxGeometry x="470" y="710" width="100" height="300" as="geometry" />
        </mxCell>
        <mxCell id="_YEKrhLMnrgheXRXns0b-32" value="" style="html=1;points=[];perimeter=orthogonalPerimeter;outlineConnect=0;targetShapes=umlLifeline;portConstraint=eastwest;newEdgeStyle={&quot;edgeStyle&quot;:&quot;elbowEdgeStyle&quot;,&quot;elbow&quot;:&quot;vertical&quot;,&quot;curved&quot;:0,&quot;rounded&quot;:0};" parent="zJpWgVrRwI8CpKpm4MUV-33" vertex="1">
          <mxGeometry x="45" y="90" width="10" height="20" as="geometry" />
        </mxCell>
        <mxCell id="_YEKrhLMnrgheXRXns0b-51" value="" style="html=1;points=[];perimeter=orthogonalPerimeter;outlineConnect=0;targetShapes=umlLifeline;portConstraint=eastwest;newEdgeStyle={&quot;edgeStyle&quot;:&quot;elbowEdgeStyle&quot;,&quot;elbow&quot;:&quot;vertical&quot;,&quot;curved&quot;:0,&quot;rounded&quot;:0};" parent="zJpWgVrRwI8CpKpm4MUV-33" vertex="1">
          <mxGeometry x="45" y="210.05999999999995" width="10" height="20" as="geometry" />
        </mxCell>
        <mxCell id="_YEKrhLMnrgheXRXns0b-52" value="&lt;font style=&quot;font-size: 8px;&quot;&gt;8. 작동 장치 제어 완료&lt;/font&gt;" style="html=1;verticalAlign=bottom;endArrow=open;dashed=1;endSize=8;edgeStyle=elbowEdgeStyle;elbow=vertical;curved=0;rounded=0;" parent="zJpWgVrRwI8CpKpm4MUV-33" edge="1">
          <mxGeometry relative="1" as="geometry">
            <mxPoint x="164.75" y="210.03276264591432" as="sourcePoint" />
            <mxPoint x="55" y="210.03276264591432" as="targetPoint" />
          </mxGeometry>
        </mxCell>
        <mxCell id="zJpWgVrRwI8CpKpm4MUV-40" value=":MQTT&lt;br&gt;Broker" style="shape=umlLifeline;perimeter=lifelinePerimeter;whiteSpace=wrap;html=1;container=1;dropTarget=0;collapsible=0;recursiveResize=0;outlineConnect=0;portConstraint=eastwest;newEdgeStyle={&quot;edgeStyle&quot;:&quot;elbowEdgeStyle&quot;,&quot;elbow&quot;:&quot;vertical&quot;,&quot;curved&quot;:0,&quot;rounded&quot;:0};" parent="1" vertex="1">
          <mxGeometry x="590" y="710" width="100" height="300" as="geometry" />
        </mxCell>
        <mxCell id="_YEKrhLMnrgheXRXns0b-35" value="" style="html=1;points=[];perimeter=orthogonalPerimeter;outlineConnect=0;targetShapes=umlLifeline;portConstraint=eastwest;newEdgeStyle={&quot;edgeStyle&quot;:&quot;elbowEdgeStyle&quot;,&quot;elbow&quot;:&quot;vertical&quot;,&quot;curved&quot;:0,&quot;rounded&quot;:0};" parent="zJpWgVrRwI8CpKpm4MUV-40" vertex="1">
          <mxGeometry x="45.5" y="110" width="10" height="20" as="geometry" />
        </mxCell>
        <mxCell id="_YEKrhLMnrgheXRXns0b-36" value="&lt;font style=&quot;font-size: 8px;&quot;&gt;3. 작동 장치 제어 명령&lt;/font&gt;" style="html=1;verticalAlign=bottom;endArrow=open;edgeStyle=elbowEdgeStyle;elbow=vertical;curved=0;rounded=0;endFill=0;" parent="zJpWgVrRwI8CpKpm4MUV-40" source="_YEKrhLMnrgheXRXns0b-32" edge="1">
          <mxGeometry width="80" relative="1" as="geometry">
            <mxPoint x="-63.5" y="110" as="sourcePoint" />
            <mxPoint x="45.5" y="110" as="targetPoint" />
          </mxGeometry>
        </mxCell>
        <mxCell id="_YEKrhLMnrgheXRXns0b-49" value="" style="html=1;points=[];perimeter=orthogonalPerimeter;outlineConnect=0;targetShapes=umlLifeline;portConstraint=eastwest;newEdgeStyle={&quot;edgeStyle&quot;:&quot;elbowEdgeStyle&quot;,&quot;elbow&quot;:&quot;vertical&quot;,&quot;curved&quot;:0,&quot;rounded&quot;:0};" parent="zJpWgVrRwI8CpKpm4MUV-40" vertex="1">
          <mxGeometry x="45.5" y="190.02999999999997" width="10" height="20" as="geometry" />
        </mxCell>
        <mxCell id="_YEKrhLMnrgheXRXns0b-50" value="&lt;font style=&quot;font-size: 8px;&quot;&gt;7. 작동 장치 제어 완료&lt;/font&gt;" style="html=1;verticalAlign=bottom;endArrow=open;dashed=1;endSize=8;edgeStyle=elbowEdgeStyle;elbow=vertical;curved=0;rounded=0;" parent="zJpWgVrRwI8CpKpm4MUV-40" edge="1">
          <mxGeometry relative="1" as="geometry">
            <mxPoint x="165.25" y="190.00276264591434" as="sourcePoint" />
            <mxPoint x="55.5" y="190.00276264591434" as="targetPoint" />
          </mxGeometry>
        </mxCell>
        <mxCell id="zJpWgVrRwI8CpKpm4MUV-50" value="&lt;b&gt;원격 제어&lt;br&gt;Sequence&lt;/b&gt;" style="text;html=1;strokeColor=none;fillColor=none;align=center;verticalAlign=middle;whiteSpace=wrap;rounded=0;" parent="1" vertex="1">
          <mxGeometry x="15" y="660" width="180" height="30" as="geometry" />
        </mxCell>
        <mxCell id="zJpWgVrRwI8CpKpm4MUV-57" value=":User" style="shape=umlLifeline;perimeter=lifelinePerimeter;whiteSpace=wrap;html=1;container=1;dropTarget=0;collapsible=0;recursiveResize=0;outlineConnect=0;portConstraint=eastwest;newEdgeStyle={&quot;edgeStyle&quot;:&quot;elbowEdgeStyle&quot;,&quot;elbow&quot;:&quot;vertical&quot;,&quot;curved&quot;:0,&quot;rounded&quot;:0};" parent="1" vertex="1">
          <mxGeometry x="174" y="1725" width="100" height="540" as="geometry" />
        </mxCell>
        <mxCell id="_YEKrhLMnrgheXRXns0b-87" value="" style="html=1;points=[];perimeter=orthogonalPerimeter;outlineConnect=0;targetShapes=umlLifeline;portConstraint=eastwest;newEdgeStyle={&quot;edgeStyle&quot;:&quot;elbowEdgeStyle&quot;,&quot;elbow&quot;:&quot;vertical&quot;,&quot;curved&quot;:0,&quot;rounded&quot;:0};" parent="zJpWgVrRwI8CpKpm4MUV-57" vertex="1">
          <mxGeometry x="45" y="60" width="10" height="10" as="geometry" />
        </mxCell>
        <mxCell id="zJpWgVrRwI8CpKpm4MUV-59" value=":Web server" style="shape=umlLifeline;perimeter=lifelinePerimeter;whiteSpace=wrap;html=1;container=1;dropTarget=0;collapsible=0;recursiveResize=0;outlineConnect=0;portConstraint=eastwest;newEdgeStyle={&quot;edgeStyle&quot;:&quot;elbowEdgeStyle&quot;,&quot;elbow&quot;:&quot;vertical&quot;,&quot;curved&quot;:0,&quot;rounded&quot;:0};" parent="1" vertex="1">
          <mxGeometry x="294" y="1725" width="100" height="540" as="geometry" />
        </mxCell>
        <mxCell id="_YEKrhLMnrgheXRXns0b-90" value="" style="html=1;points=[];perimeter=orthogonalPerimeter;outlineConnect=0;targetShapes=umlLifeline;portConstraint=eastwest;newEdgeStyle={&quot;edgeStyle&quot;:&quot;elbowEdgeStyle&quot;,&quot;elbow&quot;:&quot;vertical&quot;,&quot;curved&quot;:0,&quot;rounded&quot;:0};" parent="zJpWgVrRwI8CpKpm4MUV-59" vertex="1">
          <mxGeometry x="45" y="70" width="10" height="10" as="geometry" />
        </mxCell>
        <mxCell id="zJpWgVrRwI8CpKpm4MUV-61" value=":DB" style="shape=umlLifeline;perimeter=lifelinePerimeter;whiteSpace=wrap;html=1;container=1;dropTarget=0;collapsible=0;recursiveResize=0;outlineConnect=0;portConstraint=eastwest;newEdgeStyle={&quot;edgeStyle&quot;:&quot;elbowEdgeStyle&quot;,&quot;elbow&quot;:&quot;vertical&quot;,&quot;curved&quot;:0,&quot;rounded&quot;:0};" parent="1" vertex="1">
          <mxGeometry x="414" y="1725" width="100" height="540" as="geometry" />
        </mxCell>
        <mxCell id="_YEKrhLMnrgheXRXns0b-91" value="" style="html=1;points=[];perimeter=orthogonalPerimeter;outlineConnect=0;targetShapes=umlLifeline;portConstraint=eastwest;newEdgeStyle={&quot;edgeStyle&quot;:&quot;elbowEdgeStyle&quot;,&quot;elbow&quot;:&quot;vertical&quot;,&quot;curved&quot;:0,&quot;rounded&quot;:0};" parent="zJpWgVrRwI8CpKpm4MUV-61" vertex="1">
          <mxGeometry x="45" y="80" width="10" height="10" as="geometry" />
        </mxCell>
        <mxCell id="_YEKrhLMnrgheXRXns0b-92" value="&lt;font style=&quot;font-size: 8px;&quot;&gt;2. 센서 희망 수치 설정&lt;/font&gt;" style="html=1;verticalAlign=bottom;endArrow=open;edgeStyle=elbowEdgeStyle;elbow=vertical;curved=0;rounded=0;endFill=0;dashed=1;" parent="zJpWgVrRwI8CpKpm4MUV-61" source="_YEKrhLMnrgheXRXns0b-90" edge="1">
          <mxGeometry width="80" relative="1" as="geometry">
            <mxPoint x="-64" y="80" as="sourcePoint" />
            <mxPoint x="46" y="80" as="targetPoint" />
          </mxGeometry>
        </mxCell>
        <mxCell id="zJpWgVrRwI8CpKpm4MUV-65" value=":Actuator control&lt;br&gt;Decision-maker" style="shape=umlLifeline;perimeter=lifelinePerimeter;whiteSpace=wrap;html=1;container=1;dropTarget=0;collapsible=0;recursiveResize=0;outlineConnect=0;portConstraint=eastwest;newEdgeStyle={&quot;edgeStyle&quot;:&quot;elbowEdgeStyle&quot;,&quot;elbow&quot;:&quot;vertical&quot;,&quot;curved&quot;:0,&quot;rounded&quot;:0};" parent="1" vertex="1">
          <mxGeometry x="534" y="1725" width="100" height="540" as="geometry" />
        </mxCell>
        <mxCell id="_YEKrhLMnrgheXRXns0b-93" value="" style="html=1;points=[];perimeter=orthogonalPerimeter;outlineConnect=0;targetShapes=umlLifeline;portConstraint=eastwest;newEdgeStyle={&quot;edgeStyle&quot;:&quot;elbowEdgeStyle&quot;,&quot;elbow&quot;:&quot;vertical&quot;,&quot;curved&quot;:0,&quot;rounded&quot;:0};" parent="zJpWgVrRwI8CpKpm4MUV-65" vertex="1">
          <mxGeometry x="45" y="90.09999999999991" width="10" height="10" as="geometry" />
        </mxCell>
        <mxCell id="_YEKrhLMnrgheXRXns0b-94" value="&lt;font style=&quot;font-size: 8px;&quot;&gt;3. 센서 희망 수치 설정&lt;/font&gt;" style="html=1;verticalAlign=bottom;endArrow=open;edgeStyle=elbowEdgeStyle;elbow=vertical;curved=0;rounded=0;endFill=0;dashed=1;" parent="zJpWgVrRwI8CpKpm4MUV-65" edge="1">
          <mxGeometry width="80" relative="1" as="geometry">
            <mxPoint x="-65" y="90.09999999999991" as="sourcePoint" />
            <mxPoint x="46" y="90.09999999999991" as="targetPoint" />
          </mxGeometry>
        </mxCell>
        <mxCell id="_YEKrhLMnrgheXRXns0b-95" value="" style="html=1;points=[];perimeter=orthogonalPerimeter;outlineConnect=0;targetShapes=umlLifeline;portConstraint=eastwest;newEdgeStyle={&quot;edgeStyle&quot;:&quot;elbowEdgeStyle&quot;,&quot;elbow&quot;:&quot;vertical&quot;,&quot;curved&quot;:0,&quot;rounded&quot;:0};" parent="zJpWgVrRwI8CpKpm4MUV-65" vertex="1">
          <mxGeometry x="45" y="132" width="10" height="20" as="geometry" />
        </mxCell>
        <mxCell id="BqypW38kj6GlcWByE3Ns-8" value="" style="html=1;points=[];perimeter=orthogonalPerimeter;outlineConnect=0;targetShapes=umlLifeline;portConstraint=eastwest;newEdgeStyle={&quot;edgeStyle&quot;:&quot;elbowEdgeStyle&quot;,&quot;elbow&quot;:&quot;vertical&quot;,&quot;curved&quot;:0,&quot;rounded&quot;:0};" parent="zJpWgVrRwI8CpKpm4MUV-65" vertex="1">
          <mxGeometry x="45" y="292" width="10" height="20" as="geometry" />
        </mxCell>
        <mxCell id="BqypW38kj6GlcWByE3Ns-9" value="&lt;font style=&quot;font-size: 8px;&quot;&gt;11. 작동 장치 작동 상태 반환&lt;/font&gt;" style="html=1;verticalAlign=bottom;endArrow=open;dashed=1;endSize=8;edgeStyle=elbowEdgeStyle;elbow=vertical;curved=0;rounded=0;" parent="zJpWgVrRwI8CpKpm4MUV-65" edge="1">
          <mxGeometry relative="1" as="geometry">
            <mxPoint x="166" y="292" as="sourcePoint" />
            <mxPoint x="55" y="292" as="targetPoint" />
          </mxGeometry>
        </mxCell>
        <mxCell id="VWsIwotiQMQ679dIEIKG-6" value="" style="html=1;points=[];perimeter=orthogonalPerimeter;outlineConnect=0;targetShapes=umlLifeline;portConstraint=eastwest;newEdgeStyle={&quot;edgeStyle&quot;:&quot;elbowEdgeStyle&quot;,&quot;elbow&quot;:&quot;vertical&quot;,&quot;curved&quot;:0,&quot;rounded&quot;:0};" parent="zJpWgVrRwI8CpKpm4MUV-65" vertex="1">
          <mxGeometry x="45" y="349" width="10" height="20" as="geometry" />
        </mxCell>
        <mxCell id="zJpWgVrRwI8CpKpm4MUV-68" value=":MQTT&lt;br&gt;Client" style="shape=umlLifeline;perimeter=lifelinePerimeter;whiteSpace=wrap;html=1;container=1;dropTarget=0;collapsible=0;recursiveResize=0;outlineConnect=0;portConstraint=eastwest;newEdgeStyle={&quot;edgeStyle&quot;:&quot;elbowEdgeStyle&quot;,&quot;elbow&quot;:&quot;vertical&quot;,&quot;curved&quot;:0,&quot;rounded&quot;:0};" parent="1" vertex="1">
          <mxGeometry x="654" y="1725" width="100" height="540" as="geometry" />
        </mxCell>
        <mxCell id="_YEKrhLMnrgheXRXns0b-97" value="" style="html=1;points=[];perimeter=orthogonalPerimeter;outlineConnect=0;targetShapes=umlLifeline;portConstraint=eastwest;newEdgeStyle={&quot;edgeStyle&quot;:&quot;elbowEdgeStyle&quot;,&quot;elbow&quot;:&quot;vertical&quot;,&quot;curved&quot;:0,&quot;rounded&quot;:0};" parent="zJpWgVrRwI8CpKpm4MUV-68" vertex="1">
          <mxGeometry x="45" y="152" width="10" height="20" as="geometry" />
        </mxCell>
        <mxCell id="BqypW38kj6GlcWByE3Ns-6" value="" style="html=1;points=[];perimeter=orthogonalPerimeter;outlineConnect=0;targetShapes=umlLifeline;portConstraint=eastwest;newEdgeStyle={&quot;edgeStyle&quot;:&quot;elbowEdgeStyle&quot;,&quot;elbow&quot;:&quot;vertical&quot;,&quot;curved&quot;:0,&quot;rounded&quot;:0};" parent="zJpWgVrRwI8CpKpm4MUV-68" vertex="1">
          <mxGeometry x="45.5" y="272" width="10" height="20" as="geometry" />
        </mxCell>
        <mxCell id="BqypW38kj6GlcWByE3Ns-7" value="&lt;font style=&quot;font-size: 8px;&quot;&gt;10. 작동 장치 작동 상태 반환&lt;/font&gt;" style="html=1;verticalAlign=bottom;endArrow=open;dashed=1;endSize=8;edgeStyle=elbowEdgeStyle;elbow=vertical;curved=0;rounded=0;" parent="zJpWgVrRwI8CpKpm4MUV-68" edge="1">
          <mxGeometry relative="1" as="geometry">
            <mxPoint x="166.5" y="272" as="sourcePoint" />
            <mxPoint x="55.5" y="272" as="targetPoint" />
          </mxGeometry>
        </mxCell>
        <mxCell id="zJpWgVrRwI8CpKpm4MUV-78" value="&lt;b&gt;자동 제어&lt;br&gt;Sequence&lt;/b&gt;" style="text;html=1;strokeColor=none;fillColor=none;align=center;verticalAlign=middle;whiteSpace=wrap;rounded=0;" parent="1" vertex="1">
          <mxGeometry x="50" y="1675" width="90" height="30" as="geometry" />
        </mxCell>
        <mxCell id="_YEKrhLMnrgheXRXns0b-1" value=":MQTT&lt;br&gt;Client" style="shape=umlLifeline;perimeter=lifelinePerimeter;whiteSpace=wrap;html=1;container=1;dropTarget=0;collapsible=0;recursiveResize=0;outlineConnect=0;portConstraint=eastwest;newEdgeStyle={&quot;edgeStyle&quot;:&quot;elbowEdgeStyle&quot;,&quot;elbow&quot;:&quot;vertical&quot;,&quot;curved&quot;:0,&quot;rounded&quot;:0};" parent="1" vertex="1">
          <mxGeometry x="770" y="240" width="100" height="300" as="geometry" />
        </mxCell>
        <mxCell id="_YEKrhLMnrgheXRXns0b-13" value="" style="html=1;points=[];perimeter=orthogonalPerimeter;outlineConnect=0;targetShapes=umlLifeline;portConstraint=eastwest;newEdgeStyle={&quot;edgeStyle&quot;:&quot;elbowEdgeStyle&quot;,&quot;elbow&quot;:&quot;vertical&quot;,&quot;curved&quot;:0,&quot;rounded&quot;:0};" parent="_YEKrhLMnrgheXRXns0b-1" vertex="1">
          <mxGeometry x="45" y="70" width="10" height="20" as="geometry" />
        </mxCell>
        <mxCell id="_YEKrhLMnrgheXRXns0b-2" value=":Sensor data&lt;br&gt;Collector" style="shape=umlLifeline;perimeter=lifelinePerimeter;whiteSpace=wrap;html=1;container=1;dropTarget=0;collapsible=0;recursiveResize=0;outlineConnect=0;portConstraint=eastwest;newEdgeStyle={&quot;edgeStyle&quot;:&quot;elbowEdgeStyle&quot;,&quot;elbow&quot;:&quot;vertical&quot;,&quot;curved&quot;:0,&quot;rounded&quot;:0};" parent="1" vertex="1">
          <mxGeometry x="890" y="240" width="100" height="300" as="geometry" />
        </mxCell>
        <mxCell id="zJpWgVrRwI8CpKpm4MUV-6" value="" style="html=1;points=[];perimeter=orthogonalPerimeter;outlineConnect=0;targetShapes=umlLifeline;portConstraint=eastwest;newEdgeStyle={&quot;edgeStyle&quot;:&quot;elbowEdgeStyle&quot;,&quot;elbow&quot;:&quot;vertical&quot;,&quot;curved&quot;:0,&quot;rounded&quot;:0};" parent="_YEKrhLMnrgheXRXns0b-2" vertex="1">
          <mxGeometry x="45" y="60" width="10" height="230" as="geometry" />
        </mxCell>
        <mxCell id="_YEKrhLMnrgheXRXns0b-8" value="&lt;font style=&quot;font-size: 8px;&quot;&gt;2. 데이터 찾기&lt;/font&gt;" style="html=1;verticalAlign=bottom;endArrow=none;edgeStyle=elbowEdgeStyle;elbow=vertical;curved=0;rounded=0;startArrow=open;startFill=0;endFill=0;" parent="1" source="_YEKrhLMnrgheXRXns0b-6" edge="1">
          <mxGeometry width="80" relative="1" as="geometry">
            <mxPoint x="368" y="470.104761904762" as="sourcePoint" />
            <mxPoint x="459" y="470.20000000000005" as="targetPoint" />
          </mxGeometry>
        </mxCell>
        <mxCell id="_YEKrhLMnrgheXRXns0b-9" value="&lt;font style=&quot;font-size: 8px;&quot;&gt;3. 센서 데이터 반환&lt;/font&gt;" style="html=1;verticalAlign=bottom;endArrow=none;dashed=1;endSize=8;edgeStyle=elbowEdgeStyle;elbow=vertical;curved=0;rounded=0;startArrow=open;startFill=0;endFill=0;" parent="1" edge="1">
          <mxGeometry relative="1" as="geometry">
            <mxPoint x="460" y="490" as="sourcePoint" />
            <mxPoint x="350" y="490.1" as="targetPoint" />
          </mxGeometry>
        </mxCell>
        <mxCell id="_YEKrhLMnrgheXRXns0b-11" value="&lt;font style=&quot;font-size: 8px;&quot;&gt;4. 데이터 값 반환&lt;/font&gt;" style="html=1;verticalAlign=bottom;endArrow=open;dashed=1;endSize=8;edgeStyle=elbowEdgeStyle;elbow=vertical;curved=0;rounded=0;endFill=0;startArrow=none;startFill=0;" parent="1" edge="1">
          <mxGeometry relative="1" as="geometry">
            <mxPoint x="460" y="510.1" as="sourcePoint" />
            <mxPoint x="224.02380952380963" y="509.9047619047619" as="targetPoint" />
          </mxGeometry>
        </mxCell>
        <mxCell id="_YEKrhLMnrgheXRXns0b-12" value="&lt;font style=&quot;font-size: 8px;&quot;&gt;센서 데이터&lt;/font&gt;" style="html=1;verticalAlign=bottom;endArrow=open;dashed=1;endSize=8;edgeStyle=elbowEdgeStyle;elbow=vertical;curved=0;rounded=0;" parent="1" source="zJpWgVrRwI8CpKpm4MUV-6" edge="1">
          <mxGeometry relative="1" as="geometry">
            <mxPoint x="910" y="310.05555555555554" as="sourcePoint" />
            <mxPoint x="825" y="310" as="targetPoint" />
          </mxGeometry>
        </mxCell>
        <mxCell id="_YEKrhLMnrgheXRXns0b-17" value="&lt;font style=&quot;font-size: 8px;&quot;&gt;센서 데이터&lt;/font&gt;" style="html=1;verticalAlign=bottom;endArrow=open;dashed=1;endSize=8;edgeStyle=elbowEdgeStyle;elbow=vertical;curved=0;rounded=0;" parent="1" edge="1">
          <mxGeometry relative="1" as="geometry">
            <mxPoint x="699" y="347.1" as="sourcePoint" />
            <mxPoint x="589" y="347.00476190476195" as="targetPoint" />
          </mxGeometry>
        </mxCell>
        <mxCell id="_YEKrhLMnrgheXRXns0b-23" value="&lt;font style=&quot;font-size: 8px;&quot;&gt;센서 데이터&lt;/font&gt;" style="html=1;verticalAlign=bottom;endArrow=open;dashed=1;endSize=8;edgeStyle=elbowEdgeStyle;elbow=vertical;curved=0;rounded=0;" parent="1" source="_YEKrhLMnrgheXRXns0b-20" edge="1">
          <mxGeometry relative="1" as="geometry">
            <mxPoint x="453" y="387" as="sourcePoint" />
            <mxPoint x="350" y="387" as="targetPoint" />
          </mxGeometry>
        </mxCell>
        <mxCell id="_YEKrhLMnrgheXRXns0b-24" value=":MQTT&lt;br&gt;Client" style="shape=umlLifeline;perimeter=lifelinePerimeter;whiteSpace=wrap;html=1;container=1;dropTarget=0;collapsible=0;recursiveResize=0;outlineConnect=0;portConstraint=eastwest;newEdgeStyle={&quot;edgeStyle&quot;:&quot;elbowEdgeStyle&quot;,&quot;elbow&quot;:&quot;vertical&quot;,&quot;curved&quot;:0,&quot;rounded&quot;:0};" parent="1" vertex="1">
          <mxGeometry x="710" y="710" width="100" height="300" as="geometry" />
        </mxCell>
        <mxCell id="_YEKrhLMnrgheXRXns0b-37" value="" style="html=1;points=[];perimeter=orthogonalPerimeter;outlineConnect=0;targetShapes=umlLifeline;portConstraint=eastwest;newEdgeStyle={&quot;edgeStyle&quot;:&quot;elbowEdgeStyle&quot;,&quot;elbow&quot;:&quot;vertical&quot;,&quot;curved&quot;:0,&quot;rounded&quot;:0};" parent="_YEKrhLMnrgheXRXns0b-24" vertex="1">
          <mxGeometry x="45.5" y="130" width="10" height="20" as="geometry" />
        </mxCell>
        <mxCell id="_YEKrhLMnrgheXRXns0b-38" value="&lt;font style=&quot;font-size: 8px;&quot;&gt;4. 작동 장치 제어 명령&lt;/font&gt;" style="html=1;verticalAlign=bottom;endArrow=open;edgeStyle=elbowEdgeStyle;elbow=vertical;curved=0;rounded=0;endFill=0;" parent="_YEKrhLMnrgheXRXns0b-24" source="_YEKrhLMnrgheXRXns0b-35" edge="1">
          <mxGeometry width="80" relative="1" as="geometry">
            <mxPoint x="-63.5" y="130" as="sourcePoint" />
            <mxPoint x="45.5" y="130" as="targetPoint" />
          </mxGeometry>
        </mxCell>
        <mxCell id="_YEKrhLMnrgheXRXns0b-46" value="" style="html=1;points=[];perimeter=orthogonalPerimeter;outlineConnect=0;targetShapes=umlLifeline;portConstraint=eastwest;newEdgeStyle={&quot;edgeStyle&quot;:&quot;elbowEdgeStyle&quot;,&quot;elbow&quot;:&quot;vertical&quot;,&quot;curved&quot;:0,&quot;rounded&quot;:0};" parent="_YEKrhLMnrgheXRXns0b-24" vertex="1">
          <mxGeometry x="45.5" y="170" width="10" height="20" as="geometry" />
        </mxCell>
        <mxCell id="_YEKrhLMnrgheXRXns0b-25" value=":Actuator controller" style="shape=umlLifeline;perimeter=lifelinePerimeter;whiteSpace=wrap;html=1;container=1;dropTarget=0;collapsible=0;recursiveResize=0;outlineConnect=0;portConstraint=eastwest;newEdgeStyle={&quot;edgeStyle&quot;:&quot;elbowEdgeStyle&quot;,&quot;elbow&quot;:&quot;vertical&quot;,&quot;curved&quot;:0,&quot;rounded&quot;:0};" parent="1" vertex="1">
          <mxGeometry x="830" y="710" width="100" height="300" as="geometry" />
        </mxCell>
        <mxCell id="_YEKrhLMnrgheXRXns0b-40" value="" style="html=1;points=[];perimeter=orthogonalPerimeter;outlineConnect=0;targetShapes=umlLifeline;portConstraint=eastwest;newEdgeStyle={&quot;edgeStyle&quot;:&quot;elbowEdgeStyle&quot;,&quot;elbow&quot;:&quot;vertical&quot;,&quot;curved&quot;:0,&quot;rounded&quot;:0};" parent="_YEKrhLMnrgheXRXns0b-25" vertex="1">
          <mxGeometry x="45.25" y="150" width="10" height="20" as="geometry" />
        </mxCell>
        <mxCell id="_YEKrhLMnrgheXRXns0b-41" value="&lt;font style=&quot;font-size: 8px;&quot;&gt;5. 작동 장치 제어 명령&lt;/font&gt;" style="html=1;verticalAlign=bottom;endArrow=open;edgeStyle=elbowEdgeStyle;elbow=vertical;curved=0;rounded=0;endFill=0;" parent="_YEKrhLMnrgheXRXns0b-25" edge="1">
          <mxGeometry width="80" relative="1" as="geometry">
            <mxPoint x="-69.25" y="150" as="sourcePoint" />
            <mxPoint x="45.25" y="150" as="targetPoint" />
          </mxGeometry>
        </mxCell>
        <mxCell id="_YEKrhLMnrgheXRXns0b-27" value="&lt;font style=&quot;font-size: 8px;&quot;&gt;1. 작동 장치 제어 명령&lt;/font&gt;" style="html=1;verticalAlign=bottom;endArrow=open;edgeStyle=elbowEdgeStyle;elbow=vertical;curved=0;rounded=0;endFill=0;" parent="1" target="_YEKrhLMnrgheXRXns0b-28" edge="1">
          <mxGeometry width="80" relative="1" as="geometry">
            <mxPoint x="280" y="780.1" as="sourcePoint" />
            <mxPoint x="390" y="780" as="targetPoint" />
          </mxGeometry>
        </mxCell>
        <mxCell id="_YEKrhLMnrgheXRXns0b-31" value="&lt;font style=&quot;font-size: 8px;&quot;&gt;2. 작동 장치 제어 명령&lt;/font&gt;" style="html=1;verticalAlign=bottom;endArrow=open;edgeStyle=elbowEdgeStyle;elbow=vertical;curved=0;rounded=0;endFill=0;" parent="1" source="_YEKrhLMnrgheXRXns0b-28" edge="1">
          <mxGeometry width="80" relative="1" as="geometry">
            <mxPoint x="406" y="800" as="sourcePoint" />
            <mxPoint x="515" y="800" as="targetPoint" />
          </mxGeometry>
        </mxCell>
        <mxCell id="_YEKrhLMnrgheXRXns0b-42" value="&lt;font style=&quot;font-size: 8px;&quot;&gt;6. 작동 장치 제어 완료&lt;/font&gt;" style="html=1;verticalAlign=bottom;endArrow=open;dashed=1;endSize=8;edgeStyle=elbowEdgeStyle;elbow=vertical;curved=0;rounded=0;" parent="1" edge="1">
          <mxGeometry relative="1" as="geometry">
            <mxPoint x="875.25" y="879.9727626459144" as="sourcePoint" />
            <mxPoint x="765.5" y="879.9727626459144" as="targetPoint" />
          </mxGeometry>
        </mxCell>
        <mxCell id="_YEKrhLMnrgheXRXns0b-57" value=":User" style="shape=umlLifeline;perimeter=lifelinePerimeter;whiteSpace=wrap;html=1;container=1;dropTarget=0;collapsible=0;recursiveResize=0;outlineConnect=0;portConstraint=eastwest;newEdgeStyle={&quot;edgeStyle&quot;:&quot;elbowEdgeStyle&quot;,&quot;elbow&quot;:&quot;vertical&quot;,&quot;curved&quot;:0,&quot;rounded&quot;:0};" parent="1" vertex="1">
          <mxGeometry x="230" y="1190" width="100" height="300" as="geometry" />
        </mxCell>
        <mxCell id="_YEKrhLMnrgheXRXns0b-58" value="" style="html=1;points=[];perimeter=orthogonalPerimeter;outlineConnect=0;targetShapes=umlLifeline;portConstraint=eastwest;newEdgeStyle={&quot;edgeStyle&quot;:&quot;elbowEdgeStyle&quot;,&quot;elbow&quot;:&quot;vertical&quot;,&quot;curved&quot;:0,&quot;rounded&quot;:0};" parent="_YEKrhLMnrgheXRXns0b-57" vertex="1">
          <mxGeometry x="45" y="60" width="10" height="10" as="geometry" />
        </mxCell>
        <mxCell id="_YEKrhLMnrgheXRXns0b-59" value="&lt;font style=&quot;font-size: 8px;&quot;&gt;10. 작동 장치 작동 상태 확인&lt;/font&gt;" style="html=1;verticalAlign=bottom;endArrow=open;dashed=1;endSize=8;edgeStyle=elbowEdgeStyle;elbow=vertical;curved=0;rounded=0;" parent="_YEKrhLMnrgheXRXns0b-57" target="_YEKrhLMnrgheXRXns0b-57" edge="1">
          <mxGeometry relative="1" as="geometry">
            <mxPoint x="165" y="250.03276264591432" as="sourcePoint" />
            <mxPoint x="55.25" y="250.03276264591432" as="targetPoint" />
          </mxGeometry>
        </mxCell>
        <mxCell id="_YEKrhLMnrgheXRXns0b-60" value=":Actuator control&lt;br&gt;Decision-maker" style="shape=umlLifeline;perimeter=lifelinePerimeter;whiteSpace=wrap;html=1;container=1;dropTarget=0;collapsible=0;recursiveResize=0;outlineConnect=0;portConstraint=eastwest;newEdgeStyle={&quot;edgeStyle&quot;:&quot;elbowEdgeStyle&quot;,&quot;elbow&quot;:&quot;vertical&quot;,&quot;curved&quot;:0,&quot;rounded&quot;:0};" parent="1" vertex="1">
          <mxGeometry x="350" y="1190" width="100" height="300" as="geometry" />
        </mxCell>
        <mxCell id="_YEKrhLMnrgheXRXns0b-61" value="" style="html=1;points=[];perimeter=orthogonalPerimeter;outlineConnect=0;targetShapes=umlLifeline;portConstraint=eastwest;newEdgeStyle={&quot;edgeStyle&quot;:&quot;elbowEdgeStyle&quot;,&quot;elbow&quot;:&quot;vertical&quot;,&quot;curved&quot;:0,&quot;rounded&quot;:0};" parent="_YEKrhLMnrgheXRXns0b-60" vertex="1">
          <mxGeometry x="45" y="70" width="10" height="20" as="geometry" />
        </mxCell>
        <mxCell id="_YEKrhLMnrgheXRXns0b-62" value="" style="html=1;points=[];perimeter=orthogonalPerimeter;outlineConnect=0;targetShapes=umlLifeline;portConstraint=eastwest;newEdgeStyle={&quot;edgeStyle&quot;:&quot;elbowEdgeStyle&quot;,&quot;elbow&quot;:&quot;vertical&quot;,&quot;curved&quot;:0,&quot;rounded&quot;:0};" parent="_YEKrhLMnrgheXRXns0b-60" vertex="1">
          <mxGeometry x="45" y="230.1199999999999" width="10" height="20" as="geometry" />
        </mxCell>
        <mxCell id="_YEKrhLMnrgheXRXns0b-63" value="&lt;font style=&quot;font-size: 8px;&quot;&gt;9. 작동 장치 작동 상태 확인&lt;/font&gt;" style="html=1;verticalAlign=bottom;endArrow=open;dashed=1;endSize=8;edgeStyle=elbowEdgeStyle;elbow=vertical;curved=0;rounded=0;" parent="_YEKrhLMnrgheXRXns0b-60" edge="1">
          <mxGeometry x="-0.0038" relative="1" as="geometry">
            <mxPoint x="164.75" y="230.09276264591426" as="sourcePoint" />
            <mxPoint x="55" y="230.09276264591426" as="targetPoint" />
            <mxPoint as="offset" />
          </mxGeometry>
        </mxCell>
        <mxCell id="_YEKrhLMnrgheXRXns0b-64" value=":MQTT&lt;br&gt;Client" style="shape=umlLifeline;perimeter=lifelinePerimeter;whiteSpace=wrap;html=1;container=1;dropTarget=0;collapsible=0;recursiveResize=0;outlineConnect=0;portConstraint=eastwest;newEdgeStyle={&quot;edgeStyle&quot;:&quot;elbowEdgeStyle&quot;,&quot;elbow&quot;:&quot;vertical&quot;,&quot;curved&quot;:0,&quot;rounded&quot;:0};" parent="1" vertex="1">
          <mxGeometry x="470" y="1190" width="100" height="300" as="geometry" />
        </mxCell>
        <mxCell id="_YEKrhLMnrgheXRXns0b-65" value="" style="html=1;points=[];perimeter=orthogonalPerimeter;outlineConnect=0;targetShapes=umlLifeline;portConstraint=eastwest;newEdgeStyle={&quot;edgeStyle&quot;:&quot;elbowEdgeStyle&quot;,&quot;elbow&quot;:&quot;vertical&quot;,&quot;curved&quot;:0,&quot;rounded&quot;:0};" parent="_YEKrhLMnrgheXRXns0b-64" vertex="1">
          <mxGeometry x="45" y="90" width="10" height="20" as="geometry" />
        </mxCell>
        <mxCell id="_YEKrhLMnrgheXRXns0b-66" value="" style="html=1;points=[];perimeter=orthogonalPerimeter;outlineConnect=0;targetShapes=umlLifeline;portConstraint=eastwest;newEdgeStyle={&quot;edgeStyle&quot;:&quot;elbowEdgeStyle&quot;,&quot;elbow&quot;:&quot;vertical&quot;,&quot;curved&quot;:0,&quot;rounded&quot;:0};" parent="_YEKrhLMnrgheXRXns0b-64" vertex="1">
          <mxGeometry x="45" y="210.05999999999995" width="10" height="20" as="geometry" />
        </mxCell>
        <mxCell id="_YEKrhLMnrgheXRXns0b-67" value="&lt;font style=&quot;font-size: 8px;&quot;&gt;8. 작동 장치 작동 상태 반환&lt;/font&gt;" style="html=1;verticalAlign=bottom;endArrow=open;dashed=1;endSize=8;edgeStyle=elbowEdgeStyle;elbow=vertical;curved=0;rounded=0;" parent="_YEKrhLMnrgheXRXns0b-64" edge="1">
          <mxGeometry relative="1" as="geometry">
            <mxPoint x="164.75" y="210.03276264591432" as="sourcePoint" />
            <mxPoint x="55" y="210.03276264591432" as="targetPoint" />
          </mxGeometry>
        </mxCell>
        <mxCell id="_YEKrhLMnrgheXRXns0b-68" value=":MQTT&lt;br&gt;Broker" style="shape=umlLifeline;perimeter=lifelinePerimeter;whiteSpace=wrap;html=1;container=1;dropTarget=0;collapsible=0;recursiveResize=0;outlineConnect=0;portConstraint=eastwest;newEdgeStyle={&quot;edgeStyle&quot;:&quot;elbowEdgeStyle&quot;,&quot;elbow&quot;:&quot;vertical&quot;,&quot;curved&quot;:0,&quot;rounded&quot;:0};" parent="1" vertex="1">
          <mxGeometry x="590" y="1190" width="100" height="300" as="geometry" />
        </mxCell>
        <mxCell id="_YEKrhLMnrgheXRXns0b-69" value="" style="html=1;points=[];perimeter=orthogonalPerimeter;outlineConnect=0;targetShapes=umlLifeline;portConstraint=eastwest;newEdgeStyle={&quot;edgeStyle&quot;:&quot;elbowEdgeStyle&quot;,&quot;elbow&quot;:&quot;vertical&quot;,&quot;curved&quot;:0,&quot;rounded&quot;:0};" parent="_YEKrhLMnrgheXRXns0b-68" vertex="1">
          <mxGeometry x="45.5" y="110" width="10" height="20" as="geometry" />
        </mxCell>
        <mxCell id="_YEKrhLMnrgheXRXns0b-70" value="&lt;font style=&quot;font-size: 8px;&quot;&gt;3. 작동 장치 작동 상태 조회&amp;nbsp;&lt;/font&gt;" style="html=1;verticalAlign=bottom;endArrow=open;edgeStyle=elbowEdgeStyle;elbow=vertical;curved=0;rounded=0;endFill=0;" parent="_YEKrhLMnrgheXRXns0b-68" source="_YEKrhLMnrgheXRXns0b-65" edge="1">
          <mxGeometry width="80" relative="1" as="geometry">
            <mxPoint x="-63.5" y="110" as="sourcePoint" />
            <mxPoint x="45.5" y="110" as="targetPoint" />
          </mxGeometry>
        </mxCell>
        <mxCell id="_YEKrhLMnrgheXRXns0b-71" value="" style="html=1;points=[];perimeter=orthogonalPerimeter;outlineConnect=0;targetShapes=umlLifeline;portConstraint=eastwest;newEdgeStyle={&quot;edgeStyle&quot;:&quot;elbowEdgeStyle&quot;,&quot;elbow&quot;:&quot;vertical&quot;,&quot;curved&quot;:0,&quot;rounded&quot;:0};" parent="_YEKrhLMnrgheXRXns0b-68" vertex="1">
          <mxGeometry x="45.5" y="190.02999999999997" width="10" height="20" as="geometry" />
        </mxCell>
        <mxCell id="_YEKrhLMnrgheXRXns0b-72" value="&lt;font style=&quot;font-size: 8px;&quot;&gt;7. 작동 장치 작동 상태 반환&lt;/font&gt;" style="html=1;verticalAlign=bottom;endArrow=open;dashed=1;endSize=8;edgeStyle=elbowEdgeStyle;elbow=vertical;curved=0;rounded=0;" parent="_YEKrhLMnrgheXRXns0b-68" edge="1">
          <mxGeometry relative="1" as="geometry">
            <mxPoint x="165.25" y="190.00276264591434" as="sourcePoint" />
            <mxPoint x="55.5" y="190.00276264591434" as="targetPoint" />
          </mxGeometry>
        </mxCell>
        <mxCell id="_YEKrhLMnrgheXRXns0b-73" value="&lt;b&gt;디바이스 상태 확인&amp;nbsp;&lt;br&gt;Sequence&lt;/b&gt;" style="text;html=1;strokeColor=none;fillColor=none;align=center;verticalAlign=middle;whiteSpace=wrap;rounded=0;" parent="1" vertex="1">
          <mxGeometry x="15" y="1140" width="180" height="30" as="geometry" />
        </mxCell>
        <mxCell id="_YEKrhLMnrgheXRXns0b-74" value=":MQTT&lt;br&gt;Client" style="shape=umlLifeline;perimeter=lifelinePerimeter;whiteSpace=wrap;html=1;container=1;dropTarget=0;collapsible=0;recursiveResize=0;outlineConnect=0;portConstraint=eastwest;newEdgeStyle={&quot;edgeStyle&quot;:&quot;elbowEdgeStyle&quot;,&quot;elbow&quot;:&quot;vertical&quot;,&quot;curved&quot;:0,&quot;rounded&quot;:0};" parent="1" vertex="1">
          <mxGeometry x="710" y="1190" width="100" height="300" as="geometry" />
        </mxCell>
        <mxCell id="_YEKrhLMnrgheXRXns0b-75" value="" style="html=1;points=[];perimeter=orthogonalPerimeter;outlineConnect=0;targetShapes=umlLifeline;portConstraint=eastwest;newEdgeStyle={&quot;edgeStyle&quot;:&quot;elbowEdgeStyle&quot;,&quot;elbow&quot;:&quot;vertical&quot;,&quot;curved&quot;:0,&quot;rounded&quot;:0};" parent="_YEKrhLMnrgheXRXns0b-74" vertex="1">
          <mxGeometry x="45.5" y="130" width="10" height="20" as="geometry" />
        </mxCell>
        <mxCell id="_YEKrhLMnrgheXRXns0b-76" value="&lt;font style=&quot;font-size: 8px;&quot;&gt;4. 작동 장치 작동 상태 조회&lt;/font&gt;" style="html=1;verticalAlign=bottom;endArrow=open;edgeStyle=elbowEdgeStyle;elbow=vertical;curved=0;rounded=0;endFill=0;" parent="_YEKrhLMnrgheXRXns0b-74" source="_YEKrhLMnrgheXRXns0b-69" edge="1">
          <mxGeometry width="80" relative="1" as="geometry">
            <mxPoint x="-63.5" y="130" as="sourcePoint" />
            <mxPoint x="45.5" y="130" as="targetPoint" />
          </mxGeometry>
        </mxCell>
        <mxCell id="_YEKrhLMnrgheXRXns0b-77" value="" style="html=1;points=[];perimeter=orthogonalPerimeter;outlineConnect=0;targetShapes=umlLifeline;portConstraint=eastwest;newEdgeStyle={&quot;edgeStyle&quot;:&quot;elbowEdgeStyle&quot;,&quot;elbow&quot;:&quot;vertical&quot;,&quot;curved&quot;:0,&quot;rounded&quot;:0};" parent="_YEKrhLMnrgheXRXns0b-74" vertex="1">
          <mxGeometry x="45.5" y="170" width="10" height="20" as="geometry" />
        </mxCell>
        <mxCell id="_YEKrhLMnrgheXRXns0b-78" value=":Actuator controller" style="shape=umlLifeline;perimeter=lifelinePerimeter;whiteSpace=wrap;html=1;container=1;dropTarget=0;collapsible=0;recursiveResize=0;outlineConnect=0;portConstraint=eastwest;newEdgeStyle={&quot;edgeStyle&quot;:&quot;elbowEdgeStyle&quot;,&quot;elbow&quot;:&quot;vertical&quot;,&quot;curved&quot;:0,&quot;rounded&quot;:0};" parent="1" vertex="1">
          <mxGeometry x="830" y="1190" width="100" height="300" as="geometry" />
        </mxCell>
        <mxCell id="_YEKrhLMnrgheXRXns0b-79" value="" style="html=1;points=[];perimeter=orthogonalPerimeter;outlineConnect=0;targetShapes=umlLifeline;portConstraint=eastwest;newEdgeStyle={&quot;edgeStyle&quot;:&quot;elbowEdgeStyle&quot;,&quot;elbow&quot;:&quot;vertical&quot;,&quot;curved&quot;:0,&quot;rounded&quot;:0};" parent="_YEKrhLMnrgheXRXns0b-78" vertex="1">
          <mxGeometry x="45.25" y="150" width="10" height="20" as="geometry" />
        </mxCell>
        <mxCell id="_YEKrhLMnrgheXRXns0b-80" value="&lt;font style=&quot;font-size: 8px;&quot;&gt;5. 작동 장치 작동 상태 조회&lt;/font&gt;" style="html=1;verticalAlign=bottom;endArrow=open;edgeStyle=elbowEdgeStyle;elbow=vertical;curved=0;rounded=0;endFill=0;" parent="_YEKrhLMnrgheXRXns0b-78" edge="1">
          <mxGeometry width="80" relative="1" as="geometry">
            <mxPoint x="-69.25" y="150" as="sourcePoint" />
            <mxPoint x="45.25" y="150" as="targetPoint" />
          </mxGeometry>
        </mxCell>
        <mxCell id="_YEKrhLMnrgheXRXns0b-81" value="&lt;font style=&quot;font-size: 8px;&quot;&gt;1. 작동 장치 작동 상태 조회&lt;/font&gt;" style="html=1;verticalAlign=bottom;endArrow=open;edgeStyle=elbowEdgeStyle;elbow=vertical;curved=0;rounded=0;endFill=0;" parent="1" target="_YEKrhLMnrgheXRXns0b-61" edge="1">
          <mxGeometry width="80" relative="1" as="geometry">
            <mxPoint x="280" y="1260.1" as="sourcePoint" />
            <mxPoint x="390" y="1260" as="targetPoint" />
          </mxGeometry>
        </mxCell>
        <mxCell id="_YEKrhLMnrgheXRXns0b-82" value="&lt;font style=&quot;font-size: 8px;&quot;&gt;2. 작동 장치 작동 상태 조회&lt;/font&gt;" style="html=1;verticalAlign=bottom;endArrow=open;edgeStyle=elbowEdgeStyle;elbow=vertical;curved=0;rounded=0;endFill=0;" parent="1" source="_YEKrhLMnrgheXRXns0b-61" edge="1">
          <mxGeometry width="80" relative="1" as="geometry">
            <mxPoint x="406" y="1280" as="sourcePoint" />
            <mxPoint x="515" y="1280" as="targetPoint" />
          </mxGeometry>
        </mxCell>
        <mxCell id="_YEKrhLMnrgheXRXns0b-83" value="&lt;font style=&quot;font-size: 8px;&quot;&gt;6. 작동 장치 작동 상태 반환&lt;/font&gt;" style="html=1;verticalAlign=bottom;endArrow=open;dashed=1;endSize=8;edgeStyle=elbowEdgeStyle;elbow=vertical;curved=0;rounded=0;" parent="1" edge="1">
          <mxGeometry relative="1" as="geometry">
            <mxPoint x="875.25" y="1359.9727626459144" as="sourcePoint" />
            <mxPoint x="765.5" y="1359.9727626459144" as="targetPoint" />
          </mxGeometry>
        </mxCell>
        <mxCell id="_YEKrhLMnrgheXRXns0b-84" value=":MQTT&lt;br&gt;Broker" style="shape=umlLifeline;perimeter=lifelinePerimeter;whiteSpace=wrap;html=1;container=1;dropTarget=0;collapsible=0;recursiveResize=0;outlineConnect=0;portConstraint=eastwest;newEdgeStyle={&quot;edgeStyle&quot;:&quot;elbowEdgeStyle&quot;,&quot;elbow&quot;:&quot;vertical&quot;,&quot;curved&quot;:0,&quot;rounded&quot;:0};" parent="1" vertex="1">
          <mxGeometry x="774" y="1725" width="100" height="540" as="geometry" />
        </mxCell>
        <mxCell id="_YEKrhLMnrgheXRXns0b-98" value="" style="html=1;points=[];perimeter=orthogonalPerimeter;outlineConnect=0;targetShapes=umlLifeline;portConstraint=eastwest;newEdgeStyle={&quot;edgeStyle&quot;:&quot;elbowEdgeStyle&quot;,&quot;elbow&quot;:&quot;vertical&quot;,&quot;curved&quot;:0,&quot;rounded&quot;:0};" parent="_YEKrhLMnrgheXRXns0b-84" vertex="1">
          <mxGeometry x="45" y="172" width="10" height="20" as="geometry" />
        </mxCell>
        <mxCell id="_YEKrhLMnrgheXRXns0b-99" value="&lt;font style=&quot;font-size: 8px;&quot;&gt;5. 작동 장치 제어&lt;/font&gt;" style="html=1;verticalAlign=bottom;endArrow=open;edgeStyle=elbowEdgeStyle;elbow=vertical;curved=0;rounded=0;endFill=0;" parent="_YEKrhLMnrgheXRXns0b-84" edge="1">
          <mxGeometry width="80" relative="1" as="geometry">
            <mxPoint x="-65" y="172" as="sourcePoint" />
            <mxPoint x="46" y="172" as="targetPoint" />
            <Array as="points">
              <mxPoint x="-4" y="172" />
            </Array>
          </mxGeometry>
        </mxCell>
        <mxCell id="BqypW38kj6GlcWByE3Ns-4" value="" style="html=1;points=[];perimeter=orthogonalPerimeter;outlineConnect=0;targetShapes=umlLifeline;portConstraint=eastwest;newEdgeStyle={&quot;edgeStyle&quot;:&quot;elbowEdgeStyle&quot;,&quot;elbow&quot;:&quot;vertical&quot;,&quot;curved&quot;:0,&quot;rounded&quot;:0};" parent="_YEKrhLMnrgheXRXns0b-84" vertex="1">
          <mxGeometry x="45" y="252" width="10" height="20" as="geometry" />
        </mxCell>
        <mxCell id="BqypW38kj6GlcWByE3Ns-5" value="&lt;font style=&quot;font-size: 8px;&quot;&gt;9. 작동 장치 작동 상태 반환&lt;/font&gt;" style="html=1;verticalAlign=bottom;endArrow=open;dashed=1;endSize=8;edgeStyle=elbowEdgeStyle;elbow=vertical;curved=0;rounded=0;" parent="_YEKrhLMnrgheXRXns0b-84" edge="1">
          <mxGeometry relative="1" as="geometry">
            <mxPoint x="166" y="252" as="sourcePoint" />
            <mxPoint x="55" y="252" as="targetPoint" />
          </mxGeometry>
        </mxCell>
        <mxCell id="_YEKrhLMnrgheXRXns0b-85" value=":MQTT&lt;br&gt;Client" style="shape=umlLifeline;perimeter=lifelinePerimeter;whiteSpace=wrap;html=1;container=1;dropTarget=0;collapsible=0;recursiveResize=0;outlineConnect=0;portConstraint=eastwest;newEdgeStyle={&quot;edgeStyle&quot;:&quot;elbowEdgeStyle&quot;,&quot;elbow&quot;:&quot;vertical&quot;,&quot;curved&quot;:0,&quot;rounded&quot;:0};" parent="1" vertex="1">
          <mxGeometry x="894" y="1725" width="100" height="540" as="geometry" />
        </mxCell>
        <mxCell id="_YEKrhLMnrgheXRXns0b-100" value="" style="html=1;points=[];perimeter=orthogonalPerimeter;outlineConnect=0;targetShapes=umlLifeline;portConstraint=eastwest;newEdgeStyle={&quot;edgeStyle&quot;:&quot;elbowEdgeStyle&quot;,&quot;elbow&quot;:&quot;vertical&quot;,&quot;curved&quot;:0,&quot;rounded&quot;:0};" parent="_YEKrhLMnrgheXRXns0b-85" vertex="1">
          <mxGeometry x="45" y="192" width="10" height="20" as="geometry" />
        </mxCell>
        <mxCell id="_YEKrhLMnrgheXRXns0b-101" value="&lt;font style=&quot;font-size: 8px;&quot;&gt;6. 작동 장치 제어&lt;/font&gt;" style="html=1;verticalAlign=bottom;endArrow=open;edgeStyle=elbowEdgeStyle;elbow=vertical;curved=0;rounded=0;endFill=0;" parent="_YEKrhLMnrgheXRXns0b-85" edge="1">
          <mxGeometry width="80" relative="1" as="geometry">
            <mxPoint x="-64" y="192" as="sourcePoint" />
            <mxPoint x="47" y="192" as="targetPoint" />
            <Array as="points">
              <mxPoint x="-3" y="192" />
            </Array>
          </mxGeometry>
        </mxCell>
        <mxCell id="BqypW38kj6GlcWByE3Ns-1" value="" style="html=1;points=[];perimeter=orthogonalPerimeter;outlineConnect=0;targetShapes=umlLifeline;portConstraint=eastwest;newEdgeStyle={&quot;edgeStyle&quot;:&quot;elbowEdgeStyle&quot;,&quot;elbow&quot;:&quot;vertical&quot;,&quot;curved&quot;:0,&quot;rounded&quot;:0};" parent="_YEKrhLMnrgheXRXns0b-85" vertex="1">
          <mxGeometry x="45" y="232" width="10" height="20" as="geometry" />
        </mxCell>
        <mxCell id="_YEKrhLMnrgheXRXns0b-86" value=":Actuator controller" style="shape=umlLifeline;perimeter=lifelinePerimeter;whiteSpace=wrap;html=1;container=1;dropTarget=0;collapsible=0;recursiveResize=0;outlineConnect=0;portConstraint=eastwest;newEdgeStyle={&quot;edgeStyle&quot;:&quot;elbowEdgeStyle&quot;,&quot;elbow&quot;:&quot;vertical&quot;,&quot;curved&quot;:0,&quot;rounded&quot;:0};" parent="1" vertex="1">
          <mxGeometry x="1010" y="1725" width="100" height="540" as="geometry" />
        </mxCell>
        <mxCell id="_YEKrhLMnrgheXRXns0b-102" value="" style="html=1;points=[];perimeter=orthogonalPerimeter;outlineConnect=0;targetShapes=umlLifeline;portConstraint=eastwest;newEdgeStyle={&quot;edgeStyle&quot;:&quot;elbowEdgeStyle&quot;,&quot;elbow&quot;:&quot;vertical&quot;,&quot;curved&quot;:0,&quot;rounded&quot;:0};" parent="_YEKrhLMnrgheXRXns0b-86" vertex="1">
          <mxGeometry x="45" y="212" width="10" height="20" as="geometry" />
        </mxCell>
        <mxCell id="_YEKrhLMnrgheXRXns0b-103" value="&lt;font style=&quot;font-size: 8px;&quot;&gt;7. 작동 장치 제어&lt;/font&gt;" style="html=1;verticalAlign=bottom;endArrow=open;edgeStyle=elbowEdgeStyle;elbow=vertical;curved=0;rounded=0;endFill=0;" parent="_YEKrhLMnrgheXRXns0b-86" edge="1">
          <mxGeometry width="80" relative="1" as="geometry">
            <mxPoint x="-65" y="212" as="sourcePoint" />
            <mxPoint x="46" y="212" as="targetPoint" />
            <Array as="points">
              <mxPoint x="-4" y="212" />
            </Array>
          </mxGeometry>
        </mxCell>
        <mxCell id="_YEKrhLMnrgheXRXns0b-88" value="&lt;font style=&quot;font-size: 8px;&quot;&gt;1. 센서 희망 수치 설정&lt;/font&gt;" style="html=1;verticalAlign=bottom;endArrow=open;edgeStyle=elbowEdgeStyle;elbow=vertical;curved=0;rounded=0;endFill=0;dashed=1;" parent="1" edge="1">
          <mxGeometry width="80" relative="1" as="geometry">
            <mxPoint x="230" y="1795" as="sourcePoint" />
            <mxPoint x="340" y="1795" as="targetPoint" />
          </mxGeometry>
        </mxCell>
        <mxCell id="_YEKrhLMnrgheXRXns0b-96" value="&lt;font style=&quot;font-size: 8px;&quot;&gt;4. 작동 장치 제어&lt;/font&gt;" style="html=1;verticalAlign=bottom;endArrow=open;edgeStyle=elbowEdgeStyle;elbow=vertical;curved=0;rounded=0;endFill=0;" parent="1" source="_YEKrhLMnrgheXRXns0b-95" edge="1">
          <mxGeometry width="80" relative="1" as="geometry">
            <mxPoint x="590" y="1847" as="sourcePoint" />
            <mxPoint x="700" y="1877" as="targetPoint" />
            <Array as="points">
              <mxPoint x="650" y="1877" />
            </Array>
          </mxGeometry>
        </mxCell>
        <mxCell id="_YEKrhLMnrgheXRXns0b-104" value="&lt;font style=&quot;font-size: 8px;&quot;&gt;8. 작동 장치 작동 상태 반환&lt;/font&gt;" style="html=1;verticalAlign=bottom;endArrow=open;dashed=1;endSize=8;edgeStyle=elbowEdgeStyle;elbow=vertical;curved=0;rounded=0;" parent="1" source="_YEKrhLMnrgheXRXns0b-102" edge="1">
          <mxGeometry relative="1" as="geometry">
            <mxPoint x="1054" y="1957.0011731843576" as="sourcePoint" />
            <mxPoint x="949" y="1957" as="targetPoint" />
          </mxGeometry>
        </mxCell>
        <mxCell id="BqypW38kj6GlcWByE3Ns-10" value="" style="swimlane;startSize=0;" parent="1" vertex="1">
          <mxGeometry x="574" y="1852" width="496" height="190" as="geometry" />
        </mxCell>
        <mxCell id="VWsIwotiQMQ679dIEIKG-1" value="&lt;font face=&quot;맑은 고딕&quot; style=&quot;font-size: 11px;&quot;&gt;&lt;span style=&quot;font-size: 11px;&quot;&gt;&lt;b&gt;if&lt;/b&gt;(센서데이터가 희망 수치를 벗어났을 때&lt;/span&gt;&lt;/font&gt;)&lt;br style=&quot;font-size: 11px;&quot;&gt;&lt;p style=&quot;margin-top: 0pt; margin-bottom: 0pt; margin-left: 0in; direction: ltr; unicode-bidi: embed; font-size: 11px;&quot;&gt;&lt;/p&gt;" style="text;strokeColor=none;align=center;fillColor=none;html=1;verticalAlign=middle;whiteSpace=wrap;rounded=0;fontSize=11;strokeWidth=1;" parent="1" vertex="1">
          <mxGeometry x="588" y="1830" width="210" height="30" as="geometry" />
        </mxCell>
        <mxCell id="VWsIwotiQMQ679dIEIKG-2" value="" style="swimlane;startSize=0;" parent="1" vertex="1">
          <mxGeometry x="574" y="2069" width="496" height="190" as="geometry">
            <mxRectangle x="574" y="1592" width="50" height="40" as="alternateBounds" />
          </mxGeometry>
        </mxCell>
        <mxCell id="VWsIwotiQMQ679dIEIKG-7" value="&lt;font style=&quot;font-size: 8px;&quot;&gt;4. 현재 센서 수치 조회&lt;/font&gt;" style="html=1;verticalAlign=bottom;endArrow=open;edgeStyle=elbowEdgeStyle;elbow=vertical;curved=0;rounded=0;endFill=0;" parent="VWsIwotiQMQ679dIEIKG-2" edge="1">
          <mxGeometry width="80" relative="1" as="geometry">
            <mxPoint x="14.5" y="25" as="sourcePoint" />
            <mxPoint x="125.5" y="25" as="targetPoint" />
            <Array as="points">
              <mxPoint x="75.5" y="25" />
            </Array>
          </mxGeometry>
        </mxCell>
        <mxCell id="VWsIwotiQMQ679dIEIKG-8" value="" style="html=1;points=[];perimeter=orthogonalPerimeter;outlineConnect=0;targetShapes=umlLifeline;portConstraint=eastwest;newEdgeStyle={&quot;edgeStyle&quot;:&quot;elbowEdgeStyle&quot;,&quot;elbow&quot;:&quot;vertical&quot;,&quot;curved&quot;:0,&quot;rounded&quot;:0};" parent="VWsIwotiQMQ679dIEIKG-2" vertex="1">
          <mxGeometry x="125" y="25" width="10" height="20" as="geometry" />
        </mxCell>
        <mxCell id="VWsIwotiQMQ679dIEIKG-10" value="&lt;font style=&quot;font-size: 8px;&quot;&gt;5. 현재 센서 수치 조회&lt;/font&gt;" style="html=1;verticalAlign=bottom;endArrow=open;edgeStyle=elbowEdgeStyle;elbow=vertical;curved=0;rounded=0;endFill=0;" parent="VWsIwotiQMQ679dIEIKG-2" edge="1">
          <mxGeometry width="80" relative="1" as="geometry">
            <mxPoint x="135" y="45" as="sourcePoint" />
            <mxPoint x="246" y="45" as="targetPoint" />
            <Array as="points">
              <mxPoint x="196" y="45" />
            </Array>
          </mxGeometry>
        </mxCell>
        <mxCell id="VWsIwotiQMQ679dIEIKG-11" value="" style="html=1;points=[];perimeter=orthogonalPerimeter;outlineConnect=0;targetShapes=umlLifeline;portConstraint=eastwest;newEdgeStyle={&quot;edgeStyle&quot;:&quot;elbowEdgeStyle&quot;,&quot;elbow&quot;:&quot;vertical&quot;,&quot;curved&quot;:0,&quot;rounded&quot;:0};" parent="VWsIwotiQMQ679dIEIKG-2" vertex="1">
          <mxGeometry x="245.5" y="45" width="10" height="20" as="geometry" />
        </mxCell>
        <mxCell id="VWsIwotiQMQ679dIEIKG-12" value="&lt;font style=&quot;font-size: 8px;&quot;&gt;6. 현재 센서 수치 조회&lt;/font&gt;" style="html=1;verticalAlign=bottom;endArrow=open;edgeStyle=elbowEdgeStyle;elbow=vertical;curved=0;rounded=0;endFill=0;" parent="VWsIwotiQMQ679dIEIKG-2" edge="1">
          <mxGeometry width="80" relative="1" as="geometry">
            <mxPoint x="255.5" y="65" as="sourcePoint" />
            <mxPoint x="366.5" y="65" as="targetPoint" />
            <Array as="points">
              <mxPoint x="316.5" y="65" />
            </Array>
          </mxGeometry>
        </mxCell>
        <mxCell id="VWsIwotiQMQ679dIEIKG-13" value="" style="html=1;points=[];perimeter=orthogonalPerimeter;outlineConnect=0;targetShapes=umlLifeline;portConstraint=eastwest;newEdgeStyle={&quot;edgeStyle&quot;:&quot;elbowEdgeStyle&quot;,&quot;elbow&quot;:&quot;vertical&quot;,&quot;curved&quot;:0,&quot;rounded&quot;:0};" parent="VWsIwotiQMQ679dIEIKG-2" vertex="1">
          <mxGeometry x="366" y="65" width="10" height="20" as="geometry" />
        </mxCell>
        <mxCell id="VWsIwotiQMQ679dIEIKG-17" value="&lt;font style=&quot;font-size: 8px;&quot;&gt;7. 현재 센서 수치 조회&lt;/font&gt;" style="html=1;verticalAlign=bottom;endArrow=open;edgeStyle=elbowEdgeStyle;elbow=vertical;curved=0;rounded=0;endFill=0;" parent="VWsIwotiQMQ679dIEIKG-2" target="VWsIwotiQMQ679dIEIKG-16" edge="1">
          <mxGeometry width="80" relative="1" as="geometry">
            <mxPoint x="376" y="85.01999999999998" as="sourcePoint" />
            <mxPoint x="456" y="85.01999999999998" as="targetPoint" />
          </mxGeometry>
        </mxCell>
        <mxCell id="VWsIwotiQMQ679dIEIKG-16" value="" style="html=1;points=[];perimeter=orthogonalPerimeter;outlineConnect=0;targetShapes=umlLifeline;portConstraint=eastwest;newEdgeStyle={&quot;edgeStyle&quot;:&quot;elbowEdgeStyle&quot;,&quot;elbow&quot;:&quot;vertical&quot;,&quot;curved&quot;:0,&quot;rounded&quot;:0};" parent="VWsIwotiQMQ679dIEIKG-2" vertex="1">
          <mxGeometry x="481" y="85" width="10" height="20" as="geometry" />
        </mxCell>
        <mxCell id="VWsIwotiQMQ679dIEIKG-18" value="&lt;font style=&quot;font-size: 8px;&quot;&gt;8. 현재 센서 수치 반환&lt;/font&gt;" style="html=1;verticalAlign=bottom;endArrow=open;dashed=1;endSize=8;edgeStyle=elbowEdgeStyle;elbow=vertical;curved=0;rounded=0;" parent="VWsIwotiQMQ679dIEIKG-2" target="VWsIwotiQMQ679dIEIKG-19" edge="1">
          <mxGeometry relative="1" as="geometry">
            <mxPoint x="481" y="105" as="sourcePoint" />
            <mxPoint x="401" y="105" as="targetPoint" />
          </mxGeometry>
        </mxCell>
        <mxCell id="VWsIwotiQMQ679dIEIKG-19" value="" style="html=1;points=[];perimeter=orthogonalPerimeter;outlineConnect=0;targetShapes=umlLifeline;portConstraint=eastwest;newEdgeStyle={&quot;edgeStyle&quot;:&quot;elbowEdgeStyle&quot;,&quot;elbow&quot;:&quot;vertical&quot;,&quot;curved&quot;:0,&quot;rounded&quot;:0};" parent="VWsIwotiQMQ679dIEIKG-2" vertex="1">
          <mxGeometry x="365" y="105" width="10" height="20" as="geometry" />
        </mxCell>
        <mxCell id="VWsIwotiQMQ679dIEIKG-20" value="&lt;font style=&quot;font-size: 8px;&quot;&gt;9. 현재 센서 수치 반환&lt;/font&gt;" style="html=1;verticalAlign=bottom;endArrow=open;dashed=1;endSize=8;edgeStyle=elbowEdgeStyle;elbow=vertical;curved=0;rounded=0;" parent="VWsIwotiQMQ679dIEIKG-2" edge="1">
          <mxGeometry relative="1" as="geometry">
            <mxPoint x="366.5" y="125.07999999999993" as="sourcePoint" />
            <mxPoint x="255.5" y="125.07999999999993" as="targetPoint" />
          </mxGeometry>
        </mxCell>
        <mxCell id="VWsIwotiQMQ679dIEIKG-21" value="" style="html=1;points=[];perimeter=orthogonalPerimeter;outlineConnect=0;targetShapes=umlLifeline;portConstraint=eastwest;newEdgeStyle={&quot;edgeStyle&quot;:&quot;elbowEdgeStyle&quot;,&quot;elbow&quot;:&quot;vertical&quot;,&quot;curved&quot;:0,&quot;rounded&quot;:0};" parent="VWsIwotiQMQ679dIEIKG-2" vertex="1">
          <mxGeometry x="245.5" y="125.07999999999993" width="10" height="20" as="geometry" />
        </mxCell>
        <mxCell id="VWsIwotiQMQ679dIEIKG-22" value="&lt;font style=&quot;font-size: 8px;&quot;&gt;10. 현재 센서 수치 반환&lt;/font&gt;" style="html=1;verticalAlign=bottom;endArrow=open;dashed=1;endSize=8;edgeStyle=elbowEdgeStyle;elbow=vertical;curved=0;rounded=0;" parent="VWsIwotiQMQ679dIEIKG-2" edge="1">
          <mxGeometry relative="1" as="geometry">
            <mxPoint x="245.5" y="145.13000000000008" as="sourcePoint" />
            <mxPoint x="134.5" y="145.1300000000003" as="targetPoint" />
            <Array as="points">
              <mxPoint x="250.5" y="144.97" />
            </Array>
          </mxGeometry>
        </mxCell>
        <mxCell id="VWsIwotiQMQ679dIEIKG-23" value="" style="html=1;points=[];perimeter=orthogonalPerimeter;outlineConnect=0;targetShapes=umlLifeline;portConstraint=eastwest;newEdgeStyle={&quot;edgeStyle&quot;:&quot;elbowEdgeStyle&quot;,&quot;elbow&quot;:&quot;vertical&quot;,&quot;curved&quot;:0,&quot;rounded&quot;:0};" parent="VWsIwotiQMQ679dIEIKG-2" vertex="1">
          <mxGeometry x="125" y="145.16000000000008" width="10" height="20" as="geometry" />
        </mxCell>
        <mxCell id="VWsIwotiQMQ679dIEIKG-24" value="&lt;font style=&quot;font-size: 8px;&quot;&gt;11. 현재 센서 수치 반환&lt;/font&gt;" style="html=1;verticalAlign=bottom;endArrow=open;dashed=1;endSize=8;edgeStyle=elbowEdgeStyle;elbow=vertical;curved=0;rounded=0;" parent="VWsIwotiQMQ679dIEIKG-2" edge="1">
          <mxGeometry relative="1" as="geometry">
            <mxPoint x="125" y="165.32000000000016" as="sourcePoint" />
            <mxPoint x="14" y="165.3200000000004" as="targetPoint" />
            <Array as="points">
              <mxPoint x="130" y="165.16000000000008" />
            </Array>
          </mxGeometry>
        </mxCell>
        <mxCell id="VWsIwotiQMQ679dIEIKG-25" value="" style="html=1;points=[];perimeter=orthogonalPerimeter;outlineConnect=0;targetShapes=umlLifeline;portConstraint=eastwest;newEdgeStyle={&quot;edgeStyle&quot;:&quot;elbowEdgeStyle&quot;,&quot;elbow&quot;:&quot;vertical&quot;,&quot;curved&quot;:0,&quot;rounded&quot;:0};" parent="VWsIwotiQMQ679dIEIKG-2" vertex="1">
          <mxGeometry x="4.5" y="165.35000000000014" width="10" height="20" as="geometry" />
        </mxCell>
        <mxCell id="VWsIwotiQMQ679dIEIKG-3" value="&lt;div style=&quot;&quot;&gt;&lt;b style=&quot;font-family: &amp;quot;맑은 고딕&amp;quot;; background-color: initial;&quot;&gt;else&lt;/b&gt;&lt;/div&gt;&lt;p style=&quot;margin-top: 0pt; margin-bottom: 0pt; margin-left: 0in; direction: ltr; unicode-bidi: embed; font-size: 11px;&quot;&gt;&lt;/p&gt;" style="text;strokeColor=none;align=left;fillColor=none;html=1;verticalAlign=middle;whiteSpace=wrap;rounded=0;fontSize=11;strokeWidth=1;" parent="1" vertex="1">
          <mxGeometry x="588" y="2047" width="210" height="30" as="geometry" />
        </mxCell>
        <mxCell id="VWsIwotiQMQ679dIEIKG-26" value="" style="swimlane;startSize=0;" parent="1" vertex="1">
          <mxGeometry x="548" y="1838" width="550" height="429" as="geometry" />
        </mxCell>
        <mxCell id="VWsIwotiQMQ679dIEIKG-27" value="&lt;font face=&quot;맑은 고딕&quot;&gt;&lt;b&gt;loop&lt;/b&gt;&lt;/font&gt;" style="text;strokeColor=none;align=left;fillColor=none;html=1;verticalAlign=middle;whiteSpace=wrap;rounded=0;fontSize=11;strokeWidth=1;" parent="1" vertex="1">
          <mxGeometry x="548" y="1815" width="210" height="30" as="geometry" />
        </mxCell>
      </root>
    </mxGraphModel>
  </diagram>
</mxfile>
